<svg width="755" height="660" viewBox="0 0 755 660" fill="none" xmlns="http://www.w3.org/2000/svg">
<path d="M239.734 180.56C258.979 147.227 307.092 147.227 326.337 180.56L559.298 584.06C578.543 617.394 554.486 659.06 515.996 659.06H50.0746C11.5846 659.06 -12.4717 617.394 6.77333 584.06L239.734 180.56Z" fill="#6500AC"/>
<path d="M318.807 116.785C297.394 79.4058 310.337 31.7452 347.717 10.3321C385.096 -11.081 432.757 1.86213 454.17 39.2414L654.491 388.928C675.904 426.307 662.961 473.968 625.582 495.381C588.202 516.794 540.542 503.851 519.129 466.471L318.807 116.785Z" fill="#280045"/>
<path d="M608.807 619.785C587.394 582.406 600.337 534.745 637.717 513.332C675.096 491.919 722.757 504.862 744.17 542.241C765.583 579.621 752.64 627.281 715.26 648.694C677.881 670.108 630.22 657.164 608.807 619.785Z" fill="#280045"/>
</svg>
