<svg width="32" height="32" viewBox="0 0 32 32" fill="none" xmlns="http://www.w3.org/2000/svg">
<path fill-rule="evenodd" clip-rule="evenodd" d="M9.33317 2.66699C7.56506 2.66699 5.86937 3.36937 4.61913 4.61961C3.36888 5.86986 2.6665 7.56555 2.6665 9.33366V22.667C2.6665 24.4351 3.36888 26.1308 4.61913 27.381C5.86937 28.6313 7.56506 29.3337 9.33317 29.3337H22.6665C24.4346 29.3337 26.1303 28.6313 27.3805 27.381C28.6308 26.1308 29.3332 24.4351 29.3332 22.667V9.33366C29.3332 7.56555 28.6308 5.86986 27.3805 4.61961C26.1303 3.36937 24.4346 2.66699 22.6665 2.66699H9.33317ZM20.9732 14.2457C21.0929 14.1178 21.1864 13.9677 21.2481 13.8038C21.3098 13.6398 21.3387 13.4654 21.333 13.2903C21.3273 13.1152 21.2871 12.943 21.2149 12.7834C21.1426 12.6239 21.0397 12.4801 20.9118 12.3603C20.784 12.2406 20.6339 12.1471 20.4699 12.0854C20.306 12.0237 20.1315 11.9948 19.9565 12.0005C19.7814 12.0062 19.6092 12.0463 19.4496 12.1186C19.29 12.1909 19.1463 12.2938 19.0265 12.4217L14.9158 16.8083L12.8852 15.0043C12.6191 14.7831 12.2775 14.6741 11.9325 14.7001C11.5875 14.7261 11.2661 14.8852 11.0363 15.1438C10.8064 15.4024 10.6861 15.7402 10.7007 16.0859C10.7153 16.4316 10.8637 16.758 11.1145 16.9963L14.1145 19.663C14.3741 19.8936 14.7134 20.0138 15.0602 19.9981C15.4071 19.9824 15.7341 19.8321 15.9718 19.579L20.9732 14.2457Z" fill="white"/>
</svg>
