<svg width="24" height="32" viewBox="0 0 24 32" fill="none" xmlns="http://www.w3.org/2000/svg">
<g clip-path="url(#clip0_19409_2867)">
<path d="M6.54955 28.3969C6.55023 28.7901 6.67705 29.1751 6.915 29.5026L8.08023 31.1082C8.27928 31.3827 8.54927 31.6078 8.86617 31.7635C9.18306 31.9192 9.53704 32.0007 9.89659 32.0007H14.1041C14.4636 32.0007 14.8176 31.9192 15.1345 31.7635C15.4514 31.6078 15.7214 31.3827 15.9205 31.1082L17.0857 29.5026C17.3235 29.175 17.4506 28.7904 17.4511 28.3969L17.4539 26.0001H6.54614L6.54955 28.3969ZM0 11.0001C0 13.7732 1.12159 16.3032 2.97 18.2363C4.09636 19.4144 5.85818 21.8757 6.52977 23.9519C6.5325 23.9682 6.53455 23.9844 6.53727 24.0007H17.4627C17.4655 23.9844 17.4675 23.9688 17.4702 23.9519C18.1418 21.8757 19.9036 19.4144 21.03 18.2363C22.8784 16.3032 24 13.7732 24 11.0001C24 4.91318 18.6075 -0.0186967 11.9625 5.32861e-05C5.00727 0.0194283 0 5.18568 0 11.0001ZM12 6.00005C8.9925 6.00005 6.54545 8.24318 6.54545 11.0001C6.54545 11.5526 6.05727 12.0001 5.45455 12.0001C4.85182 12.0001 4.36364 11.5526 4.36364 11.0001C4.36364 7.14005 7.78909 4.00005 12 4.00005C12.6027 4.00005 13.0909 4.44755 13.0909 5.00005C13.0909 5.55255 12.6027 6.00005 12 6.00005Z" fill="white"/>
</g>
<defs>
<clipPath id="clip0_19409_2867">
<rect width="24" height="32" fill="white"/>
</clipPath>
</defs>
</svg>
