<svg width="32" height="26" viewBox="0 0 32 26" fill="none" xmlns="http://www.w3.org/2000/svg">
<path d="M21.735 3.25H17.44C17.04 3.25 16.655 3.40234 16.36 3.67656L11.445 8.24687C11.44 8.25195 11.435 8.26211 11.43 8.26719C10.6 9.05938 10.615 10.3238 11.325 11.1109C11.96 11.8168 13.295 12.0047 14.13 11.248C14.135 11.243 14.145 11.243 14.15 11.2379L18.145 7.5207C18.47 7.22109 18.98 7.24141 19.275 7.57148C19.575 7.90156 19.55 8.41445 19.225 8.71914L17.92 9.93281L25.2 15.9352C25.345 16.057 25.475 16.1891 25.595 16.3262V6.5L22.865 3.72734C22.57 3.42266 22.16 3.25 21.735 3.25ZM27.2 6.51016V17.8801C27.2 18.7789 27.915 19.5051 28.8 19.5051H32V6.51016H27.2ZM29.6 17.8801C29.16 17.8801 28.8 17.5145 28.8 17.0676C28.8 16.6207 29.16 16.2551 29.6 16.2551C30.04 16.2551 30.4 16.6207 30.4 17.0676C30.4 17.5145 30.04 17.8801 29.6 17.8801ZM0 19.5H3.2C4.085 19.5 4.8 18.7738 4.8 17.875V6.51016H0V19.5ZM2.4 16.2551C2.84 16.2551 3.2 16.6207 3.2 17.0676C3.2 17.5145 2.84 17.8801 2.4 17.8801C1.96 17.8801 1.6 17.5145 1.6 17.0676C1.6 16.6156 1.96 16.2551 2.4 16.2551ZM24.195 17.1996L16.73 11.0449L15.23 12.4414C13.745 13.8176 11.47 13.6855 10.145 12.218C8.8 10.725 8.905 8.41445 10.365 7.05352L14.455 3.25H10.265C9.84 3.25 9.435 3.42266 9.135 3.72734L6.4 6.5V17.8699H7.315L11.84 22.0289C13.21 23.1613 15.225 22.948 16.34 21.5566L16.35 21.5465L17.245 22.3336C18.04 22.9937 19.215 22.8668 19.86 22.0594L21.43 20.0992L21.7 20.3227C22.385 20.8863 23.395 20.7848 23.95 20.084L24.425 19.4898C24.985 18.7891 24.88 17.7684 24.195 17.1996Z" fill="white"/>
</svg>
