<svg width="32" height="32" viewBox="0 0 32 32" fill="none" xmlns="http://www.w3.org/2000/svg">
<path d="M16.0001 14.3998C17.2731 14.3998 18.494 13.8941 19.3942 12.9939C20.2944 12.0937 20.8001 10.8728 20.8001 9.5998C20.8001 8.32677 20.2944 7.10587 19.3942 6.20569C18.494 5.30552 17.2731 4.7998 16.0001 4.7998C14.727 4.7998 13.5061 5.30552 12.606 6.20569C11.7058 7.10587 11.2001 8.32677 11.2001 9.5998C11.2001 10.8728 11.7058 12.0937 12.606 12.9939C13.5061 13.8941 14.727 14.3998 16.0001 14.3998ZM9.60008 12.7998C9.60008 13.6485 9.26294 14.4624 8.66282 15.0625C8.06271 15.6627 7.24877 15.9998 6.40008 15.9998C5.55139 15.9998 4.73746 15.6627 4.13734 15.0625C3.53722 14.4624 3.20008 13.6485 3.20008 12.7998C3.20008 11.9511 3.53722 11.1372 4.13734 10.5371C4.73746 9.93695 5.55139 9.5998 6.40008 9.5998C7.24877 9.5998 8.06271 9.93695 8.66282 10.5371C9.26294 11.1372 9.60008 11.9511 9.60008 12.7998ZM2.38408 24.5214C2.11094 24.3662 1.90639 24.1136 1.81128 23.8142C1.52937 22.9011 1.52641 21.9247 1.80279 21.0099C2.07917 20.0952 2.6223 19.2837 3.36263 18.6795C4.10296 18.0753 5.0068 17.7058 5.95839 17.6183C6.90998 17.5309 7.86602 17.7294 8.70408 18.1886C6.98145 19.8807 5.90345 22.121 5.65608 24.523C5.61982 24.8803 5.63315 25.2291 5.69608 25.5694C4.52865 25.4669 3.39799 25.1091 2.38408 24.5214ZM26.3041 25.5678C27.4714 25.4658 28.602 25.1086 29.6161 24.5214C29.8886 24.3659 30.0926 24.1134 30.1873 23.8142C30.4696 22.901 30.4729 21.9243 30.1968 21.0093C29.9206 20.0942 29.3775 19.2825 28.637 18.678C27.8966 18.0735 26.9926 17.7039 26.0408 17.6164C25.0889 17.5289 24.1327 17.7276 23.2945 18.187C25.0186 19.879 26.0978 22.12 26.3457 24.523C26.3818 24.872 26.3678 25.2244 26.3041 25.5694M28.8001 12.7998C28.8001 13.6485 28.4629 14.4624 27.8628 15.0625C27.2627 15.6627 26.4488 15.9998 25.6001 15.9998C24.7514 15.9998 23.9375 15.6627 23.3373 15.0625C22.7372 14.4624 22.4001 13.6485 22.4001 12.7998C22.4001 11.9511 22.7372 11.1372 23.3373 10.5371C23.9375 9.93695 24.7514 9.5998 25.6001 9.5998C26.4488 9.5998 27.2627 9.93695 27.8628 10.5371C28.4629 11.1372 28.8001 11.9511 28.8001 12.7998ZM8.48648 25.9038C8.32828 25.7628 8.20566 25.5864 8.12863 25.389C8.05161 25.1915 8.02236 24.9787 8.04328 24.7678C8.24679 22.799 9.17295 20.9755 10.6427 19.6498C12.1125 18.3241 14.0216 17.5904 16.0009 17.5904C17.9802 17.5904 19.8892 18.3241 21.359 19.6498C22.8288 20.9755 23.755 22.799 23.9585 24.7678C23.9794 24.9787 23.9502 25.1915 23.8731 25.389C23.7961 25.5864 23.6735 25.7628 23.5153 25.9038C21.4576 27.7703 18.7781 28.8028 16.0001 28.7998C13.2223 28.8039 10.5429 27.7712 8.48648 25.9038Z" fill="white"/>
</svg>
