<svg width="32" height="32" viewBox="0 0 32 32" fill="none" xmlns="http://www.w3.org/2000/svg">
<path d="M16 2.66699C9.372 2.66699 4 8.03899 4 14.667C4 21.295 9.372 26.667 16 26.667C22.628 26.667 28 21.295 28 14.667C28 8.03899 22.628 2.66699 16 2.66699ZM18.6667 5.33366C18.6667 6.66699 18 8.00033 16.6667 8.00033C15.3333 8.00033 14.6667 9.33366 14.6667 10.667V14.667C14.6667 14.667 16 14.667 16 10.667C16 10.3134 16.1405 9.97423 16.3905 9.72418C16.6406 9.47413 16.9797 9.33366 17.3333 9.33366C17.687 9.33366 18.0261 9.47413 18.2761 9.72418C18.5262 9.97423 18.6667 10.3134 18.6667 10.667V14.667C18.403 14.667 18.1452 14.7452 17.9259 14.8917C17.7066 15.0382 17.5357 15.2464 17.4348 15.4901C17.3339 15.7337 17.3075 16.0018 17.359 16.2604C17.4104 16.5191 17.5374 16.7567 17.7239 16.9431C17.9103 17.1296 18.1479 17.2566 18.4065 17.308C18.6652 17.3595 18.9333 17.3331 19.1769 17.2322C19.4205 17.1312 19.6288 16.9604 19.7753 16.7411C19.9218 16.5218 20 16.264 20 16.0003H21.3333V13.3337L22.6667 14.667L21.3333 16.0003C21.3333 20.0003 21.3333 20.0003 18.6667 21.3337C18.6667 20.0003 17.3333 20.0003 14.6667 20.0003V17.3337L12 14.667V12.0003C10.6667 12.0003 10.6667 13.3337 10.6667 13.3337L9.91867 12.5857L6.732 9.39899C6.87778 9.14121 7.03333 8.89055 7.19867 8.64699L7.896 7.74299C8.89512 6.56942 10.1373 5.62692 11.5365 4.98071C12.9358 4.33449 14.4587 3.99998 16 4.00033C16.9001 4.00379 17.7961 4.12117 18.6667 4.34966V5.33366Z" fill="white"/>
</svg>
