<svg width="375" height="106" viewBox="0 0 375 106" fill="none" xmlns="http://www.w3.org/2000/svg">
<g opacity="0.5">
<g clip-path="url(#clip0_19409_2842)">
<path d="M117.771 68.6384L131.679 28.6162H142.465L123.744 77.7304H111.62L92.9873 28.6162H103.864L117.771 68.6384Z" fill="black"/>
<path d="M191.871 51.9714C191.871 53.8135 191.752 55.4774 191.514 56.963H153.983C154.28 60.885 155.735 64.0345 158.35 66.4115C160.965 68.7885 164.175 69.9769 167.979 69.9769C173.447 69.9769 177.31 67.6891 179.568 63.1134H190.535C189.049 67.6297 186.344 71.3437 182.421 74.2555C178.558 77.1078 173.744 78.534 167.979 78.534C163.283 78.534 159.063 77.4941 155.319 75.4142C151.634 73.275 148.722 70.3038 146.582 66.5006C144.502 62.638 143.463 58.1812 143.463 53.1302C143.463 48.0791 144.473 43.652 146.494 39.8488C148.574 35.9863 151.456 33.0151 155.141 30.9352C158.885 28.8554 163.164 27.8154 167.979 27.8154C172.614 27.8154 176.746 28.8256 180.371 30.8461C183.997 32.8665 186.819 35.7189 188.84 39.4032C190.861 43.028 191.871 47.2174 191.871 51.9714ZM181.263 48.7625C181.203 45.0187 179.865 42.0178 177.25 39.7597C174.635 37.5016 171.397 36.3725 167.534 36.3725C164.027 36.3725 161.025 37.5016 158.529 39.7597C156.032 41.9584 154.547 44.9593 154.071 48.7625H181.263Z" fill="black"/>
<path d="M208.738 35.7486C210.224 33.2527 212.186 31.3215 214.622 29.9547C217.119 28.5285 220.06 27.8154 223.447 27.8154V38.3335H220.863C216.881 38.3335 213.85 39.3437 211.77 41.3642C209.749 43.3846 208.738 46.8906 208.738 51.8822V77.7318H198.575V28.6177H208.738V35.7486Z" fill="black"/>
<path d="M234.662 22.1106C232.819 22.1106 231.274 21.4866 230.026 20.2387C228.778 18.9908 228.153 17.4458 228.153 15.6036C228.153 13.7615 228.778 12.2165 230.026 10.9685C231.274 9.72063 232.819 9.09668 234.662 9.09668C236.445 9.09668 237.959 9.72063 239.208 10.9685C240.456 12.2165 241.081 13.7615 241.081 15.6036C241.081 17.4458 240.456 18.9908 239.208 20.2387C237.959 21.4866 236.445 22.1106 234.662 22.1106ZM239.654 28.6175V77.7317H229.491V28.6175H239.654Z" fill="black"/>
<path d="M259.861 35.8377C261.585 33.5796 263.933 31.678 266.905 30.133C269.877 28.5879 273.234 27.8154 276.978 27.8154C281.258 27.8154 285.151 28.8851 288.658 31.0243C292.224 33.1042 295.017 36.0457 297.038 39.8488C299.059 43.652 300.069 48.0197 300.069 52.9519C300.069 57.8841 299.059 62.3112 297.038 66.2332C295.017 70.0958 292.224 73.1264 288.658 75.3251C285.151 77.4644 281.258 78.534 276.978 78.534C273.234 78.534 269.906 77.7912 266.994 76.3056C264.081 74.7606 261.704 72.859 259.861 70.6009V101.086H249.698V28.6177H259.861V35.8377ZM289.728 52.9519C289.728 49.5647 289.015 46.6529 287.588 44.2165C286.221 41.7207 284.379 39.8488 282.061 38.6009C279.802 37.2936 277.366 36.6399 274.75 36.6399C272.195 36.6399 269.758 37.2936 267.44 38.6009C265.182 39.9083 263.339 41.8098 261.913 44.3057C260.546 46.8015 259.861 49.743 259.861 53.1302C259.861 56.5173 260.546 59.4886 261.913 62.0438C263.339 64.5396 265.182 66.4412 267.44 67.7485C269.758 69.0559 272.195 69.7095 274.75 69.7095C277.366 69.7095 279.802 69.0559 282.061 67.7485C284.379 66.3818 286.221 64.4208 287.588 61.8655C289.015 59.3103 289.728 56.3391 289.728 52.9519Z" fill="black"/>
<path d="M316.985 11.7734V77.7344H306.822V11.7734H316.985Z" fill="black"/>
<path d="M348.336 78.534C343.7 78.534 339.509 77.4941 335.765 75.4142C332.021 73.275 329.08 70.3038 326.94 66.5006C324.8 62.638 323.73 58.1812 323.73 53.1302C323.73 48.1385 324.829 43.7114 327.028 39.8488C329.227 35.9863 332.23 33.0151 336.033 30.9352C339.837 28.8554 344.086 27.8154 348.781 27.8154C353.476 27.8154 357.727 28.8554 361.53 30.9352C365.334 33.0151 368.335 35.9863 370.534 39.8488C372.733 43.7114 373.833 48.1385 373.833 53.1302C373.833 58.1218 372.704 62.5489 370.446 66.4115C368.187 70.2741 365.096 73.275 361.174 75.4142C357.311 77.4941 353.031 78.534 348.336 78.534ZM348.336 69.7095C350.951 69.7095 353.388 69.0856 355.646 67.8377C357.964 66.5897 359.836 64.7179 361.262 62.2221C362.689 59.7262 363.402 56.6956 363.402 53.1302C363.402 49.5647 362.719 46.5638 361.352 44.1274C359.985 41.6316 358.172 39.7597 355.913 38.5118C353.655 37.2639 351.218 36.6399 348.603 36.6399C345.988 36.6399 343.551 37.2639 341.292 38.5118C339.093 39.7597 337.341 41.6316 336.033 44.1274C334.726 46.5638 334.072 49.5647 334.072 53.1302C334.072 58.4189 335.408 62.5192 338.083 65.431C340.817 68.2833 344.235 69.7095 348.336 69.7095Z" fill="black"/>
<path d="M4.509 28.9985C7.60037 23.645 15.3289 23.645 18.4202 28.9985L55.8413 93.8031C58.9326 99.1567 55.0683 105.849 48.8856 105.849H-25.9564C-32.1391 105.849 -36.0034 99.1567 -32.912 93.8031L4.509 28.9985Z" fill="#6500AC"/>
<path d="M17.2109 18.7564C13.7713 12.7531 15.8504 5.09847 21.8548 1.6594C27.8591 -1.77968 35.515 0.299067 38.9546 6.3024L71.1326 62.4642C74.5722 68.4675 72.4931 76.1221 66.4889 79.5612C60.4844 83.0002 52.8287 80.9215 49.3891 74.9181L17.2109 18.7564Z" fill="#280045"/>
<path d="M63.7939 99.5415C60.3543 93.5382 62.4334 85.8836 68.4378 82.4445C74.4421 79.0055 82.098 81.0842 85.5376 87.0875C88.9772 93.091 86.8981 100.745 80.8937 104.185C74.8894 107.624 67.2336 105.545 63.7939 99.5415Z" fill="#280045"/>
</g>
</g>
<defs>
<clipPath id="clip0_19409_2842">
<rect width="438.526" height="106" fill="white" transform="translate(-34)"/>
</clipPath>
</defs>
</svg>
