<svg width="1527" height="1212" viewBox="0 0 1527 1212" fill="none" xmlns="http://www.w3.org/2000/svg">
<path d="M121.855 1052.43L190.027 856.213H242.904L151.134 1097H91.7021L0.369141 856.213H53.6831L121.855 1052.43Z" fill="black"/>
<path d="M485.077 970.707C485.077 979.738 484.495 987.896 483.329 995.179H299.352C300.809 1014.41 307.947 1029.85 320.765 1041.5C333.584 1053.15 349.316 1058.98 367.961 1058.98C394.764 1058.98 413.701 1047.76 424.771 1025.33H478.522C471.239 1047.47 457.983 1065.68 438.755 1079.96C419.819 1093.94 396.221 1100.93 367.961 1100.93C344.946 1100.93 324.261 1095.83 305.907 1085.64C287.845 1075.15 273.569 1060.58 263.081 1041.94C252.885 1023 247.786 1001.15 247.786 976.388C247.786 951.625 252.739 929.92 262.644 911.275C272.841 892.338 286.971 877.772 305.033 867.575C323.387 857.378 344.363 852.28 367.961 852.28C390.685 852.28 410.933 857.233 428.704 867.138C446.476 877.043 460.314 891.027 470.219 909.09C480.125 926.861 485.077 947.4 485.077 970.707ZM433.074 954.975C432.783 936.621 426.228 921.909 413.409 910.838C400.591 899.767 384.713 894.232 365.776 894.232C348.588 894.232 333.875 899.767 321.639 910.838C309.403 921.617 302.12 936.33 299.789 954.975H433.074Z" fill="black"/>
<path d="M567.752 891.173C575.036 878.937 584.65 869.469 596.594 862.768C608.83 855.776 623.251 852.28 639.857 852.28V903.846H627.184C607.665 903.846 592.807 908.799 582.61 918.704C572.705 928.609 567.752 945.798 567.752 970.27V1097H517.934V856.213H567.752V891.173Z" fill="black"/>
<path d="M694.827 824.312C685.796 824.312 678.221 821.253 672.103 815.135C665.985 809.017 662.926 801.442 662.926 792.411C662.926 783.38 665.985 775.805 672.103 769.687C678.221 763.569 685.796 760.51 694.827 760.51C703.567 760.51 710.996 763.569 717.114 769.687C723.232 775.805 726.291 783.38 726.291 792.411C726.291 801.442 723.232 809.017 717.114 815.135C710.996 821.253 703.567 824.312 694.827 824.312ZM719.299 856.213V1097H669.481V856.213H719.299Z" fill="black"/>
<path d="M818.355 891.61C826.803 880.539 838.311 871.217 852.878 863.642C867.444 856.067 883.905 852.28 902.259 852.28C923.235 852.28 942.317 857.524 959.506 868.012C976.986 878.209 990.678 892.63 1000.58 911.275C1010.49 929.92 1015.44 951.333 1015.44 975.514C1015.44 999.695 1010.49 1021.4 1000.58 1040.63C990.678 1059.56 976.986 1074.42 959.506 1085.2C942.317 1095.69 923.235 1100.93 902.259 1100.93C883.905 1100.93 867.59 1097.29 853.315 1090.01C839.039 1082.43 827.386 1073.11 818.355 1062.04V1211.49H768.537V856.213H818.355V891.61ZM964.75 975.514C964.75 958.908 961.254 944.633 954.262 932.688C947.561 920.452 938.53 911.275 927.168 905.157C916.097 898.748 904.152 895.543 891.334 895.543C878.806 895.543 866.862 898.748 855.5 905.157C844.429 911.566 835.398 920.889 828.406 933.125C821.705 945.361 818.355 959.782 818.355 976.388C818.355 992.994 821.705 1007.56 828.406 1020.09C835.398 1032.32 844.429 1041.65 855.5 1048.06C866.862 1054.47 878.806 1057.67 891.334 1057.67C904.152 1057.67 916.097 1054.47 927.168 1048.06C938.53 1041.36 947.561 1031.74 954.262 1019.21C961.254 1006.69 964.75 992.12 964.75 975.514Z" fill="black"/>
<path d="M1098.36 773.62V1097H1048.54V773.62H1098.36Z" fill="black"/>
<path d="M1252.04 1100.93C1229.31 1100.93 1208.77 1095.83 1190.42 1085.64C1172.07 1075.15 1157.64 1060.58 1147.16 1041.94C1136.67 1023 1131.42 1001.15 1131.42 976.388C1131.42 951.916 1136.81 930.212 1147.59 911.275C1158.37 892.338 1173.08 877.772 1191.73 867.575C1210.38 857.378 1231.21 852.28 1254.22 852.28C1277.24 852.28 1298.07 857.378 1316.71 867.575C1335.36 877.772 1350.07 892.338 1360.85 911.275C1371.63 930.212 1377.02 951.916 1377.02 976.388C1377.02 1000.86 1371.48 1022.56 1360.41 1041.5C1349.34 1060.44 1334.19 1075.15 1314.96 1085.64C1296.03 1095.83 1275.05 1100.93 1252.04 1100.93ZM1252.04 1057.67C1264.85 1057.67 1276.8 1054.61 1287.87 1048.49C1299.23 1042.38 1308.41 1033.2 1315.4 1020.96C1322.39 1008.73 1325.89 993.868 1325.89 976.388C1325.89 958.908 1322.54 944.196 1315.84 932.251C1309.14 920.015 1300.25 910.838 1289.18 904.72C1278.11 898.602 1266.17 895.543 1253.35 895.543C1240.53 895.543 1228.58 898.602 1217.51 904.72C1206.73 910.838 1198.14 920.015 1191.73 932.251C1185.32 944.196 1182.12 958.908 1182.12 976.388C1182.12 1002.32 1188.67 1022.42 1201.78 1036.69C1215.18 1050.68 1231.93 1057.67 1252.04 1057.67Z" fill="black"/>
<path d="M1468.22 896.854V1030.14C1468.22 1039.17 1470.26 1045.73 1474.34 1049.8C1478.71 1053.59 1485.99 1055.48 1496.19 1055.48H1526.78V1097H1487.45C1465.01 1097 1447.82 1091.76 1435.88 1081.27C1423.94 1070.78 1417.96 1053.74 1417.96 1030.14V896.854H1389.56V856.213H1417.96V796.344H1468.22V856.213H1526.78V896.854H1468.22Z" fill="black"/>
<path d="M671.733 180.56C690.978 147.227 739.091 147.227 758.336 180.56L991.297 584.06C1010.54 617.394 986.485 659.06 947.995 659.06H482.074C443.584 659.06 419.527 617.394 438.772 584.06L671.733 180.56Z" fill="#6500AC"/>
<path d="M750.806 116.785C729.393 79.4058 742.336 31.7452 779.716 10.3321C817.095 -11.081 864.756 1.86213 886.169 39.2414L1086.49 388.928C1107.9 426.307 1094.96 473.968 1057.58 495.381C1020.2 516.794 972.541 503.851 951.128 466.471L750.806 116.785Z" fill="#280045"/>
<path d="M1040.81 619.785C1019.39 582.406 1032.34 534.745 1069.72 513.332C1107.09 491.919 1154.76 504.862 1176.17 542.241C1197.58 579.621 1184.64 627.281 1147.26 648.694C1109.88 670.108 1062.22 657.164 1040.81 619.785Z" fill="#280045"/>
</svg>
