<svg width="1527" height="1237" viewBox="0 0 1527 1237" fill="none" xmlns="http://www.w3.org/2000/svg">
<path d="M121.855 1052.43L190.027 856.213H242.904L151.134 1097H91.7021L0.369141 856.213H53.6831L121.855 1052.43Z" fill="black"/>
<path d="M485.077 970.707C485.077 979.738 484.495 987.896 483.329 995.179H299.352C300.809 1014.41 307.947 1029.85 320.765 1041.5C333.584 1053.15 349.316 1058.98 367.961 1058.98C394.764 1058.98 413.701 1047.76 424.771 1025.33H478.522C471.239 1047.47 457.983 1065.68 438.755 1079.96C419.819 1093.94 396.221 1100.93 367.961 1100.93C344.946 1100.93 324.261 1095.83 305.907 1085.64C287.845 1075.15 273.569 1060.58 263.081 1041.94C252.885 1023 247.786 1001.15 247.786 976.388C247.786 951.625 252.739 929.92 262.644 911.275C272.841 892.338 286.971 877.772 305.033 867.575C323.387 857.378 344.363 852.28 367.961 852.28C390.685 852.28 410.933 857.233 428.704 867.138C446.476 877.043 460.314 891.027 470.219 909.09C480.125 926.861 485.077 947.4 485.077 970.707ZM433.074 954.975C432.783 936.621 426.228 921.909 413.409 910.838C400.591 899.767 384.713 894.232 365.776 894.232C348.588 894.232 333.875 899.767 321.639 910.838C309.403 921.617 302.12 936.33 299.789 954.975H433.074Z" fill="black"/>
<path d="M567.752 891.173C575.036 878.937 584.65 869.469 596.594 862.768C608.83 855.776 623.251 852.28 639.857 852.28V903.846H627.184C607.665 903.846 592.807 908.799 582.61 918.704C572.705 928.609 567.752 945.798 567.752 970.27V1097H517.934V856.213H567.752V891.173Z" fill="black"/>
<path d="M694.827 824.312C685.796 824.312 678.221 821.253 672.103 815.135C665.985 809.017 662.926 801.442 662.926 792.411C662.926 783.38 665.985 775.805 672.103 769.687C678.221 763.569 685.796 760.51 694.827 760.51C703.567 760.51 710.996 763.569 717.114 769.687C723.232 775.805 726.291 783.38 726.291 792.411C726.291 801.442 723.232 809.017 717.114 815.135C710.996 821.253 703.567 824.312 694.827 824.312ZM719.299 856.213V1097H669.481V856.213H719.299Z" fill="black"/>
<path d="M818.355 891.61C826.803 880.539 838.311 871.217 852.878 863.642C867.444 856.067 883.905 852.28 902.259 852.28C923.235 852.28 942.317 857.524 959.506 868.012C976.986 878.209 990.678 892.63 1000.58 911.275C1010.49 929.92 1015.44 951.333 1015.44 975.514C1015.44 999.695 1010.49 1021.4 1000.58 1040.63C990.678 1059.56 976.986 1074.42 959.506 1085.2C942.317 1095.69 923.235 1100.93 902.259 1100.93C883.905 1100.93 867.59 1097.29 853.315 1090.01C839.039 1082.43 827.386 1073.11 818.355 1062.04V1211.49H768.537V856.213H818.355V891.61ZM964.75 975.514C964.75 958.908 961.254 944.633 954.262 932.688C947.561 920.452 938.53 911.275 927.168 905.157C916.097 898.748 904.152 895.543 891.334 895.543C878.806 895.543 866.862 898.748 855.5 905.157C844.429 911.566 835.398 920.889 828.406 933.125C821.705 945.361 818.355 959.782 818.355 976.388C818.355 992.994 821.705 1007.56 828.406 1020.09C835.398 1032.32 844.429 1041.65 855.5 1048.06C866.862 1054.47 878.806 1057.67 891.334 1057.67C904.152 1057.67 916.097 1054.47 927.168 1048.06C938.53 1041.36 947.561 1031.74 954.262 1019.21C961.254 1006.69 964.75 992.12 964.75 975.514Z" fill="black"/>
<path d="M1098.36 773.62V1097H1048.54V773.62H1098.36Z" fill="black"/>
<path d="M1252.04 1100.93C1229.31 1100.93 1208.77 1095.83 1190.42 1085.64C1172.07 1075.15 1157.64 1060.58 1147.16 1041.94C1136.67 1023 1131.42 1001.15 1131.42 976.388C1131.42 951.916 1136.81 930.212 1147.59 911.275C1158.37 892.338 1173.08 877.772 1191.73 867.575C1210.38 857.378 1231.21 852.28 1254.22 852.28C1277.24 852.28 1298.07 857.378 1316.71 867.575C1335.36 877.772 1350.07 892.338 1360.85 911.275C1371.63 930.212 1377.02 951.916 1377.02 976.388C1377.02 1000.86 1371.48 1022.56 1360.41 1041.5C1349.34 1060.44 1334.19 1075.15 1314.96 1085.64C1296.03 1095.83 1275.05 1100.93 1252.04 1100.93ZM1252.04 1057.67C1264.85 1057.67 1276.8 1054.61 1287.87 1048.49C1299.23 1042.38 1308.41 1033.2 1315.4 1020.96C1322.39 1008.73 1325.89 993.868 1325.89 976.388C1325.89 958.908 1322.54 944.196 1315.84 932.251C1309.14 920.015 1300.25 910.838 1289.18 904.72C1278.11 898.602 1266.17 895.543 1253.35 895.543C1240.53 895.543 1228.58 898.602 1217.51 904.72C1206.73 910.838 1198.14 920.015 1191.73 932.251C1185.32 944.196 1182.12 958.908 1182.12 976.388C1182.12 1002.32 1188.67 1022.42 1201.78 1036.69C1215.18 1050.68 1231.93 1057.67 1252.04 1057.67Z" fill="black"/>
<path d="M1468.22 896.854V1030.14C1468.22 1039.17 1470.26 1045.73 1474.34 1049.8C1478.71 1053.59 1485.99 1055.48 1496.19 1055.48H1526.78V1097H1487.45C1465.01 1097 1447.82 1091.76 1435.88 1081.27C1423.94 1070.78 1417.96 1053.74 1417.96 1030.14V896.854H1389.56V856.213H1417.96V796.344H1468.22V856.213H1526.78V896.854H1468.22Z" fill="black"/>
<path d="M862.431 1152.08V1188.9C862.431 1191.94 863.077 1194.11 864.369 1195.4C865.661 1196.61 867.903 1197.22 871.095 1197.22H878.733V1206H869.385C863.609 1206 859.277 1204.67 856.389 1202.01C853.501 1199.35 852.057 1194.98 852.057 1188.9V1152.08H843.963V1143.53H852.057V1127.8H862.431V1143.53H878.733V1152.08H862.431Z" fill="black"/>
<path d="M944.085 1172.37C944.085 1174.35 943.971 1176.44 943.743 1178.64H893.811C894.191 1184.8 896.281 1189.62 900.081 1193.12C903.957 1196.54 908.631 1198.25 914.103 1198.25C918.587 1198.25 922.311 1197.22 925.275 1195.17C928.315 1193.04 930.443 1190.23 931.659 1186.73H942.831C941.159 1192.74 937.815 1197.64 932.799 1201.44C927.783 1205.16 921.551 1207.03 914.103 1207.03C908.175 1207.03 902.855 1205.7 898.143 1203.04C893.507 1200.38 889.859 1196.61 887.199 1191.75C884.539 1186.81 883.209 1181.11 883.209 1174.65C883.209 1168.19 884.501 1162.53 887.085 1157.66C889.669 1152.8 893.279 1149.08 897.915 1146.49C902.627 1143.83 908.023 1142.5 914.103 1142.5C920.031 1142.5 925.275 1143.79 929.835 1146.38C934.395 1148.96 937.891 1152.53 940.323 1157.09C942.831 1161.58 944.085 1166.67 944.085 1172.37ZM933.369 1170.2C933.369 1166.25 932.495 1162.87 930.747 1160.06C928.999 1157.17 926.605 1155 923.565 1153.56C920.601 1152.04 917.295 1151.28 913.647 1151.28C908.403 1151.28 903.919 1152.95 900.195 1156.3C896.547 1159.64 894.457 1164.28 893.925 1170.2H933.369Z" fill="black"/>
<path d="M949.684 1174.65C949.684 1168.19 950.976 1162.57 953.56 1157.78C956.144 1152.91 959.716 1149.15 964.276 1146.49C968.912 1143.83 974.194 1142.5 980.122 1142.5C987.798 1142.5 994.106 1144.36 999.046 1148.09C1004.06 1151.81 1007.37 1156.98 1008.96 1163.59H997.792C996.728 1159.79 994.638 1156.79 991.522 1154.59C988.482 1152.38 984.682 1151.28 980.122 1151.28C974.194 1151.28 969.406 1153.33 965.758 1157.44C962.11 1161.46 960.286 1167.2 960.286 1174.65C960.286 1182.17 962.11 1187.99 965.758 1192.09C969.406 1196.2 974.194 1198.25 980.122 1198.25C984.682 1198.25 988.482 1197.18 991.522 1195.06C994.562 1192.93 996.652 1189.89 997.792 1185.94H1008.96C1007.29 1192.32 1003.95 1197.45 998.932 1201.33C993.916 1205.13 987.646 1207.03 980.122 1207.03C974.194 1207.03 968.912 1205.7 964.276 1203.04C959.716 1200.38 956.144 1196.61 953.56 1191.75C950.976 1186.89 949.684 1181.19 949.684 1174.65Z" fill="black"/>
<path d="M1049.6 1142.39C1054.31 1142.39 1058.56 1143.41 1062.36 1145.47C1066.16 1147.44 1069.13 1150.44 1071.26 1154.47C1073.46 1158.5 1074.56 1163.4 1074.56 1169.18V1206H1064.3V1170.66C1064.3 1164.43 1062.74 1159.68 1059.63 1156.41C1056.51 1153.07 1052.26 1151.39 1046.86 1151.39C1041.39 1151.39 1037.02 1153.1 1033.75 1156.52C1030.56 1159.94 1028.96 1164.92 1028.96 1171.46V1206H1018.59V1121.64H1028.96V1152.42C1031.01 1149.23 1033.83 1146.76 1037.4 1145.01C1041.05 1143.26 1045.11 1142.39 1049.6 1142.39Z" fill="black"/>
<path d="M1117.73 1142.39C1125.33 1142.39 1131.48 1144.71 1136.2 1149.34C1140.91 1153.9 1143.26 1160.51 1143.26 1169.18V1206H1133V1170.66C1133 1164.43 1131.45 1159.68 1128.33 1156.41C1125.21 1153.07 1120.96 1151.39 1115.56 1151.39C1110.09 1151.39 1105.72 1153.1 1102.45 1156.52C1099.26 1159.94 1097.66 1164.92 1097.66 1171.46V1206H1087.29V1143.53H1097.66V1152.42C1099.72 1149.23 1102.49 1146.76 1105.99 1145.01C1109.56 1143.26 1113.47 1142.39 1117.73 1142.39Z" fill="black"/>
<path d="M1183.24 1207.03C1177.39 1207.03 1172.07 1205.7 1167.28 1203.04C1162.57 1200.38 1158.84 1196.61 1156.11 1191.75C1153.45 1186.81 1152.12 1181.11 1152.12 1174.65C1152.12 1168.27 1153.48 1162.64 1156.22 1157.78C1159.03 1152.84 1162.83 1149.08 1167.62 1146.49C1172.41 1143.83 1177.77 1142.5 1183.69 1142.5C1189.62 1142.5 1194.98 1143.83 1199.77 1146.49C1204.56 1149.08 1208.32 1152.8 1211.05 1157.66C1213.87 1162.53 1215.27 1168.19 1215.27 1174.65C1215.27 1181.11 1213.83 1186.81 1210.94 1191.75C1208.13 1196.61 1204.29 1200.38 1199.43 1203.04C1194.56 1205.7 1189.17 1207.03 1183.24 1207.03ZM1183.24 1197.91C1186.96 1197.91 1190.46 1197.03 1193.73 1195.28C1196.99 1193.54 1199.62 1190.91 1201.59 1187.42C1203.64 1183.92 1204.67 1179.67 1204.67 1174.65C1204.67 1169.63 1203.68 1165.38 1201.71 1161.88C1199.73 1158.39 1197.15 1155.8 1193.95 1154.13C1190.76 1152.38 1187.3 1151.51 1183.58 1151.51C1179.78 1151.51 1176.28 1152.38 1173.09 1154.13C1169.98 1155.8 1167.47 1158.39 1165.57 1161.88C1163.67 1165.38 1162.72 1169.63 1162.72 1174.65C1162.72 1179.74 1163.63 1184.04 1165.45 1187.53C1167.35 1191.03 1169.86 1193.65 1172.98 1195.4C1176.09 1197.07 1179.51 1197.91 1183.24 1197.91Z" fill="black"/>
<path d="M1235.07 1121.64V1206H1224.69V1121.64H1235.07Z" fill="black"/>
<path d="M1275.78 1207.03C1269.92 1207.03 1264.6 1205.7 1259.82 1203.04C1255.1 1200.38 1251.38 1196.61 1248.64 1191.75C1245.98 1186.81 1244.65 1181.11 1244.65 1174.65C1244.65 1168.27 1246.02 1162.64 1248.76 1157.78C1251.57 1152.84 1255.37 1149.08 1260.16 1146.49C1264.95 1143.83 1270.3 1142.5 1276.23 1142.5C1282.16 1142.5 1287.52 1143.83 1292.31 1146.49C1297.09 1149.08 1300.86 1152.8 1303.59 1157.66C1306.4 1162.53 1307.81 1168.19 1307.81 1174.65C1307.81 1181.11 1306.37 1186.81 1303.48 1191.75C1300.67 1196.61 1296.83 1200.38 1291.96 1203.04C1287.1 1205.7 1281.7 1207.03 1275.78 1207.03ZM1275.78 1197.91C1279.5 1197.91 1283 1197.03 1286.26 1195.28C1289.53 1193.54 1292.15 1190.91 1294.13 1187.42C1296.18 1183.92 1297.21 1179.67 1297.21 1174.65C1297.21 1169.63 1296.22 1165.38 1294.24 1161.88C1292.27 1158.39 1289.68 1155.8 1286.49 1154.13C1283.3 1152.38 1279.84 1151.51 1276.12 1151.51C1272.32 1151.51 1268.82 1152.38 1265.63 1154.13C1262.51 1155.8 1260.01 1158.39 1258.11 1161.88C1256.21 1165.38 1255.26 1169.63 1255.26 1174.65C1255.26 1179.74 1256.17 1184.04 1257.99 1187.53C1259.89 1191.03 1262.4 1193.65 1265.52 1195.4C1268.63 1197.07 1272.05 1197.91 1275.78 1197.91Z" fill="black"/>
<path d="M1343 1142.5C1348.39 1142.5 1353.1 1143.68 1357.13 1146.04C1361.24 1148.39 1364.28 1151.36 1366.25 1154.93V1143.53H1376.74V1207.37C1376.74 1213.07 1375.52 1218.12 1373.09 1222.53C1370.66 1227.01 1367.16 1230.51 1362.6 1233.02C1358.12 1235.53 1352.88 1236.78 1346.87 1236.78C1338.66 1236.78 1331.82 1234.84 1326.35 1230.97C1320.88 1227.09 1317.65 1221.81 1316.66 1215.12H1326.92C1328.06 1218.92 1330.42 1221.96 1333.99 1224.24C1337.56 1226.6 1341.86 1227.77 1346.87 1227.77C1352.57 1227.77 1357.21 1225.99 1360.78 1222.42C1364.43 1218.84 1366.25 1213.83 1366.25 1207.37V1194.26C1364.2 1197.91 1361.16 1200.95 1357.13 1203.38C1353.1 1205.81 1348.39 1207.03 1343 1207.03C1337.45 1207.03 1332.39 1205.66 1327.83 1202.92C1323.35 1200.19 1319.82 1196.35 1317.23 1191.41C1314.65 1186.47 1313.36 1180.84 1313.36 1174.54C1313.36 1168.15 1314.65 1162.57 1317.23 1157.78C1319.82 1152.91 1323.35 1149.15 1327.83 1146.49C1332.39 1143.83 1337.45 1142.5 1343 1142.5ZM1366.25 1174.65C1366.25 1169.94 1365.3 1165.83 1363.4 1162.34C1361.5 1158.84 1358.92 1156.18 1355.65 1154.36C1352.46 1152.46 1348.92 1151.51 1345.05 1151.51C1341.17 1151.51 1337.64 1152.42 1334.45 1154.24C1331.25 1156.07 1328.71 1158.73 1326.81 1162.22C1324.91 1165.72 1323.96 1169.82 1323.96 1174.54C1323.96 1179.32 1324.91 1183.5 1326.81 1187.08C1328.71 1190.57 1331.25 1193.27 1334.45 1195.17C1337.64 1196.99 1341.17 1197.91 1345.05 1197.91C1348.92 1197.91 1352.46 1196.99 1355.65 1195.17C1358.92 1193.27 1361.5 1190.57 1363.4 1187.08C1365.3 1183.5 1366.25 1179.36 1366.25 1174.65Z" fill="black"/>
<path d="M1395.41 1133.38C1393.44 1133.38 1391.76 1132.7 1390.4 1131.33C1389.03 1129.96 1388.34 1128.29 1388.34 1126.31C1388.34 1124.34 1389.03 1122.67 1390.4 1121.3C1391.76 1119.93 1393.44 1119.25 1395.41 1119.25C1397.31 1119.25 1398.91 1119.93 1400.2 1121.3C1401.57 1122.67 1402.25 1124.34 1402.25 1126.31C1402.25 1128.29 1401.57 1129.96 1400.2 1131.33C1398.91 1132.7 1397.31 1133.38 1395.41 1133.38ZM1400.43 1143.53V1206H1390.05V1143.53H1400.43Z" fill="black"/>
<path d="M1470.89 1172.37C1470.89 1174.35 1470.78 1176.44 1470.55 1178.64H1420.62C1421 1184.8 1423.09 1189.62 1426.89 1193.12C1430.76 1196.54 1435.44 1198.25 1440.91 1198.25C1445.39 1198.25 1449.12 1197.22 1452.08 1195.17C1455.12 1193.04 1457.25 1190.23 1458.46 1186.73H1469.64C1467.96 1192.74 1464.62 1197.64 1459.6 1201.44C1454.59 1205.16 1448.36 1207.03 1440.91 1207.03C1434.98 1207.03 1429.66 1205.7 1424.95 1203.04C1420.31 1200.38 1416.66 1196.61 1414 1191.75C1411.34 1186.81 1410.01 1181.11 1410.01 1174.65C1410.01 1168.19 1411.31 1162.53 1413.89 1157.66C1416.47 1152.8 1420.08 1149.08 1424.72 1146.49C1429.43 1143.83 1434.83 1142.5 1440.91 1142.5C1446.84 1142.5 1452.08 1143.79 1456.64 1146.38C1461.2 1148.96 1464.7 1152.53 1467.13 1157.09C1469.64 1161.58 1470.89 1166.67 1470.89 1172.37ZM1460.17 1170.2C1460.17 1166.25 1459.3 1162.87 1457.55 1160.06C1455.8 1157.17 1453.41 1155 1450.37 1153.56C1447.41 1152.04 1444.1 1151.28 1440.45 1151.28C1435.21 1151.28 1430.72 1152.95 1427 1156.3C1423.35 1159.64 1421.26 1164.28 1420.73 1170.2H1460.17Z" fill="black"/>
<path d="M1502.48 1207.03C1497.69 1207.03 1493.4 1206.23 1489.6 1204.63C1485.8 1202.96 1482.8 1200.68 1480.59 1197.79C1478.39 1194.83 1477.17 1191.45 1476.95 1187.65H1487.66C1487.97 1190.76 1489.41 1193.31 1491.99 1195.28C1494.65 1197.26 1498.11 1198.25 1502.37 1198.25C1506.32 1198.25 1509.44 1197.37 1511.72 1195.63C1514 1193.88 1515.14 1191.67 1515.14 1189.01C1515.14 1186.28 1513.92 1184.26 1511.49 1182.97C1509.06 1181.6 1505.29 1180.27 1500.2 1178.98C1495.57 1177.77 1491.77 1176.55 1488.8 1175.33C1485.91 1174.04 1483.41 1172.18 1481.28 1169.75C1479.23 1167.24 1478.2 1163.97 1478.2 1159.94C1478.2 1156.75 1479.15 1153.83 1481.05 1151.17C1482.95 1148.51 1485.65 1146.42 1489.14 1144.9C1492.64 1143.3 1496.63 1142.5 1501.11 1142.5C1508.03 1142.5 1513.62 1144.25 1517.87 1147.75C1522.13 1151.24 1524.41 1156.03 1524.71 1162.11H1514.34C1514.11 1158.84 1512.78 1156.22 1510.35 1154.24C1507.99 1152.27 1504.8 1151.28 1500.77 1151.28C1497.05 1151.28 1494.08 1152.08 1491.88 1153.67C1489.68 1155.27 1488.57 1157.36 1488.57 1159.94C1488.57 1162 1489.22 1163.71 1490.51 1165.07C1491.88 1166.37 1493.55 1167.43 1495.53 1168.27C1497.58 1169.03 1500.39 1169.9 1503.96 1170.89C1508.45 1172.1 1512.1 1173.32 1514.91 1174.54C1517.72 1175.68 1520.11 1177.42 1522.09 1179.78C1524.14 1182.14 1525.21 1185.21 1525.28 1189.01C1525.28 1192.43 1524.33 1195.51 1522.43 1198.25C1520.53 1200.98 1517.83 1203.15 1514.34 1204.75C1510.92 1206.27 1506.97 1207.03 1502.48 1207.03Z" fill="black"/>
<path d="M671.733 180.56C690.978 147.227 739.091 147.227 758.336 180.56L991.297 584.06C1010.54 617.394 986.485 659.06 947.995 659.06H482.074C443.584 659.06 419.527 617.394 438.772 584.06L671.733 180.56Z" fill="#6500AC"/>
<path d="M750.806 116.785C729.393 79.4058 742.336 31.7452 779.716 10.3321C817.095 -11.081 864.756 1.86213 886.169 39.2414L1086.49 388.928C1107.9 426.307 1094.96 473.968 1057.58 495.381C1020.2 516.794 972.541 503.851 951.128 466.471L750.806 116.785Z" fill="#280045"/>
<path d="M1040.81 619.785C1019.39 582.406 1032.34 534.745 1069.72 513.332C1107.09 491.919 1154.76 504.862 1176.17 542.241C1197.58 579.621 1184.64 627.281 1147.26 648.694C1109.88 670.108 1062.22 657.164 1040.81 619.785Z" fill="#280045"/>
</svg>
