<svg width="2732" height="660" viewBox="0 0 2732 660" fill="none" xmlns="http://www.w3.org/2000/svg">
<path d="M944.84 402.39L1031.42 153.195H1098.57L982.025 459H906.545L790.55 153.195H858.26L944.84 402.39Z" fill="black"/>
<path d="M1406.14 298.605C1406.14 310.075 1405.4 320.435 1403.92 329.685H1170.27C1172.12 354.105 1181.18 373.715 1197.46 388.515C1213.74 403.315 1233.72 410.715 1257.4 410.715C1291.44 410.715 1315.49 396.47 1329.55 367.98H1397.82C1388.57 396.1 1371.73 419.225 1347.31 437.355C1323.26 455.115 1293.29 463.995 1257.4 463.995C1228.17 463.995 1201.9 457.52 1178.59 444.57C1155.65 431.25 1137.52 412.75 1124.2 389.07C1111.25 365.02 1104.78 337.27 1104.78 305.82C1104.78 274.37 1111.07 246.805 1123.65 223.125C1136.6 199.075 1154.54 180.575 1177.48 167.625C1200.79 154.675 1227.43 148.2 1257.4 148.2C1286.26 148.2 1311.98 154.49 1334.55 167.07C1357.12 179.65 1374.69 197.41 1387.27 220.35C1399.85 242.92 1406.14 269.005 1406.14 298.605ZM1340.1 278.625C1339.73 255.315 1331.4 236.63 1315.12 222.57C1298.84 208.51 1278.68 201.48 1254.63 201.48C1232.8 201.48 1214.11 208.51 1198.57 222.57C1183.03 236.26 1173.78 254.945 1170.82 278.625H1340.1Z" fill="black"/>
<path d="M1511.14 197.595C1520.39 182.055 1532.6 170.03 1547.77 161.52C1563.31 152.64 1581.62 148.2 1602.71 148.2V213.69H1586.62C1561.83 213.69 1542.96 219.98 1530.01 232.56C1517.43 245.14 1511.14 266.97 1511.14 298.05V459H1447.87V153.195H1511.14V197.595Z" fill="black"/>
<path d="M1672.53 112.68C1661.06 112.68 1651.44 108.795 1643.67 101.025C1635.9 93.255 1632.01 83.635 1632.01 72.165C1632.01 60.695 1635.9 51.075 1643.67 43.305C1651.44 35.535 1661.06 31.65 1672.53 31.65C1683.63 31.65 1693.06 35.535 1700.83 43.305C1708.6 51.075 1712.49 60.695 1712.49 72.165C1712.49 83.635 1708.6 93.255 1700.83 101.025C1693.06 108.795 1683.63 112.68 1672.53 112.68ZM1703.61 153.195V459H1640.34V153.195H1703.61Z" fill="black"/>
<path d="M1829.41 198.15C1840.14 184.09 1854.76 172.25 1873.26 162.63C1891.76 153.01 1912.66 148.2 1935.97 148.2C1962.61 148.2 1986.85 154.86 2008.68 168.18C2030.88 181.13 2048.27 199.445 2060.85 223.125C2073.43 246.805 2079.72 274 2079.72 304.71C2079.72 335.42 2073.43 362.985 2060.85 387.405C2048.27 411.455 2030.88 430.325 2008.68 444.015C1986.85 457.335 1962.61 463.995 1935.97 463.995C1912.66 463.995 1891.94 459.37 1873.81 450.12C1855.68 440.5 1840.88 428.66 1829.41 414.6V604.41H1766.14V153.195H1829.41V198.15ZM2015.34 304.71C2015.34 283.62 2010.9 265.49 2002.02 250.32C1993.51 234.78 1982.04 223.125 1967.61 215.355C1953.55 207.215 1938.38 203.145 1922.1 203.145C1906.19 203.145 1891.02 207.215 1876.59 215.355C1862.53 223.495 1851.06 235.335 1842.18 250.875C1833.67 266.415 1829.41 284.73 1829.41 305.82C1829.41 326.91 1833.67 345.41 1842.18 361.32C1851.06 376.86 1862.53 388.7 1876.59 396.84C1891.02 404.98 1906.19 409.05 1922.1 409.05C1938.38 409.05 1953.55 404.98 1967.61 396.84C1982.04 388.33 1993.51 376.12 2002.02 360.21C2010.9 344.3 2015.34 325.8 2015.34 304.71Z" fill="black"/>
<path d="M2185.02 48.3V459H2121.75V48.3H2185.02Z" fill="black"/>
<path d="M2380.2 463.995C2351.34 463.995 2325.25 457.52 2301.94 444.57C2278.63 431.25 2260.32 412.75 2247 389.07C2233.68 365.02 2227.02 337.27 2227.02 305.82C2227.02 274.74 2233.86 247.175 2247.55 223.125C2261.24 199.075 2279.93 180.575 2303.61 167.625C2327.29 154.675 2353.74 148.2 2382.97 148.2C2412.2 148.2 2438.66 154.675 2462.34 167.625C2486.02 180.575 2504.7 199.075 2518.39 223.125C2532.08 247.175 2538.93 274.74 2538.93 305.82C2538.93 336.9 2531.9 364.465 2517.84 388.515C2503.78 412.565 2484.54 431.25 2460.12 444.57C2436.07 457.52 2409.43 463.995 2380.2 463.995ZM2380.2 409.05C2396.48 409.05 2411.65 405.165 2425.71 397.395C2440.14 389.625 2451.79 377.97 2460.67 362.43C2469.55 346.89 2473.99 328.02 2473.99 305.82C2473.99 283.62 2469.74 264.935 2461.23 249.765C2452.72 234.225 2441.43 222.57 2427.37 214.8C2413.31 207.03 2398.14 203.145 2381.86 203.145C2365.58 203.145 2350.41 207.03 2336.35 214.8C2322.66 222.57 2311.75 234.225 2303.61 249.765C2295.47 264.935 2291.4 283.62 2291.4 305.82C2291.4 338.75 2299.72 364.28 2316.37 382.41C2333.39 400.17 2354.67 409.05 2380.2 409.05Z" fill="black"/>
<path d="M2654.75 204.81V374.085C2654.75 385.555 2657.34 393.88 2662.52 399.06C2668.07 403.87 2677.32 406.275 2690.27 406.275H2729.12V459H2679.17C2650.68 459 2628.85 452.34 2613.68 439.02C2598.51 425.7 2590.93 404.055 2590.93 374.085V204.81H2554.85V153.195H2590.93V77.16H2654.75V153.195H2729.12V204.81H2654.75Z" fill="black"/>
<path d="M1888.26 550.415V597.25C1888.26 601.117 1889.08 603.872 1890.72 605.515C1892.37 607.062 1895.22 607.835 1899.28 607.835H1908.99V619H1897.1C1889.76 619 1884.25 617.308 1880.57 613.925C1876.9 610.542 1875.06 604.983 1875.06 597.25V550.415H1864.77V539.54H1875.06V519.53H1888.26V539.54H1908.99V550.415H1888.26Z" fill="black"/>
<path d="M1992.12 576.225C1992.12 578.738 1991.97 581.397 1991.68 584.2H1928.17C1928.66 592.03 1931.31 598.168 1936.15 602.615C1941.08 606.965 1947.02 609.14 1953.98 609.14C1959.69 609.14 1964.42 607.835 1968.19 605.225C1972.06 602.518 1974.77 598.942 1976.31 594.495H1990.52C1988.4 602.132 1984.14 608.367 1977.76 613.2C1971.38 617.937 1963.46 620.305 1953.98 620.305C1946.44 620.305 1939.68 618.613 1933.68 615.23C1927.79 611.847 1923.15 607.062 1919.76 600.875C1916.38 594.592 1914.69 587.342 1914.69 579.125C1914.69 570.908 1916.33 563.707 1919.62 557.52C1922.9 551.333 1927.5 546.597 1933.39 543.31C1939.39 539.927 1946.25 538.235 1953.98 538.235C1961.52 538.235 1968.19 539.878 1973.99 543.165C1979.79 546.452 1984.24 550.995 1987.33 556.795C1990.52 562.498 1992.12 568.975 1992.12 576.225ZM1978.49 573.47C1978.49 568.443 1977.38 564.142 1975.15 560.565C1972.93 556.892 1969.88 554.137 1966.02 552.3C1962.25 550.367 1958.04 549.4 1953.4 549.4C1946.73 549.4 1941.03 551.527 1936.29 555.78C1931.65 560.033 1928.99 565.93 1928.32 573.47H1978.49Z" fill="black"/>
<path d="M1999.24 579.125C1999.24 570.908 2000.88 563.755 2004.17 557.665C2007.46 551.478 2012 546.693 2017.8 543.31C2023.7 539.927 2030.41 538.235 2037.95 538.235C2047.72 538.235 2055.74 540.603 2062.02 545.34C2068.4 550.077 2072.61 556.65 2074.64 565.06H2060.43C2059.08 560.227 2056.42 556.408 2052.45 553.605C2048.59 550.802 2043.75 549.4 2037.95 549.4C2030.41 549.4 2024.32 552.01 2019.68 557.23C2015.04 562.353 2012.72 569.652 2012.72 579.125C2012.72 588.695 2015.04 596.09 2019.68 601.31C2024.32 606.53 2030.41 609.14 2037.95 609.14C2043.75 609.14 2048.59 607.787 2052.45 605.08C2056.32 602.373 2058.98 598.507 2060.43 593.48H2074.64C2072.51 601.6 2068.26 608.125 2061.88 613.055C2055.5 617.888 2047.52 620.305 2037.95 620.305C2030.41 620.305 2023.7 618.613 2017.8 615.23C2012 611.847 2007.46 607.062 2004.17 600.875C2000.88 594.688 1999.24 587.438 1999.24 579.125Z" fill="black"/>
<path d="M2126.32 538.09C2132.31 538.09 2137.73 539.395 2142.56 542.005C2147.39 544.518 2151.16 548.337 2153.87 553.46C2156.67 558.583 2158.08 564.818 2158.08 572.165V619H2145.03V574.05C2145.03 566.123 2143.04 560.082 2139.08 555.925C2135.12 551.672 2129.7 549.545 2122.84 549.545C2115.88 549.545 2110.32 551.72 2106.17 556.07C2102.11 560.42 2100.08 566.752 2100.08 575.065V619H2086.88V511.7H2100.08V550.85C2102.69 546.79 2106.26 543.648 2110.81 541.425C2115.45 539.202 2120.62 538.09 2126.32 538.09Z" fill="black"/>
<path d="M2212.98 538.09C2222.65 538.09 2230.48 541.038 2236.47 546.935C2242.46 552.735 2245.46 561.145 2245.46 572.165V619H2232.41V574.05C2232.41 566.123 2230.43 560.082 2226.46 555.925C2222.5 551.672 2217.09 549.545 2210.22 549.545C2203.26 549.545 2197.71 551.72 2193.55 556.07C2189.49 560.42 2187.46 566.752 2187.46 575.065V619H2174.26V539.54H2187.46V550.85C2190.07 546.79 2193.6 543.648 2198.04 541.425C2202.59 539.202 2207.57 538.09 2212.98 538.09Z" fill="black"/>
<path d="M2296.3 620.305C2288.86 620.305 2282.09 618.613 2276 615.23C2270.01 611.847 2265.27 607.062 2261.79 600.875C2258.41 594.592 2256.72 587.342 2256.72 579.125C2256.72 571.005 2258.46 563.852 2261.94 557.665C2265.52 551.382 2270.35 546.597 2276.44 543.31C2282.53 539.927 2289.34 538.235 2296.88 538.235C2304.42 538.235 2311.24 539.927 2317.33 543.31C2323.42 546.597 2328.2 551.333 2331.68 557.52C2335.26 563.707 2337.05 570.908 2337.05 579.125C2337.05 587.342 2335.21 594.592 2331.54 600.875C2327.96 607.062 2323.08 611.847 2316.89 615.23C2310.71 618.613 2303.84 620.305 2296.3 620.305ZM2296.3 608.705C2301.04 608.705 2305.49 607.593 2309.64 605.37C2313.8 603.147 2317.14 599.812 2319.65 595.365C2322.26 590.918 2323.56 585.505 2323.56 579.125C2323.56 572.745 2322.31 567.332 2319.79 562.885C2317.28 558.438 2313.99 555.152 2309.93 553.025C2305.87 550.802 2301.48 549.69 2296.74 549.69C2291.91 549.69 2287.46 550.802 2283.4 553.025C2279.44 555.152 2276.25 558.438 2273.83 562.885C2271.41 567.332 2270.2 572.745 2270.2 579.125C2270.2 585.602 2271.36 591.063 2273.68 595.51C2276.1 599.957 2279.29 603.292 2283.25 605.515C2287.22 607.642 2291.57 608.705 2296.3 608.705Z" fill="black"/>
<path d="M2362.23 511.7V619H2349.03V511.7H2362.23Z" fill="black"/>
<path d="M2414.01 620.305C2406.56 620.305 2399.8 618.613 2393.71 615.23C2387.71 611.847 2382.98 607.062 2379.5 600.875C2376.11 594.592 2374.42 587.342 2374.42 579.125C2374.42 571.005 2376.16 563.852 2379.64 557.665C2383.22 551.382 2388.05 546.597 2394.14 543.31C2400.23 539.927 2407.05 538.235 2414.59 538.235C2422.13 538.235 2428.94 539.927 2435.03 543.31C2441.12 546.597 2445.91 551.333 2449.39 557.52C2452.96 563.707 2454.75 570.908 2454.75 579.125C2454.75 587.342 2452.91 594.592 2449.24 600.875C2445.66 607.062 2440.78 611.847 2434.6 615.23C2428.41 618.613 2421.55 620.305 2414.01 620.305ZM2414.01 608.705C2418.74 608.705 2423.19 607.593 2427.35 605.37C2431.5 603.147 2434.84 599.812 2437.35 595.365C2439.96 590.918 2441.27 585.505 2441.27 579.125C2441.27 572.745 2440.01 567.332 2437.5 562.885C2434.98 558.438 2431.7 555.152 2427.64 553.025C2423.58 550.802 2419.18 549.69 2414.44 549.69C2409.61 549.69 2405.16 550.802 2401.1 553.025C2397.14 555.152 2393.95 558.438 2391.53 562.885C2389.11 567.332 2387.91 572.745 2387.91 579.125C2387.91 585.602 2389.07 591.063 2391.39 595.51C2393.8 599.957 2396.99 603.292 2400.96 605.515C2404.92 607.642 2409.27 608.705 2414.01 608.705Z" fill="black"/>
<path d="M2499.51 538.235C2506.37 538.235 2512.36 539.733 2517.49 542.73C2522.71 545.727 2526.57 549.497 2529.09 554.04V539.54H2542.43V620.74C2542.43 627.99 2540.88 634.418 2537.79 640.025C2534.69 645.728 2530.25 650.175 2524.45 653.365C2518.74 656.555 2512.07 658.15 2504.44 658.15C2494 658.15 2485.3 655.685 2478.34 650.755C2471.38 645.825 2467.27 639.107 2466.01 630.6H2479.06C2480.51 635.433 2483.51 639.3 2488.05 642.2C2492.59 645.197 2498.06 646.695 2504.44 646.695C2511.69 646.695 2517.58 644.423 2522.13 639.88C2526.77 635.337 2529.09 628.957 2529.09 620.74V604.065C2526.48 608.705 2522.61 612.572 2517.49 615.665C2512.36 618.758 2506.37 620.305 2499.51 620.305C2492.45 620.305 2486.02 618.565 2480.22 615.085C2474.52 611.605 2470.02 606.723 2466.74 600.44C2463.45 594.157 2461.81 587.003 2461.81 578.98C2461.81 570.86 2463.45 563.755 2466.74 557.665C2470.02 551.478 2474.52 546.693 2480.22 543.31C2486.02 539.927 2492.45 538.235 2499.51 538.235ZM2529.09 579.125C2529.09 573.132 2527.88 567.912 2525.46 563.465C2523.04 559.018 2519.76 555.635 2515.6 553.315C2511.54 550.898 2507.05 549.69 2502.12 549.69C2497.19 549.69 2492.69 550.85 2488.63 553.17C2484.57 555.49 2481.33 558.873 2478.92 563.32C2476.5 567.767 2475.29 572.987 2475.29 578.98C2475.29 585.07 2476.5 590.387 2478.92 594.93C2481.33 599.377 2484.57 602.808 2488.63 605.225C2492.69 607.545 2497.19 608.705 2502.12 608.705C2507.05 608.705 2511.54 607.545 2515.6 605.225C2519.76 602.808 2523.04 599.377 2525.46 594.93C2527.88 590.387 2529.09 585.118 2529.09 579.125Z" fill="black"/>
<path d="M2566.17 526.635C2563.66 526.635 2561.53 525.765 2559.79 524.025C2558.05 522.285 2557.18 520.158 2557.18 517.645C2557.18 515.132 2558.05 513.005 2559.79 511.265C2561.53 509.525 2563.66 508.655 2566.17 508.655C2568.59 508.655 2570.62 509.525 2572.26 511.265C2574 513.005 2574.87 515.132 2574.87 517.645C2574.87 520.158 2574 522.285 2572.26 524.025C2570.62 525.765 2568.59 526.635 2566.17 526.635ZM2572.55 539.54V619H2559.36V539.54H2572.55Z" fill="black"/>
<path d="M2662.18 576.225C2662.18 578.738 2662.03 581.397 2661.74 584.2H2598.23C2598.72 592.03 2601.37 598.168 2606.21 602.615C2611.14 606.965 2617.08 609.14 2624.04 609.14C2629.75 609.14 2634.48 607.835 2638.25 605.225C2642.12 602.518 2644.83 598.942 2646.37 594.495H2660.58C2658.46 602.132 2654.2 608.367 2647.82 613.2C2641.44 617.937 2633.52 620.305 2624.04 620.305C2616.5 620.305 2609.74 618.613 2603.74 615.23C2597.85 611.847 2593.21 607.062 2589.82 600.875C2586.44 594.592 2584.75 587.342 2584.75 579.125C2584.75 570.908 2586.39 563.707 2589.68 557.52C2592.96 551.333 2597.56 546.597 2603.45 543.31C2609.45 539.927 2616.31 538.235 2624.04 538.235C2631.58 538.235 2638.25 539.878 2644.05 543.165C2649.85 546.452 2654.3 550.995 2657.39 556.795C2660.58 562.498 2662.18 568.975 2662.18 576.225ZM2648.55 573.47C2648.55 568.443 2647.44 564.142 2645.21 560.565C2642.99 556.892 2639.94 554.137 2636.08 552.3C2632.31 550.367 2628.1 549.4 2623.46 549.4C2616.79 549.4 2611.09 551.527 2606.35 555.78C2601.71 560.033 2599.05 565.93 2598.38 573.47H2648.55Z" fill="black"/>
<path d="M2702.36 620.305C2696.27 620.305 2690.81 619.29 2685.97 617.26C2681.14 615.133 2677.32 612.233 2674.52 608.56C2671.72 604.79 2670.17 600.488 2669.88 595.655H2683.51C2683.9 599.618 2685.73 602.857 2689.02 605.37C2692.4 607.883 2696.8 609.14 2702.21 609.14C2707.24 609.14 2711.2 608.028 2714.1 605.805C2717 603.582 2718.45 600.778 2718.45 597.395C2718.45 593.915 2716.91 591.353 2713.81 589.71C2710.72 587.97 2705.94 586.278 2699.46 584.635C2693.56 583.088 2688.73 581.542 2684.96 579.995C2681.29 578.352 2678.1 575.983 2675.39 572.89C2672.78 569.7 2671.47 565.543 2671.47 560.42C2671.47 556.36 2672.68 552.638 2675.1 549.255C2677.52 545.872 2680.95 543.213 2685.39 541.28C2689.84 539.25 2694.92 538.235 2700.62 538.235C2709.42 538.235 2716.52 540.458 2721.93 544.905C2727.35 549.352 2730.25 555.442 2730.63 563.175H2717.44C2717.15 559.018 2715.46 555.683 2712.36 553.17C2709.37 550.657 2705.31 549.4 2700.18 549.4C2695.45 549.4 2691.68 550.415 2688.87 552.445C2686.07 554.475 2684.67 557.133 2684.67 560.42C2684.67 563.03 2685.49 565.205 2687.13 566.945C2688.87 568.588 2691 569.942 2693.51 571.005C2696.12 571.972 2699.7 573.083 2704.24 574.34C2709.95 575.887 2714.59 577.433 2718.16 578.98C2721.74 580.43 2724.79 582.653 2727.3 585.65C2729.91 588.647 2731.26 592.562 2731.36 597.395C2731.36 601.745 2730.15 605.66 2727.73 609.14C2725.32 612.62 2721.89 615.375 2717.44 617.405C2713.09 619.338 2708.06 620.305 2702.36 620.305Z" fill="black"/>
<path d="M239.734 180.56C258.979 147.227 307.092 147.227 326.337 180.56L559.298 584.06C578.543 617.394 554.486 659.06 515.996 659.06H50.0746C11.5846 659.06 -12.4717 617.394 6.77333 584.06L239.734 180.56Z" fill="#6500AC"/>
<path d="M318.807 116.785C297.394 79.4058 310.337 31.7452 347.717 10.3321C385.096 -11.081 432.757 1.86213 454.17 39.2414L654.491 388.928C675.904 426.307 662.961 473.968 625.582 495.381C588.202 516.794 540.542 503.851 519.129 466.471L318.807 116.785Z" fill="#280045"/>
<path d="M608.807 619.785C587.394 582.406 600.337 534.745 637.717 513.332C675.096 491.919 722.757 504.862 744.17 542.241C765.583 579.621 752.64 627.281 715.26 648.694C677.881 670.108 630.22 657.164 608.807 619.785Z" fill="#280045"/>
</svg>
