<svg width="1619" height="902" viewBox="0 0 1619 902" fill="none" xmlns="http://www.w3.org/2000/svg">
<path d="M32.6099 4.37637C35.2277 -0.125454 41.7723 -0.125452 44.3901 4.37637L76.0787 58.8709C78.6965 63.3727 75.4242 69 70.1886 69H6.81141C1.57579 69 -1.69646 63.3727 0.921344 58.8709L32.6099 4.37637Z" fill="#6500AC"/>
<path d="M32.6099 73.426C35.2277 68.858 41.7723 68.858 44.3901 73.426L76.0787 128.722C78.6965 133.29 75.4242 139 70.1886 139H6.81141C1.57579 139 -1.69646 133.29 0.921344 128.722L32.6099 73.426Z" fill="#6500AC"/>
<path d="M32.6099 143.376C35.2277 138.875 41.7723 138.875 44.3901 143.376L76.0787 197.871C78.6965 202.373 75.4242 208 70.1886 208H6.81141C1.57579 208 -1.69646 202.373 0.921344 197.871L32.6099 143.376Z" fill="#6500AC"/>
<path d="M32.6099 212.376C35.2277 207.875 41.7723 207.875 44.3901 212.376L76.0787 266.871C78.6965 271.373 75.4242 277 70.1886 277H6.81141C1.57579 277 -1.69646 271.373 0.921344 266.871L32.6099 212.376Z" fill="#6500AC"/>
<path d="M32.6099 281.426C35.2277 276.858 41.7723 276.858 44.3901 281.426L76.0787 336.722C78.6965 341.29 75.4242 347 70.1886 347H6.81141C1.57579 347 -1.69646 341.29 0.921344 336.722L32.6099 281.426Z" fill="#6500AC"/>
<path d="M32.6099 351.376C35.2277 346.875 41.7723 346.875 44.3901 351.376L76.0787 405.871C78.6965 410.373 75.4242 416 70.1886 416H6.81141C1.57579 416 -1.69646 410.373 0.921344 405.871L32.6099 351.376Z" fill="#6500AC"/>
<path d="M32.6099 420.376C35.2277 415.875 41.7723 415.875 44.3901 420.376L76.0787 474.871C78.6965 479.373 75.4242 485 70.1886 485H6.81141C1.57579 485 -1.69646 479.373 0.921344 474.871L32.6099 420.376Z" fill="#6500AC"/>
<path d="M32.6099 489.376C35.2277 484.875 41.7723 484.875 44.3901 489.376L76.0787 543.871C78.6965 548.373 75.4242 554 70.1886 554H6.81141C1.57579 554 -1.69646 548.373 0.921344 543.871L32.6099 489.376Z" fill="#6500AC"/>
<path d="M32.6099 558.426C35.2277 553.858 41.7723 553.858 44.3901 558.426L76.0787 613.722C78.6965 618.29 75.4242 624 70.1886 624H6.81141C1.57579 624 -1.69646 618.29 0.921344 613.722L32.6099 558.426Z" fill="#6500AC"/>
<path d="M32.6099 628.376C35.2277 623.875 41.7723 623.875 44.3901 628.376L76.0787 682.871C78.6965 687.373 75.4242 693 70.1886 693H6.81141C1.57579 693 -1.69646 687.373 0.921344 682.871L32.6099 628.376Z" fill="#6500AC"/>
<path d="M32.6099 697.376C35.2277 692.875 41.7723 692.875 44.3901 697.376L76.0787 751.871C78.6965 756.373 75.4242 762 70.1886 762H6.81141C1.57579 762 -1.69646 756.373 0.921344 751.871L32.6099 697.376Z" fill="#6500AC"/>
<path d="M32.6099 766.426C35.2277 761.858 41.7723 761.858 44.3901 766.426L76.0787 821.722C78.6965 826.29 75.4242 832 70.1886 832H6.81141C1.57579 832 -1.69646 826.29 0.921344 821.722L32.6099 766.426Z" fill="#6500AC"/>
<path d="M32.6099 836.376C35.2277 831.875 41.7723 831.875 44.3901 836.376L76.0787 890.871C78.6965 895.373 75.4242 901 70.1886 901H6.81141C1.57579 901 -1.69646 895.373 0.921344 890.871L32.6099 836.376Z" fill="#6500AC"/>
<path d="M458.61 4.37637C461.228 -0.125454 467.772 -0.125452 470.39 4.37637L502.079 58.8709C504.696 63.3727 501.424 69 496.189 69H432.811C427.576 69 424.304 63.3727 426.921 58.8709L458.61 4.37637Z" fill="#6500AC"/>
<path d="M458.61 73.426C461.228 68.858 467.772 68.858 470.39 73.426L502.079 128.722C504.696 133.29 501.424 139 496.189 139H432.811C427.576 139 424.304 133.29 426.921 128.722L458.61 73.426Z" fill="#6500AC"/>
<path d="M458.61 143.376C461.228 138.875 467.772 138.875 470.39 143.376L502.079 197.871C504.696 202.373 501.424 208 496.189 208H432.811C427.576 208 424.304 202.373 426.921 197.871L458.61 143.376Z" fill="#6500AC"/>
<path d="M458.61 212.376C461.228 207.875 467.772 207.875 470.39 212.376L502.079 266.871C504.696 271.373 501.424 277 496.189 277H432.811C427.576 277 424.304 271.373 426.921 266.871L458.61 212.376Z" fill="#6500AC"/>
<path d="M458.61 281.426C461.228 276.858 467.772 276.858 470.39 281.426L502.079 336.722C504.696 341.29 501.424 347 496.189 347H432.811C427.576 347 424.304 341.29 426.921 336.722L458.61 281.426Z" fill="#6500AC"/>
<path d="M458.61 351.376C461.228 346.875 467.772 346.875 470.39 351.376L502.079 405.871C504.696 410.373 501.424 416 496.189 416H432.811C427.576 416 424.304 410.373 426.921 405.871L458.61 351.376Z" fill="#6500AC"/>
<path d="M458.61 420.376C461.228 415.875 467.772 415.875 470.39 420.376L502.079 474.871C504.696 479.373 501.424 485 496.189 485H432.811C427.576 485 424.304 479.373 426.921 474.871L458.61 420.376Z" fill="#6500AC"/>
<path d="M458.61 489.376C461.228 484.875 467.772 484.875 470.39 489.376L502.079 543.871C504.696 548.373 501.424 554 496.189 554H432.811C427.576 554 424.304 548.373 426.921 543.871L458.61 489.376Z" fill="#6500AC"/>
<path d="M458.61 558.426C461.228 553.858 467.772 553.858 470.39 558.426L502.079 613.722C504.696 618.29 501.424 624 496.189 624H432.811C427.576 624 424.304 618.29 426.921 613.722L458.61 558.426Z" fill="#6500AC"/>
<path d="M458.61 628.376C461.228 623.875 467.772 623.875 470.39 628.376L502.079 682.871C504.696 687.373 501.424 693 496.189 693H432.811C427.576 693 424.304 687.373 426.921 682.871L458.61 628.376Z" fill="#6500AC"/>
<path d="M458.61 697.376C461.228 692.875 467.772 692.875 470.39 697.376L502.079 751.871C504.696 756.373 501.424 762 496.189 762H432.811C427.576 762 424.304 756.373 426.921 751.871L458.61 697.376Z" fill="#6500AC"/>
<path d="M458.61 766.426C461.228 761.858 467.772 761.858 470.39 766.426L502.079 821.722C504.696 826.29 501.424 832 496.189 832H432.811C427.576 832 424.304 826.29 426.921 821.722L458.61 766.426Z" fill="#6500AC"/>
<path d="M458.61 836.376C461.228 831.875 467.772 831.875 470.39 836.376L502.079 890.871C504.696 895.373 501.424 901 496.189 901H432.811C427.576 901 424.304 895.373 426.921 890.871L458.61 836.376Z" fill="#6500AC"/>
<path d="M245.033 4.37637C247.685 -0.125454 254.315 -0.125452 256.967 4.37637L289.067 58.8709C291.718 63.3727 288.404 69 283.1 69H218.9C213.596 69 210.281 63.3727 212.933 58.8709L245.033 4.37637Z" fill="#6500AC"/>
<path d="M245.033 73.426C247.685 68.858 254.315 68.858 256.967 73.426L289.067 128.722C291.718 133.29 288.404 139 283.1 139H218.9C213.596 139 210.281 133.29 212.933 128.722L245.033 73.426Z" fill="#6500AC"/>
<path d="M245.033 143.376C247.685 138.875 254.315 138.875 256.967 143.376L289.067 197.871C291.718 202.373 288.404 208 283.1 208H218.9C213.596 208 210.281 202.373 212.933 197.871L245.033 143.376Z" fill="#6500AC"/>
<path d="M245.033 212.376C247.685 207.875 254.315 207.875 256.967 212.376L289.067 266.871C291.718 271.373 288.404 277 283.1 277H218.9C213.596 277 210.281 271.373 212.933 266.871L245.033 212.376Z" fill="#6500AC"/>
<path d="M245.033 281.426C247.685 276.858 254.315 276.858 256.967 281.426L289.067 336.722C291.718 341.29 288.404 347 283.1 347H218.9C213.596 347 210.281 341.29 212.933 336.722L245.033 281.426Z" fill="#6500AC"/>
<path d="M245.033 351.376C247.685 346.875 254.315 346.875 256.967 351.376L289.067 405.871C291.718 410.373 288.404 416 283.1 416H218.9C213.596 416 210.281 410.373 212.933 405.871L245.033 351.376Z" fill="#6500AC"/>
<path d="M245.033 420.376C247.685 415.875 254.315 415.875 256.967 420.376L289.067 474.871C291.718 479.373 288.404 485 283.1 485H218.9C213.596 485 210.281 479.373 212.933 474.871L245.033 420.376Z" fill="#6500AC"/>
<path d="M245.033 489.376C247.685 484.875 254.315 484.875 256.967 489.376L289.067 543.871C291.718 548.373 288.404 554 283.1 554H218.9C213.596 554 210.281 548.373 212.933 543.871L245.033 489.376Z" fill="#6500AC"/>
<path d="M245.033 558.426C247.685 553.858 254.315 553.858 256.967 558.426L289.067 613.722C291.718 618.29 288.404 624 283.1 624H218.9C213.596 624 210.281 618.29 212.933 613.722L245.033 558.426Z" fill="#6500AC"/>
<path d="M245.033 628.376C247.685 623.875 254.315 623.875 256.967 628.376L289.067 682.871C291.718 687.373 288.404 693 283.1 693H218.9C213.596 693 210.281 687.373 212.933 682.871L245.033 628.376Z" fill="#6500AC"/>
<path d="M245.033 697.376C247.685 692.875 254.315 692.875 256.967 697.376L289.067 751.871C291.718 756.373 288.404 762 283.1 762H218.9C213.596 762 210.281 756.373 212.933 751.871L245.033 697.376Z" fill="#6500AC"/>
<path d="M245.033 766.426C247.685 761.858 254.315 761.858 256.967 766.426L289.067 821.722C291.718 826.29 288.404 832 283.1 832H218.9C213.596 832 210.281 826.29 212.933 821.722L245.033 766.426Z" fill="#6500AC"/>
<path d="M245.033 836.376C247.685 831.875 254.315 831.875 256.967 836.376L289.067 890.871C291.718 895.373 288.404 901 283.1 901H218.9C213.596 901 210.281 895.373 212.933 890.871L245.033 836.376Z" fill="#6500AC"/>
<path d="M670.61 4.37637C673.228 -0.125454 679.772 -0.125452 682.39 4.37637L714.079 58.8709C716.696 63.3727 713.424 69 708.189 69H644.811C639.576 69 636.304 63.3727 638.921 58.8709L670.61 4.37637Z" fill="#6500AC"/>
<path d="M670.61 73.426C673.228 68.858 679.772 68.858 682.39 73.426L714.079 128.722C716.696 133.29 713.424 139 708.189 139H644.811C639.576 139 636.304 133.29 638.921 128.722L670.61 73.426Z" fill="#6500AC"/>
<path d="M670.61 143.376C673.228 138.875 679.772 138.875 682.39 143.376L714.079 197.871C716.696 202.373 713.424 208 708.189 208H644.811C639.576 208 636.304 202.373 638.921 197.871L670.61 143.376Z" fill="#6500AC"/>
<path d="M670.61 212.376C673.228 207.875 679.772 207.875 682.39 212.376L714.079 266.871C716.696 271.373 713.424 277 708.189 277H644.811C639.576 277 636.304 271.373 638.921 266.871L670.61 212.376Z" fill="#6500AC"/>
<path d="M670.61 281.426C673.228 276.858 679.772 276.858 682.39 281.426L714.079 336.722C716.696 341.29 713.424 347 708.189 347H644.811C639.576 347 636.304 341.29 638.921 336.722L670.61 281.426Z" fill="#6500AC"/>
<path d="M670.61 351.376C673.228 346.875 679.772 346.875 682.39 351.376L714.079 405.871C716.696 410.373 713.424 416 708.189 416H644.811C639.576 416 636.304 410.373 638.921 405.871L670.61 351.376Z" fill="#6500AC"/>
<path d="M670.61 420.376C673.228 415.875 679.772 415.875 682.39 420.376L714.079 474.871C716.696 479.373 713.424 485 708.189 485H644.811C639.576 485 636.304 479.373 638.921 474.871L670.61 420.376Z" fill="#6500AC"/>
<path d="M670.61 489.376C673.228 484.875 679.772 484.875 682.39 489.376L714.079 543.871C716.696 548.373 713.424 554 708.189 554H644.811C639.576 554 636.304 548.373 638.921 543.871L670.61 489.376Z" fill="#6500AC"/>
<path d="M670.61 558.426C673.228 553.858 679.772 553.858 682.39 558.426L714.079 613.722C716.696 618.29 713.424 624 708.189 624H644.811C639.576 624 636.304 618.29 638.921 613.722L670.61 558.426Z" fill="#6500AC"/>
<path d="M670.61 628.376C673.228 623.875 679.772 623.875 682.39 628.376L714.079 682.871C716.696 687.373 713.424 693 708.189 693H644.811C639.576 693 636.304 687.373 638.921 682.871L670.61 628.376Z" fill="#6500AC"/>
<path d="M670.61 697.376C673.228 692.875 679.772 692.875 682.39 697.376L714.079 751.871C716.696 756.373 713.424 762 708.189 762H644.811C639.576 762 636.304 756.373 638.921 751.871L670.61 697.376Z" fill="#6500AC"/>
<path d="M670.61 766.426C673.228 761.858 679.772 761.858 682.39 766.426L714.079 821.722C716.696 826.29 713.424 832 708.189 832H644.811C639.576 832 636.304 826.29 638.921 821.722L670.61 766.426Z" fill="#6500AC"/>
<path d="M670.61 836.376C673.228 831.875 679.772 831.875 682.39 836.376L714.079 890.871C716.696 895.373 713.424 901 708.189 901H644.811C639.576 901 636.304 895.373 638.921 890.871L670.61 836.376Z" fill="#6500AC"/>
<path d="M989.033 4.37637C991.685 -0.125454 998.315 -0.125452 1000.97 4.37637L1033.07 58.8709C1035.72 63.3727 1032.4 69 1027.1 69H962.9C957.596 69 954.281 63.3727 956.933 58.8709L989.033 4.37637Z" fill="#6500AC"/>
<path d="M1415.03 3.37637C1417.69 -1.12545 1424.31 -1.12545 1426.97 3.37637L1459.07 57.8709C1461.72 62.3727 1458.4 68 1453.1 68H1388.9C1383.6 68 1380.28 62.3727 1382.93 57.8709L1415.03 3.37637Z" fill="#6500AC"/>
<path d="M989.033 73.426C991.685 68.858 998.315 68.858 1000.97 73.426L1033.07 128.722C1035.72 133.29 1032.4 139 1027.1 139H962.9C957.596 139 954.281 133.29 956.933 128.722L989.033 73.426Z" fill="#6500AC"/>
<path d="M1415.03 72.426C1417.69 67.858 1424.31 67.858 1426.97 72.426L1459.07 127.722C1461.72 132.29 1458.4 138 1453.1 138H1388.9C1383.6 138 1380.28 132.29 1382.93 127.722L1415.03 72.426Z" fill="#6500AC"/>
<path d="M989.033 143.376C991.685 138.875 998.315 138.875 1000.97 143.376L1033.07 197.871C1035.72 202.373 1032.4 208 1027.1 208H962.9C957.596 208 954.281 202.373 956.933 197.871L989.033 143.376Z" fill="#6500AC"/>
<path d="M1415.03 142.376C1417.69 137.875 1424.31 137.875 1426.97 142.376L1459.07 196.871C1461.72 201.373 1458.4 207 1453.1 207H1388.9C1383.6 207 1380.28 201.373 1382.93 196.871L1415.03 142.376Z" fill="#6500AC"/>
<path d="M989.033 212.376C991.685 207.875 998.315 207.875 1000.97 212.376L1033.07 266.871C1035.72 271.373 1032.4 277 1027.1 277H962.9C957.596 277 954.281 271.373 956.933 266.871L989.033 212.376Z" fill="#6500AC"/>
<path d="M1415.03 211.376C1417.69 206.875 1424.31 206.875 1426.97 211.376L1459.07 265.871C1461.72 270.373 1458.4 276 1453.1 276H1388.9C1383.6 276 1380.28 270.373 1382.93 265.871L1415.03 211.376Z" fill="#6500AC"/>
<path d="M989.033 281.426C991.685 276.858 998.315 276.858 1000.97 281.426L1033.07 336.722C1035.72 341.29 1032.4 347 1027.1 347H962.9C957.596 347 954.281 341.29 956.933 336.722L989.033 281.426Z" fill="#6500AC"/>
<path d="M1415.03 280.426C1417.69 275.858 1424.31 275.858 1426.97 280.426L1459.07 335.722C1461.72 340.29 1458.4 346 1453.1 346H1388.9C1383.6 346 1380.28 340.29 1382.93 335.722L1415.03 280.426Z" fill="#6500AC"/>
<path d="M989.033 351.376C991.685 346.875 998.315 346.875 1000.97 351.376L1033.07 405.871C1035.72 410.373 1032.4 416 1027.1 416H962.9C957.596 416 954.281 410.373 956.933 405.871L989.033 351.376Z" fill="#6500AC"/>
<path d="M1415.03 350.376C1417.69 345.875 1424.31 345.875 1426.97 350.376L1459.07 404.871C1461.72 409.373 1458.4 415 1453.1 415H1388.9C1383.6 415 1380.28 409.373 1382.93 404.871L1415.03 350.376Z" fill="#6500AC"/>
<path d="M989.033 420.376C991.685 415.875 998.315 415.875 1000.97 420.376L1033.07 474.871C1035.72 479.373 1032.4 485 1027.1 485H962.9C957.596 485 954.281 479.373 956.933 474.871L989.033 420.376Z" fill="#6500AC"/>
<path d="M1415.03 419.376C1417.69 414.875 1424.31 414.875 1426.97 419.376L1459.07 473.871C1461.72 478.373 1458.4 484 1453.1 484H1388.9C1383.6 484 1380.28 478.373 1382.93 473.871L1415.03 419.376Z" fill="#6500AC"/>
<path d="M989.033 489.376C991.685 484.875 998.315 484.875 1000.97 489.376L1033.07 543.871C1035.72 548.373 1032.4 554 1027.1 554H962.9C957.596 554 954.281 548.373 956.933 543.871L989.033 489.376Z" fill="#6500AC"/>
<path d="M1415.03 488.376C1417.69 483.875 1424.31 483.875 1426.97 488.376L1459.07 542.871C1461.72 547.373 1458.4 553 1453.1 553H1388.9C1383.6 553 1380.28 547.373 1382.93 542.871L1415.03 488.376Z" fill="#6500AC"/>
<path d="M989.033 558.426C991.685 553.858 998.315 553.858 1000.97 558.426L1033.07 613.722C1035.72 618.29 1032.4 624 1027.1 624H962.9C957.596 624 954.281 618.29 956.933 613.722L989.033 558.426Z" fill="#6500AC"/>
<path d="M1415.03 557.426C1417.69 552.858 1424.31 552.858 1426.97 557.426L1459.07 612.722C1461.72 617.29 1458.4 623 1453.1 623H1388.9C1383.6 623 1380.28 617.29 1382.93 612.722L1415.03 557.426Z" fill="#6500AC"/>
<path d="M989.033 628.376C991.685 623.875 998.315 623.875 1000.97 628.376L1033.07 682.871C1035.72 687.373 1032.4 693 1027.1 693H962.9C957.596 693 954.281 687.373 956.933 682.871L989.033 628.376Z" fill="#6500AC"/>
<path d="M1415.03 627.376C1417.69 622.875 1424.31 622.875 1426.97 627.376L1459.07 681.871C1461.72 686.373 1458.4 692 1453.1 692H1388.9C1383.6 692 1380.28 686.373 1382.93 681.871L1415.03 627.376Z" fill="#6500AC"/>
<path d="M989.033 697.376C991.685 692.875 998.315 692.875 1000.97 697.376L1033.07 751.871C1035.72 756.373 1032.4 762 1027.1 762H962.9C957.596 762 954.281 756.373 956.933 751.871L989.033 697.376Z" fill="#6500AC"/>
<path d="M1415.03 696.376C1417.69 691.875 1424.31 691.875 1426.97 696.376L1459.07 750.871C1461.72 755.373 1458.4 761 1453.1 761H1388.9C1383.6 761 1380.28 755.373 1382.93 750.871L1415.03 696.376Z" fill="#6500AC"/>
<path d="M989.033 766.426C991.685 761.858 998.315 761.858 1000.97 766.426L1033.07 821.722C1035.72 826.29 1032.4 832 1027.1 832H962.9C957.596 832 954.281 826.29 956.933 821.722L989.033 766.426Z" fill="#6500AC"/>
<path d="M1415.03 765.426C1417.69 760.858 1424.31 760.858 1426.97 765.426L1459.07 820.722C1461.72 825.29 1458.4 831 1453.1 831H1388.9C1383.6 831 1380.28 825.29 1382.93 820.722L1415.03 765.426Z" fill="#6500AC"/>
<path d="M989.033 836.376C991.685 831.875 998.315 831.875 1000.97 836.376L1033.07 890.871C1035.72 895.373 1032.4 901 1027.1 901H962.9C957.596 901 954.281 895.373 956.933 890.871L989.033 836.376Z" fill="#6500AC"/>
<path d="M1415.03 835.376C1417.69 830.875 1424.31 830.875 1426.97 835.376L1459.07 889.871C1461.72 894.373 1458.4 900 1453.1 900H1388.9C1383.6 900 1380.28 894.373 1382.93 889.871L1415.03 835.376Z" fill="#6500AC"/>
<path d="M139.61 4.42602C142.228 -0.142005 148.772 -0.142003 151.39 4.42602L183.079 59.722C185.696 64.29 182.424 70 177.189 70H113.811C108.576 70 105.304 64.29 107.921 59.722L139.61 4.42602Z" fill="#6500AC"/>
<path d="M139.61 73.4757C142.228 68.8414 148.772 68.8414 151.39 73.4757L183.079 129.573C185.696 134.207 182.424 140 177.189 140H113.811C108.576 140 105.304 134.207 107.921 129.573L139.61 73.4757Z" fill="#6500AC"/>
<path d="M139.61 143.426C142.228 138.858 148.772 138.858 151.39 143.426L183.079 198.722C185.696 203.29 182.424 209 177.189 209H113.811C108.576 209 105.304 203.29 107.921 198.722L139.61 143.426Z" fill="#6500AC"/>
<path d="M139.61 212.426C142.228 207.858 148.772 207.858 151.39 212.426L183.079 267.722C185.696 272.29 182.424 278 177.189 278H113.811C108.576 278 105.304 272.29 107.921 267.722L139.61 212.426Z" fill="#6500AC"/>
<path d="M139.61 281.476C142.228 276.841 148.772 276.841 151.39 281.476L183.079 337.573C185.696 342.207 182.424 348 177.189 348H113.811C108.576 348 105.304 342.207 107.921 337.573L139.61 281.476Z" fill="#6500AC"/>
<path d="M139.61 351.426C142.228 346.858 148.772 346.858 151.39 351.426L183.079 406.722C185.696 411.29 182.424 417 177.189 417H113.811C108.576 417 105.304 411.29 107.921 406.722L139.61 351.426Z" fill="#6500AC"/>
<path d="M139.61 420.426C142.228 415.858 148.772 415.858 151.39 420.426L183.079 475.722C185.696 480.29 182.424 486 177.189 486H113.811C108.576 486 105.304 480.29 107.921 475.722L139.61 420.426Z" fill="#6500AC"/>
<path d="M139.61 489.426C142.228 484.858 148.772 484.858 151.39 489.426L183.079 544.722C185.696 549.29 182.424 555 177.189 555H113.811C108.576 555 105.304 549.29 107.921 544.722L139.61 489.426Z" fill="#6500AC"/>
<path d="M139.61 558.476C142.228 553.841 148.772 553.841 151.39 558.476L183.079 614.573C185.696 619.207 182.424 625 177.189 625H113.811C108.576 625 105.304 619.207 107.921 614.573L139.61 558.476Z" fill="#6500AC"/>
<path d="M139.61 628.426C142.228 623.858 148.772 623.858 151.39 628.426L183.079 683.722C185.696 688.29 182.424 694 177.189 694H113.811C108.576 694 105.304 688.29 107.921 683.722L139.61 628.426Z" fill="#6500AC"/>
<path d="M139.61 697.426C142.228 692.858 148.772 692.858 151.39 697.426L183.079 752.722C185.696 757.29 182.424 763 177.189 763H113.811C108.576 763 105.304 757.29 107.921 752.722L139.61 697.426Z" fill="#6500AC"/>
<path d="M139.61 766.476C142.228 761.841 148.772 761.841 151.39 766.476L183.079 822.573C185.696 827.207 182.424 833 177.189 833H113.811C108.576 833 105.304 827.207 107.921 822.573L139.61 766.476Z" fill="#6500AC"/>
<path d="M139.61 836.426C142.228 831.858 148.772 831.858 151.39 836.426L183.079 891.722C185.696 896.29 182.424 902 177.189 902H113.811C108.576 902 105.304 896.29 107.921 891.722L139.61 836.426Z" fill="#6500AC"/>
<path d="M564.61 4.42602C567.228 -0.142005 573.772 -0.142003 576.39 4.42602L608.079 59.722C610.696 64.29 607.424 70 602.189 70H538.811C533.576 70 530.304 64.29 532.921 59.722L564.61 4.42602Z" fill="#6500AC"/>
<path d="M564.61 73.4757C567.228 68.8414 573.772 68.8414 576.39 73.4757L608.079 129.573C610.696 134.207 607.424 140 602.189 140H538.811C533.576 140 530.304 134.207 532.921 129.573L564.61 73.4757Z" fill="#6500AC"/>
<path d="M564.61 143.426C567.228 138.858 573.772 138.858 576.39 143.426L608.079 198.722C610.696 203.29 607.424 209 602.189 209H538.811C533.576 209 530.304 203.29 532.921 198.722L564.61 143.426Z" fill="#6500AC"/>
<path d="M564.61 212.426C567.228 207.858 573.772 207.858 576.39 212.426L608.079 267.722C610.696 272.29 607.424 278 602.189 278H538.811C533.576 278 530.304 272.29 532.921 267.722L564.61 212.426Z" fill="#6500AC"/>
<path d="M564.61 281.476C567.228 276.841 573.772 276.841 576.39 281.476L608.079 337.573C610.696 342.207 607.424 348 602.189 348H538.811C533.576 348 530.304 342.207 532.921 337.573L564.61 281.476Z" fill="#6500AC"/>
<path d="M564.61 351.426C567.228 346.858 573.772 346.858 576.39 351.426L608.079 406.722C610.696 411.29 607.424 417 602.189 417H538.811C533.576 417 530.304 411.29 532.921 406.722L564.61 351.426Z" fill="#6500AC"/>
<path d="M564.61 420.426C567.228 415.858 573.772 415.858 576.39 420.426L608.079 475.722C610.696 480.29 607.424 486 602.189 486H538.811C533.576 486 530.304 480.29 532.921 475.722L564.61 420.426Z" fill="#6500AC"/>
<path d="M564.61 489.426C567.228 484.858 573.772 484.858 576.39 489.426L608.079 544.722C610.696 549.29 607.424 555 602.189 555H538.811C533.576 555 530.304 549.29 532.921 544.722L564.61 489.426Z" fill="#6500AC"/>
<path d="M564.61 558.476C567.228 553.841 573.772 553.841 576.39 558.476L608.079 614.573C610.696 619.207 607.424 625 602.189 625H538.811C533.576 625 530.304 619.207 532.921 614.573L564.61 558.476Z" fill="#6500AC"/>
<path d="M564.61 628.426C567.228 623.858 573.772 623.858 576.39 628.426L608.079 683.722C610.696 688.29 607.424 694 602.189 694H538.811C533.576 694 530.304 688.29 532.921 683.722L564.61 628.426Z" fill="#6500AC"/>
<path d="M564.61 697.426C567.228 692.858 573.772 692.858 576.39 697.426L608.079 752.722C610.696 757.29 607.424 763 602.189 763H538.811C533.576 763 530.304 757.29 532.921 752.722L564.61 697.426Z" fill="#6500AC"/>
<path d="M564.61 766.476C567.228 761.841 573.772 761.841 576.39 766.476L608.079 822.573C610.696 827.207 607.424 833 602.189 833H538.811C533.576 833 530.304 827.207 532.921 822.573L564.61 766.476Z" fill="#6500AC"/>
<path d="M564.61 836.426C567.228 831.858 573.772 831.858 576.39 836.426L608.079 891.722C610.696 896.29 607.424 902 602.189 902H538.811C533.576 902 530.304 896.29 532.921 891.722L564.61 836.426Z" fill="#6500AC"/>
<path d="M883.033 4.42602C885.685 -0.142005 892.315 -0.142003 894.967 4.42602L927.067 59.722C929.719 64.29 926.404 70 921.1 70H856.9C851.596 70 848.281 64.29 850.933 59.722L883.033 4.42602Z" fill="#6500AC"/>
<path d="M1309.03 3.42602C1311.69 -1.142 1318.31 -1.142 1320.97 3.42602L1353.07 58.722C1355.72 63.29 1352.4 69 1347.1 69H1282.9C1277.6 69 1274.28 63.29 1276.93 58.722L1309.03 3.42602Z" fill="#6500AC"/>
<path d="M883.033 73.4757C885.685 68.8414 892.315 68.8414 894.967 73.4757L927.067 129.573C929.719 134.207 926.404 140 921.1 140H856.9C851.596 140 848.281 134.207 850.933 129.573L883.033 73.4757Z" fill="#6500AC"/>
<path d="M1309.03 72.4757C1311.69 67.8414 1318.31 67.8414 1320.97 72.4757L1353.07 128.573C1355.72 133.207 1352.4 139 1347.1 139H1282.9C1277.6 139 1274.28 133.207 1276.93 128.573L1309.03 72.4757Z" fill="#6500AC"/>
<path d="M883.033 143.426C885.685 138.858 892.315 138.858 894.967 143.426L927.067 198.722C929.719 203.29 926.404 209 921.1 209H856.9C851.596 209 848.281 203.29 850.933 198.722L883.033 143.426Z" fill="#6500AC"/>
<path d="M1309.03 142.426C1311.69 137.858 1318.31 137.858 1320.97 142.426L1353.07 197.722C1355.72 202.29 1352.4 208 1347.1 208H1282.9C1277.6 208 1274.28 202.29 1276.93 197.722L1309.03 142.426Z" fill="#6500AC"/>
<path d="M883.033 212.426C885.685 207.858 892.315 207.858 894.967 212.426L927.067 267.722C929.719 272.29 926.404 278 921.1 278H856.9C851.596 278 848.281 272.29 850.933 267.722L883.033 212.426Z" fill="#6500AC"/>
<path d="M1309.03 211.426C1311.69 206.858 1318.31 206.858 1320.97 211.426L1353.07 266.722C1355.72 271.29 1352.4 277 1347.1 277H1282.9C1277.6 277 1274.28 271.29 1276.93 266.722L1309.03 211.426Z" fill="#6500AC"/>
<path d="M883.033 281.476C885.685 276.841 892.315 276.841 894.967 281.476L927.067 337.573C929.719 342.207 926.404 348 921.1 348H856.9C851.596 348 848.281 342.207 850.933 337.573L883.033 281.476Z" fill="#6500AC"/>
<path d="M1309.03 280.476C1311.69 275.841 1318.31 275.841 1320.97 280.476L1353.07 336.573C1355.72 341.207 1352.4 347 1347.1 347H1282.9C1277.6 347 1274.28 341.207 1276.93 336.573L1309.03 280.476Z" fill="#6500AC"/>
<path d="M883.033 351.426C885.685 346.858 892.315 346.858 894.967 351.426L927.067 406.722C929.719 411.29 926.404 417 921.1 417H856.9C851.596 417 848.281 411.29 850.933 406.722L883.033 351.426Z" fill="#6500AC"/>
<path d="M1309.03 350.426C1311.69 345.858 1318.31 345.858 1320.97 350.426L1353.07 405.722C1355.72 410.29 1352.4 416 1347.1 416H1282.9C1277.6 416 1274.28 410.29 1276.93 405.722L1309.03 350.426Z" fill="#6500AC"/>
<path d="M883.033 420.426C885.685 415.858 892.315 415.858 894.967 420.426L927.067 475.722C929.719 480.29 926.404 486 921.1 486H856.9C851.596 486 848.281 480.29 850.933 475.722L883.033 420.426Z" fill="#6500AC"/>
<path d="M1309.03 419.426C1311.69 414.858 1318.31 414.858 1320.97 419.426L1353.07 474.722C1355.72 479.29 1352.4 485 1347.1 485H1282.9C1277.6 485 1274.28 479.29 1276.93 474.722L1309.03 419.426Z" fill="#6500AC"/>
<path d="M883.033 489.426C885.685 484.858 892.315 484.858 894.967 489.426L927.067 544.722C929.719 549.29 926.404 555 921.1 555H856.9C851.596 555 848.281 549.29 850.933 544.722L883.033 489.426Z" fill="#6500AC"/>
<path d="M1309.03 488.426C1311.69 483.858 1318.31 483.858 1320.97 488.426L1353.07 543.722C1355.72 548.29 1352.4 554 1347.1 554H1282.9C1277.6 554 1274.28 548.29 1276.93 543.722L1309.03 488.426Z" fill="#6500AC"/>
<path d="M883.033 558.476C885.685 553.841 892.315 553.841 894.967 558.476L927.067 614.573C929.719 619.207 926.404 625 921.1 625H856.9C851.596 625 848.281 619.207 850.933 614.573L883.033 558.476Z" fill="#6500AC"/>
<path d="M1309.03 557.476C1311.69 552.841 1318.31 552.841 1320.97 557.476L1353.07 613.573C1355.72 618.207 1352.4 624 1347.1 624H1282.9C1277.6 624 1274.28 618.207 1276.93 613.573L1309.03 557.476Z" fill="#6500AC"/>
<path d="M883.033 628.426C885.685 623.858 892.315 623.858 894.967 628.426L927.067 683.722C929.719 688.29 926.404 694 921.1 694H856.9C851.596 694 848.281 688.29 850.933 683.722L883.033 628.426Z" fill="#6500AC"/>
<path d="M1309.03 627.426C1311.69 622.858 1318.31 622.858 1320.97 627.426L1353.07 682.722C1355.72 687.29 1352.4 693 1347.1 693H1282.9C1277.6 693 1274.28 687.29 1276.93 682.722L1309.03 627.426Z" fill="#6500AC"/>
<path d="M883.033 697.426C885.685 692.858 892.315 692.858 894.967 697.426L927.067 752.722C929.719 757.29 926.404 763 921.1 763H856.9C851.596 763 848.281 757.29 850.933 752.722L883.033 697.426Z" fill="#6500AC"/>
<path d="M1309.03 696.426C1311.69 691.858 1318.31 691.858 1320.97 696.426L1353.07 751.722C1355.72 756.29 1352.4 762 1347.1 762H1282.9C1277.6 762 1274.28 756.29 1276.93 751.722L1309.03 696.426Z" fill="#6500AC"/>
<path d="M883.033 766.476C885.685 761.841 892.315 761.841 894.967 766.476L927.067 822.573C929.719 827.207 926.404 833 921.1 833H856.9C851.596 833 848.281 827.207 850.933 822.573L883.033 766.476Z" fill="#6500AC"/>
<path d="M1309.03 765.476C1311.69 760.841 1318.31 760.841 1320.97 765.476L1353.07 821.573C1355.72 826.207 1352.4 832 1347.1 832H1282.9C1277.6 832 1274.28 826.207 1276.93 821.573L1309.03 765.476Z" fill="#6500AC"/>
<path d="M883.033 836.426C885.685 831.858 892.315 831.858 894.967 836.426L927.067 891.722C929.719 896.29 926.404 902 921.1 902H856.9C851.596 902 848.281 896.29 850.933 891.722L883.033 836.426Z" fill="#6500AC"/>
<path d="M1309.03 835.426C1311.69 830.858 1318.31 830.858 1320.97 835.426L1353.07 890.722C1355.72 895.29 1352.4 901 1347.1 901H1282.9C1277.6 901 1274.28 895.29 1276.93 890.722L1309.03 835.426Z" fill="#6500AC"/>
<path d="M351.61 4.42602C354.228 -0.142005 360.772 -0.142003 363.39 4.42602L395.079 59.722C397.696 64.29 394.424 70 389.189 70H325.811C320.576 70 317.304 64.29 319.921 59.722L351.61 4.42602Z" fill="#6500AC"/>
<path d="M351.61 73.4757C354.228 68.8414 360.772 68.8414 363.39 73.4757L395.079 129.573C397.696 134.207 394.424 140 389.189 140H325.811C320.576 140 317.304 134.207 319.921 129.573L351.61 73.4757Z" fill="#6500AC"/>
<path d="M351.61 143.426C354.228 138.858 360.772 138.858 363.39 143.426L395.079 198.722C397.696 203.29 394.424 209 389.189 209H325.811C320.576 209 317.304 203.29 319.921 198.722L351.61 143.426Z" fill="#6500AC"/>
<path d="M351.61 212.426C354.228 207.858 360.772 207.858 363.39 212.426L395.079 267.722C397.696 272.29 394.424 278 389.189 278H325.811C320.576 278 317.304 272.29 319.921 267.722L351.61 212.426Z" fill="#6500AC"/>
<path d="M351.61 281.476C354.228 276.841 360.772 276.841 363.39 281.476L395.079 337.573C397.696 342.207 394.424 348 389.189 348H325.811C320.576 348 317.304 342.207 319.921 337.573L351.61 281.476Z" fill="#6500AC"/>
<path d="M351.61 351.426C354.228 346.858 360.772 346.858 363.39 351.426L395.079 406.722C397.696 411.29 394.424 417 389.189 417H325.811C320.576 417 317.304 411.29 319.921 406.722L351.61 351.426Z" fill="#6500AC"/>
<path d="M351.61 420.426C354.228 415.858 360.772 415.858 363.39 420.426L395.079 475.722C397.696 480.29 394.424 486 389.189 486H325.811C320.576 486 317.304 480.29 319.921 475.722L351.61 420.426Z" fill="#6500AC"/>
<path d="M351.61 489.426C354.228 484.858 360.772 484.858 363.39 489.426L395.079 544.722C397.696 549.29 394.424 555 389.189 555H325.811C320.576 555 317.304 549.29 319.921 544.722L351.61 489.426Z" fill="#6500AC"/>
<path d="M351.61 558.476C354.228 553.841 360.772 553.841 363.39 558.476L395.079 614.573C397.696 619.207 394.424 625 389.189 625H325.811C320.576 625 317.304 619.207 319.921 614.573L351.61 558.476Z" fill="#6500AC"/>
<path d="M351.61 628.426C354.228 623.858 360.772 623.858 363.39 628.426L395.079 683.722C397.696 688.29 394.424 694 389.189 694H325.811C320.576 694 317.304 688.29 319.921 683.722L351.61 628.426Z" fill="#6500AC"/>
<path d="M351.61 697.426C354.228 692.858 360.772 692.858 363.39 697.426L395.079 752.722C397.696 757.29 394.424 763 389.189 763H325.811C320.576 763 317.304 757.29 319.921 752.722L351.61 697.426Z" fill="#6500AC"/>
<path d="M351.61 766.476C354.228 761.841 360.772 761.841 363.39 766.476L395.079 822.573C397.696 827.207 394.424 833 389.189 833H325.811C320.576 833 317.304 827.207 319.921 822.573L351.61 766.476Z" fill="#6500AC"/>
<path d="M351.61 836.426C354.228 831.858 360.772 831.858 363.39 836.426L395.079 891.722C397.696 896.29 394.424 902 389.189 902H325.811C320.576 902 317.304 896.29 319.921 891.722L351.61 836.426Z" fill="#6500AC"/>
<path d="M777.61 4.42602C780.228 -0.142005 786.772 -0.142003 789.39 4.42602L821.079 59.722C823.696 64.29 820.424 70 815.189 70H751.811C746.576 70 743.304 64.29 745.921 59.722L777.61 4.42602Z" fill="#6500AC"/>
<path d="M1203.61 3.42602C1206.23 -1.142 1212.77 -1.142 1215.39 3.42602L1247.08 58.722C1249.7 63.29 1246.42 69 1241.19 69H1177.81C1172.58 69 1169.3 63.29 1171.92 58.722L1203.61 3.42602Z" fill="#6500AC"/>
<path d="M777.61 73.4757C780.228 68.8414 786.772 68.8414 789.39 73.4757L821.079 129.573C823.696 134.207 820.424 140 815.189 140H751.811C746.576 140 743.304 134.207 745.921 129.573L777.61 73.4757Z" fill="#6500AC"/>
<path d="M1203.61 72.4757C1206.23 67.8414 1212.77 67.8414 1215.39 72.4757L1247.08 128.573C1249.7 133.207 1246.42 139 1241.19 139H1177.81C1172.58 139 1169.3 133.207 1171.92 128.573L1203.61 72.4757Z" fill="#6500AC"/>
<path d="M777.61 143.426C780.228 138.858 786.772 138.858 789.39 143.426L821.079 198.722C823.696 203.29 820.424 209 815.189 209H751.811C746.576 209 743.304 203.29 745.921 198.722L777.61 143.426Z" fill="#6500AC"/>
<path d="M1203.61 142.426C1206.23 137.858 1212.77 137.858 1215.39 142.426L1247.08 197.722C1249.7 202.29 1246.42 208 1241.19 208H1177.81C1172.58 208 1169.3 202.29 1171.92 197.722L1203.61 142.426Z" fill="#6500AC"/>
<path d="M777.61 212.426C780.228 207.858 786.772 207.858 789.39 212.426L821.079 267.722C823.696 272.29 820.424 278 815.189 278H751.811C746.576 278 743.304 272.29 745.921 267.722L777.61 212.426Z" fill="#6500AC"/>
<path d="M1203.61 211.426C1206.23 206.858 1212.77 206.858 1215.39 211.426L1247.08 266.722C1249.7 271.29 1246.42 277 1241.19 277H1177.81C1172.58 277 1169.3 271.29 1171.92 266.722L1203.61 211.426Z" fill="#6500AC"/>
<path d="M777.61 281.476C780.228 276.841 786.772 276.841 789.39 281.476L821.079 337.573C823.696 342.207 820.424 348 815.189 348H751.811C746.576 348 743.304 342.207 745.921 337.573L777.61 281.476Z" fill="#6500AC"/>
<path d="M1203.61 280.476C1206.23 275.841 1212.77 275.841 1215.39 280.476L1247.08 336.573C1249.7 341.207 1246.42 347 1241.19 347H1177.81C1172.58 347 1169.3 341.207 1171.92 336.573L1203.61 280.476Z" fill="#6500AC"/>
<path d="M777.61 351.426C780.228 346.858 786.772 346.858 789.39 351.426L821.079 406.722C823.696 411.29 820.424 417 815.189 417H751.811C746.576 417 743.304 411.29 745.921 406.722L777.61 351.426Z" fill="#6500AC"/>
<path d="M1203.61 350.426C1206.23 345.858 1212.77 345.858 1215.39 350.426L1247.08 405.722C1249.7 410.29 1246.42 416 1241.19 416H1177.81C1172.58 416 1169.3 410.29 1171.92 405.722L1203.61 350.426Z" fill="#6500AC"/>
<path d="M777.61 420.426C780.228 415.858 786.772 415.858 789.39 420.426L821.079 475.722C823.696 480.29 820.424 486 815.189 486H751.811C746.576 486 743.304 480.29 745.921 475.722L777.61 420.426Z" fill="#6500AC"/>
<path d="M1203.61 419.426C1206.23 414.858 1212.77 414.858 1215.39 419.426L1247.08 474.722C1249.7 479.29 1246.42 485 1241.19 485H1177.81C1172.58 485 1169.3 479.29 1171.92 474.722L1203.61 419.426Z" fill="#6500AC"/>
<path d="M777.61 489.426C780.228 484.858 786.772 484.858 789.39 489.426L821.079 544.722C823.696 549.29 820.424 555 815.189 555H751.811C746.576 555 743.304 549.29 745.921 544.722L777.61 489.426Z" fill="#6500AC"/>
<path d="M1203.61 488.426C1206.23 483.858 1212.77 483.858 1215.39 488.426L1247.08 543.722C1249.7 548.29 1246.42 554 1241.19 554H1177.81C1172.58 554 1169.3 548.29 1171.92 543.722L1203.61 488.426Z" fill="#6500AC"/>
<path d="M777.61 558.476C780.228 553.841 786.772 553.841 789.39 558.476L821.079 614.573C823.696 619.207 820.424 625 815.189 625H751.811C746.576 625 743.304 619.207 745.921 614.573L777.61 558.476Z" fill="#6500AC"/>
<path d="M1203.61 557.476C1206.23 552.841 1212.77 552.841 1215.39 557.476L1247.08 613.573C1249.7 618.207 1246.42 624 1241.19 624H1177.81C1172.58 624 1169.3 618.207 1171.92 613.573L1203.61 557.476Z" fill="#6500AC"/>
<path d="M777.61 628.426C780.228 623.858 786.772 623.858 789.39 628.426L821.079 683.722C823.696 688.29 820.424 694 815.189 694H751.811C746.576 694 743.304 688.29 745.921 683.722L777.61 628.426Z" fill="#6500AC"/>
<path d="M1203.61 627.426C1206.23 622.858 1212.77 622.858 1215.39 627.426L1247.08 682.722C1249.7 687.29 1246.42 693 1241.19 693H1177.81C1172.58 693 1169.3 687.29 1171.92 682.722L1203.61 627.426Z" fill="#6500AC"/>
<path d="M777.61 697.426C780.228 692.858 786.772 692.858 789.39 697.426L821.079 752.722C823.696 757.29 820.424 763 815.189 763H751.811C746.576 763 743.304 757.29 745.921 752.722L777.61 697.426Z" fill="#6500AC"/>
<path d="M1203.61 696.426C1206.23 691.858 1212.77 691.858 1215.39 696.426L1247.08 751.722C1249.7 756.29 1246.42 762 1241.19 762H1177.81C1172.58 762 1169.3 756.29 1171.92 751.722L1203.61 696.426Z" fill="#6500AC"/>
<path d="M777.61 766.476C780.228 761.841 786.772 761.841 789.39 766.476L821.079 822.573C823.696 827.207 820.424 833 815.189 833H751.811C746.576 833 743.304 827.207 745.921 822.573L777.61 766.476Z" fill="#6500AC"/>
<path d="M1203.61 765.476C1206.23 760.841 1212.77 760.841 1215.39 765.476L1247.08 821.573C1249.7 826.207 1246.42 832 1241.19 832H1177.81C1172.58 832 1169.3 826.207 1171.92 821.573L1203.61 765.476Z" fill="#6500AC"/>
<path d="M777.61 836.426C780.228 831.858 786.772 831.858 789.39 836.426L821.079 891.722C823.696 896.29 820.424 902 815.189 902H751.811C746.576 902 743.304 896.29 745.921 891.722L777.61 836.426Z" fill="#6500AC"/>
<path d="M1203.61 835.426C1206.23 830.858 1212.77 830.858 1215.39 835.426L1247.08 890.722C1249.7 895.29 1246.42 901 1241.19 901H1177.81C1172.58 901 1169.3 895.29 1171.92 890.722L1203.61 835.426Z" fill="#6500AC"/>
<path d="M1096.03 4.42602C1098.69 -0.142005 1105.31 -0.142003 1107.97 4.42602L1140.07 59.722C1142.72 64.29 1139.4 70 1134.1 70H1069.9C1064.6 70 1061.28 64.29 1063.93 59.722L1096.03 4.42602Z" fill="#6500AC"/>
<path d="M1522.03 3.42602C1524.69 -1.142 1531.31 -1.142 1533.97 3.42602L1566.07 58.722C1568.72 63.29 1565.4 69 1560.1 69H1495.9C1490.6 69 1487.28 63.29 1489.93 58.722L1522.03 3.42602Z" fill="#6500AC"/>
<path d="M1096.03 73.4757C1098.69 68.8414 1105.31 68.8414 1107.97 73.4757L1140.07 129.573C1142.72 134.207 1139.4 140 1134.1 140H1069.9C1064.6 140 1061.28 134.207 1063.93 129.573L1096.03 73.4757Z" fill="#6500AC"/>
<path d="M1522.03 72.4757C1524.69 67.8414 1531.31 67.8414 1533.97 72.4757L1566.07 128.573C1568.72 133.207 1565.4 139 1560.1 139H1495.9C1490.6 139 1487.28 133.207 1489.93 128.573L1522.03 72.4757Z" fill="#6500AC"/>
<path d="M1096.03 143.426C1098.69 138.858 1105.31 138.858 1107.97 143.426L1140.07 198.722C1142.72 203.29 1139.4 209 1134.1 209H1069.9C1064.6 209 1061.28 203.29 1063.93 198.722L1096.03 143.426Z" fill="#6500AC"/>
<path d="M1522.03 142.426C1524.69 137.858 1531.31 137.858 1533.97 142.426L1566.07 197.722C1568.72 202.29 1565.4 208 1560.1 208H1495.9C1490.6 208 1487.28 202.29 1489.93 197.722L1522.03 142.426Z" fill="#6500AC"/>
<path d="M1096.03 212.426C1098.69 207.858 1105.31 207.858 1107.97 212.426L1140.07 267.722C1142.72 272.29 1139.4 278 1134.1 278H1069.9C1064.6 278 1061.28 272.29 1063.93 267.722L1096.03 212.426Z" fill="#6500AC"/>
<path d="M1522.03 211.426C1524.69 206.858 1531.31 206.858 1533.97 211.426L1566.07 266.722C1568.72 271.29 1565.4 277 1560.1 277H1495.9C1490.6 277 1487.28 271.29 1489.93 266.722L1522.03 211.426Z" fill="#6500AC"/>
<path d="M1096.03 281.476C1098.69 276.841 1105.31 276.841 1107.97 281.476L1140.07 337.573C1142.72 342.207 1139.4 348 1134.1 348H1069.9C1064.6 348 1061.28 342.207 1063.93 337.573L1096.03 281.476Z" fill="#6500AC"/>
<path d="M1522.03 280.476C1524.69 275.841 1531.31 275.841 1533.97 280.476L1566.07 336.573C1568.72 341.207 1565.4 347 1560.1 347H1495.9C1490.6 347 1487.28 341.207 1489.93 336.573L1522.03 280.476Z" fill="#6500AC"/>
<path d="M1096.03 351.426C1098.69 346.858 1105.31 346.858 1107.97 351.426L1140.07 406.722C1142.72 411.29 1139.4 417 1134.1 417H1069.9C1064.6 417 1061.28 411.29 1063.93 406.722L1096.03 351.426Z" fill="#6500AC"/>
<path d="M1522.03 350.426C1524.69 345.858 1531.31 345.858 1533.97 350.426L1566.07 405.722C1568.72 410.29 1565.4 416 1560.1 416H1495.9C1490.6 416 1487.28 410.29 1489.93 405.722L1522.03 350.426Z" fill="#6500AC"/>
<path d="M1096.03 420.426C1098.69 415.858 1105.31 415.858 1107.97 420.426L1140.07 475.722C1142.72 480.29 1139.4 486 1134.1 486H1069.9C1064.6 486 1061.28 480.29 1063.93 475.722L1096.03 420.426Z" fill="#6500AC"/>
<path d="M1522.03 419.426C1524.69 414.858 1531.31 414.858 1533.97 419.426L1566.07 474.722C1568.72 479.29 1565.4 485 1560.1 485H1495.9C1490.6 485 1487.28 479.29 1489.93 474.722L1522.03 419.426Z" fill="#6500AC"/>
<path d="M1096.03 489.426C1098.69 484.858 1105.31 484.858 1107.97 489.426L1140.07 544.722C1142.72 549.29 1139.4 555 1134.1 555H1069.9C1064.6 555 1061.28 549.29 1063.93 544.722L1096.03 489.426Z" fill="#6500AC"/>
<path d="M1522.03 488.426C1524.69 483.858 1531.31 483.858 1533.97 488.426L1566.07 543.722C1568.72 548.29 1565.4 554 1560.1 554H1495.9C1490.6 554 1487.28 548.29 1489.93 543.722L1522.03 488.426Z" fill="#6500AC"/>
<path d="M1096.03 558.476C1098.69 553.841 1105.31 553.841 1107.97 558.476L1140.07 614.573C1142.72 619.207 1139.4 625 1134.1 625H1069.9C1064.6 625 1061.28 619.207 1063.93 614.573L1096.03 558.476Z" fill="#6500AC"/>
<path d="M1522.03 557.476C1524.69 552.841 1531.31 552.841 1533.97 557.476L1566.07 613.573C1568.72 618.207 1565.4 624 1560.1 624H1495.9C1490.6 624 1487.28 618.207 1489.93 613.573L1522.03 557.476Z" fill="#6500AC"/>
<path d="M1096.03 628.426C1098.69 623.858 1105.31 623.858 1107.97 628.426L1140.07 683.722C1142.72 688.29 1139.4 694 1134.1 694H1069.9C1064.6 694 1061.28 688.29 1063.93 683.722L1096.03 628.426Z" fill="#6500AC"/>
<path d="M1522.03 627.426C1524.69 622.858 1531.31 622.858 1533.97 627.426L1566.07 682.722C1568.72 687.29 1565.4 693 1560.1 693H1495.9C1490.6 693 1487.28 687.29 1489.93 682.722L1522.03 627.426Z" fill="#6500AC"/>
<path d="M1096.03 697.426C1098.69 692.858 1105.31 692.858 1107.97 697.426L1140.07 752.722C1142.72 757.29 1139.4 763 1134.1 763H1069.9C1064.6 763 1061.28 757.29 1063.93 752.722L1096.03 697.426Z" fill="#6500AC"/>
<path d="M1522.03 696.426C1524.69 691.858 1531.31 691.858 1533.97 696.426L1566.07 751.722C1568.72 756.29 1565.4 762 1560.1 762H1495.9C1490.6 762 1487.28 756.29 1489.93 751.722L1522.03 696.426Z" fill="#6500AC"/>
<path d="M1096.03 766.476C1098.69 761.841 1105.31 761.841 1107.97 766.476L1140.07 822.573C1142.72 827.207 1139.4 833 1134.1 833H1069.9C1064.6 833 1061.28 827.207 1063.93 822.573L1096.03 766.476Z" fill="#6500AC"/>
<path d="M1522.03 765.476C1524.69 760.841 1531.31 760.841 1533.97 765.476L1566.07 821.573C1568.72 826.207 1565.4 832 1560.1 832H1495.9C1490.6 832 1487.28 826.207 1489.93 821.573L1522.03 765.476Z" fill="#6500AC"/>
<path d="M1096.03 836.426C1098.69 831.858 1105.31 831.858 1107.97 836.426L1140.07 891.722C1142.72 896.29 1139.4 902 1134.1 902H1069.9C1064.6 902 1061.28 896.29 1063.93 891.722L1096.03 836.426Z" fill="#6500AC"/>
<path d="M1522.03 835.426C1524.69 830.858 1531.31 830.858 1533.97 835.426L1566.07 890.722C1568.72 895.29 1565.4 901 1560.1 901H1495.9C1490.6 901 1487.28 895.29 1489.93 890.722L1522.03 835.426Z" fill="#6500AC"/>
<path d="M86.0334 65.6236C88.6852 70.1255 95.3148 70.1255 97.9666 65.6236L130.067 11.1291C132.719 6.62727 129.404 1 124.1 1H59.8999C54.5963 1 51.2815 6.62728 53.9333 11.1291L86.0334 65.6236Z" fill="#6500AC"/>
<path d="M86.0334 135.574C88.6852 140.142 95.3148 140.142 97.9666 135.574L130.067 80.2781C132.719 75.71 129.404 70 124.1 70H59.8999C54.5963 70 51.2815 75.71 53.9333 80.2781L86.0334 135.574Z" fill="#6500AC"/>
<path d="M86.0334 204.624C88.6852 209.125 95.3148 209.125 97.9666 204.624L130.067 150.129C132.719 145.627 129.404 140 124.1 140H59.8999C54.5963 140 51.2815 145.627 53.9333 150.129L86.0334 204.624Z" fill="#6500AC"/>
<path d="M86.0334 273.624C88.6852 278.125 95.3148 278.125 97.9666 273.624L130.067 219.129C132.719 214.627 129.404 209 124.1 209H59.8999C54.5963 209 51.2815 214.627 53.9333 219.129L86.0334 273.624Z" fill="#6500AC"/>
<path d="M86.0334 343.574C88.6852 348.142 95.3148 348.142 97.9666 343.574L130.067 288.278C132.719 283.71 129.404 278 124.1 278H59.8999C54.5963 278 51.2815 283.71 53.9333 288.278L86.0334 343.574Z" fill="#6500AC"/>
<path d="M86.0334 412.624C88.6852 417.125 95.3148 417.125 97.9666 412.624L130.067 358.129C132.719 353.627 129.404 348 124.1 348H59.8999C54.5963 348 51.2815 353.627 53.9333 358.129L86.0334 412.624Z" fill="#6500AC"/>
<path d="M86.0334 481.624C88.6852 486.125 95.3148 486.125 97.9666 481.624L130.067 427.129C132.719 422.627 129.404 417 124.1 417H59.8999C54.5963 417 51.2815 422.627 53.9333 427.129L86.0334 481.624Z" fill="#6500AC"/>
<path d="M86.0334 550.624C88.6852 555.125 95.3148 555.125 97.9666 550.624L130.067 496.129C132.719 491.627 129.404 486 124.1 486H59.8999C54.5963 486 51.2815 491.627 53.9333 496.129L86.0334 550.624Z" fill="#6500AC"/>
<path d="M86.0334 620.574C88.6852 625.142 95.3148 625.142 97.9666 620.574L130.067 565.278C132.719 560.71 129.404 555 124.1 555H59.8999C54.5963 555 51.2815 560.71 53.9333 565.278L86.0334 620.574Z" fill="#6500AC"/>
<path d="M86.0334 689.624C88.6852 694.125 95.3148 694.125 97.9666 689.624L130.067 635.129C132.719 630.627 129.404 625 124.1 625H59.8999C54.5963 625 51.2815 630.627 53.9333 635.129L86.0334 689.624Z" fill="#6500AC"/>
<path d="M86.0334 758.624C88.6852 763.125 95.3148 763.125 97.9666 758.624L130.067 704.129C132.719 699.627 129.404 694 124.1 694H59.8999C54.5963 694 51.2815 699.627 53.9333 704.129L86.0334 758.624Z" fill="#6500AC"/>
<path d="M86.0334 828.574C88.6852 833.142 95.3148 833.142 97.9666 828.574L130.067 773.278C132.719 768.71 129.404 763 124.1 763H59.8999C54.5963 763 51.2815 768.71 53.9333 773.278L86.0334 828.574Z" fill="#6500AC"/>
<path d="M86.0334 897.624C88.6852 902.125 95.3148 902.125 97.9666 897.624L130.067 843.129C132.719 838.627 129.404 833 124.1 833H59.8999C54.5963 833 51.2815 838.627 53.9333 843.129L86.0334 897.624Z" fill="#6500AC"/>
<path d="M510.61 65.6236C513.228 70.1255 519.772 70.1255 522.39 65.6236L554.079 11.1291C556.696 6.62727 553.424 1 548.189 1H484.811C479.576 1 476.304 6.62728 478.921 11.1291L510.61 65.6236Z" fill="#6500AC"/>
<path d="M510.61 135.574C513.228 140.142 519.772 140.142 522.39 135.574L554.079 80.2781C556.696 75.71 553.424 70 548.189 70H484.811C479.576 70 476.304 75.71 478.921 80.2781L510.61 135.574Z" fill="#6500AC"/>
<path d="M510.61 204.624C513.228 209.125 519.772 209.125 522.39 204.624L554.079 150.129C556.696 145.627 553.424 140 548.189 140H484.811C479.576 140 476.304 145.627 478.921 150.129L510.61 204.624Z" fill="#6500AC"/>
<path d="M510.61 273.624C513.228 278.125 519.772 278.125 522.39 273.624L554.079 219.129C556.696 214.627 553.424 209 548.189 209H484.811C479.576 209 476.304 214.627 478.921 219.129L510.61 273.624Z" fill="#6500AC"/>
<path d="M510.61 343.574C513.228 348.142 519.772 348.142 522.39 343.574L554.079 288.278C556.696 283.71 553.424 278 548.189 278H484.811C479.576 278 476.304 283.71 478.921 288.278L510.61 343.574Z" fill="#6500AC"/>
<path d="M510.61 412.624C513.228 417.125 519.772 417.125 522.39 412.624L554.079 358.129C556.696 353.627 553.424 348 548.189 348H484.811C479.576 348 476.304 353.627 478.921 358.129L510.61 412.624Z" fill="#6500AC"/>
<path d="M510.61 481.624C513.228 486.125 519.772 486.125 522.39 481.624L554.079 427.129C556.696 422.627 553.424 417 548.189 417H484.811C479.576 417 476.304 422.627 478.921 427.129L510.61 481.624Z" fill="#6500AC"/>
<path d="M510.61 550.624C513.228 555.125 519.772 555.125 522.39 550.624L554.079 496.129C556.696 491.627 553.424 486 548.189 486H484.811C479.576 486 476.304 491.627 478.921 496.129L510.61 550.624Z" fill="#6500AC"/>
<path d="M510.61 620.574C513.228 625.142 519.772 625.142 522.39 620.574L554.079 565.278C556.696 560.71 553.424 555 548.189 555H484.811C479.576 555 476.304 560.71 478.921 565.278L510.61 620.574Z" fill="#6500AC"/>
<path d="M510.61 689.624C513.228 694.125 519.772 694.125 522.39 689.624L554.079 635.129C556.696 630.627 553.424 625 548.189 625H484.811C479.576 625 476.304 630.627 478.921 635.129L510.61 689.624Z" fill="#6500AC"/>
<path d="M510.61 758.624C513.228 763.125 519.772 763.125 522.39 758.624L554.079 704.129C556.696 699.627 553.424 694 548.189 694H484.811C479.576 694 476.304 699.627 478.921 704.129L510.61 758.624Z" fill="#6500AC"/>
<path d="M510.61 828.574C513.228 833.142 519.772 833.142 522.39 828.574L554.079 773.278C556.696 768.71 553.424 763 548.189 763H484.811C479.576 763 476.304 768.71 478.921 773.278L510.61 828.574Z" fill="#6500AC"/>
<path d="M510.61 897.624C513.228 902.125 519.772 902.125 522.39 897.624L554.079 843.129C556.696 838.627 553.424 833 548.189 833H484.811C479.576 833 476.304 838.627 478.921 843.129L510.61 897.624Z" fill="#6500AC"/>
<path d="M298.033 65.6236C300.685 70.1255 307.315 70.1255 309.967 65.6236L342.067 11.1291C344.718 6.62727 341.404 1 336.1 1H271.9C266.596 1 263.282 6.62728 265.933 11.1291L298.033 65.6236Z" fill="#6500AC"/>
<path d="M298.033 135.574C300.685 140.142 307.315 140.142 309.967 135.574L342.067 80.2781C344.718 75.71 341.404 70 336.1 70H271.9C266.596 70 263.282 75.71 265.933 80.2781L298.033 135.574Z" fill="#6500AC"/>
<path d="M298.033 204.624C300.685 209.125 307.315 209.125 309.967 204.624L342.067 150.129C344.718 145.627 341.404 140 336.1 140H271.9C266.596 140 263.282 145.627 265.933 150.129L298.033 204.624Z" fill="#6500AC"/>
<path d="M298.033 273.624C300.685 278.125 307.315 278.125 309.967 273.624L342.067 219.129C344.718 214.627 341.404 209 336.1 209H271.9C266.596 209 263.282 214.627 265.933 219.129L298.033 273.624Z" fill="#6500AC"/>
<path d="M298.033 343.574C300.685 348.142 307.315 348.142 309.967 343.574L342.067 288.278C344.718 283.71 341.404 278 336.1 278H271.9C266.596 278 263.282 283.71 265.933 288.278L298.033 343.574Z" fill="#6500AC"/>
<path d="M298.033 412.624C300.685 417.125 307.315 417.125 309.967 412.624L342.067 358.129C344.718 353.627 341.404 348 336.1 348H271.9C266.596 348 263.282 353.627 265.933 358.129L298.033 412.624Z" fill="#6500AC"/>
<path d="M298.033 481.624C300.685 486.125 307.315 486.125 309.967 481.624L342.067 427.129C344.718 422.627 341.404 417 336.1 417H271.9C266.596 417 263.282 422.627 265.933 427.129L298.033 481.624Z" fill="#6500AC"/>
<path d="M298.033 550.624C300.685 555.125 307.315 555.125 309.967 550.624L342.067 496.129C344.718 491.627 341.404 486 336.1 486H271.9C266.596 486 263.282 491.627 265.933 496.129L298.033 550.624Z" fill="#6500AC"/>
<path d="M298.033 620.574C300.685 625.142 307.315 625.142 309.967 620.574L342.067 565.278C344.718 560.71 341.404 555 336.1 555H271.9C266.596 555 263.282 560.71 265.933 565.278L298.033 620.574Z" fill="#6500AC"/>
<path d="M298.033 689.624C300.685 694.125 307.315 694.125 309.967 689.624L342.067 635.129C344.718 630.627 341.404 625 336.1 625H271.9C266.596 625 263.282 630.627 265.933 635.129L298.033 689.624Z" fill="#6500AC"/>
<path d="M298.033 758.624C300.685 763.125 307.315 763.125 309.967 758.624L342.067 704.129C344.718 699.627 341.404 694 336.1 694H271.9C266.596 694 263.282 699.627 265.933 704.129L298.033 758.624Z" fill="#6500AC"/>
<path d="M298.033 828.574C300.685 833.142 307.315 833.142 309.967 828.574L342.067 773.278C344.718 768.71 341.404 763 336.1 763H271.9C266.596 763 263.282 768.71 265.933 773.278L298.033 828.574Z" fill="#6500AC"/>
<path d="M298.033 897.624C300.685 902.125 307.315 902.125 309.967 897.624L342.067 843.129C344.718 838.627 341.404 833 336.1 833H271.9C266.596 833 263.282 838.627 265.933 843.129L298.033 897.624Z" fill="#6500AC"/>
<path d="M723.61 65.6236C726.228 70.1255 732.772 70.1255 735.39 65.6236L767.079 11.1291C769.696 6.62727 766.424 1 761.189 1H697.811C692.576 1 689.304 6.62728 691.921 11.1291L723.61 65.6236Z" fill="#6500AC"/>
<path d="M723.61 135.574C726.228 140.142 732.772 140.142 735.39 135.574L767.079 80.2781C769.696 75.71 766.424 70 761.189 70H697.811C692.576 70 689.304 75.71 691.921 80.2781L723.61 135.574Z" fill="#6500AC"/>
<path d="M723.61 204.624C726.228 209.125 732.772 209.125 735.39 204.624L767.079 150.129C769.696 145.627 766.424 140 761.189 140H697.811C692.576 140 689.304 145.627 691.921 150.129L723.61 204.624Z" fill="#6500AC"/>
<path d="M723.61 273.624C726.228 278.125 732.772 278.125 735.39 273.624L767.079 219.129C769.696 214.627 766.424 209 761.189 209H697.811C692.576 209 689.304 214.627 691.921 219.129L723.61 273.624Z" fill="#6500AC"/>
<path d="M723.61 343.574C726.228 348.142 732.772 348.142 735.39 343.574L767.079 288.278C769.696 283.71 766.424 278 761.189 278H697.811C692.576 278 689.304 283.71 691.921 288.278L723.61 343.574Z" fill="#6500AC"/>
<path d="M723.61 412.624C726.228 417.125 732.772 417.125 735.39 412.624L767.079 358.129C769.696 353.627 766.424 348 761.189 348H697.811C692.576 348 689.304 353.627 691.921 358.129L723.61 412.624Z" fill="#6500AC"/>
<path d="M723.61 481.624C726.228 486.125 732.772 486.125 735.39 481.624L767.079 427.129C769.696 422.627 766.424 417 761.189 417H697.811C692.576 417 689.304 422.627 691.921 427.129L723.61 481.624Z" fill="#6500AC"/>
<path d="M723.61 550.624C726.228 555.125 732.772 555.125 735.39 550.624L767.079 496.129C769.696 491.627 766.424 486 761.189 486H697.811C692.576 486 689.304 491.627 691.921 496.129L723.61 550.624Z" fill="#6500AC"/>
<path d="M723.61 620.574C726.228 625.142 732.772 625.142 735.39 620.574L767.079 565.278C769.696 560.71 766.424 555 761.189 555H697.811C692.576 555 689.304 560.71 691.921 565.278L723.61 620.574Z" fill="#6500AC"/>
<path d="M723.61 689.624C726.228 694.125 732.772 694.125 735.39 689.624L767.079 635.129C769.696 630.627 766.424 625 761.189 625H697.811C692.576 625 689.304 630.627 691.921 635.129L723.61 689.624Z" fill="#6500AC"/>
<path d="M723.61 758.624C726.228 763.125 732.772 763.125 735.39 758.624L767.079 704.129C769.696 699.627 766.424 694 761.189 694H697.811C692.576 694 689.304 699.627 691.921 704.129L723.61 758.624Z" fill="#6500AC"/>
<path d="M723.61 828.574C726.228 833.142 732.772 833.142 735.39 828.574L767.079 773.278C769.696 768.71 766.424 763 761.189 763H697.811C692.576 763 689.304 768.71 691.921 773.278L723.61 828.574Z" fill="#6500AC"/>
<path d="M723.61 897.624C726.228 902.125 732.772 902.125 735.39 897.624L767.079 843.129C769.696 838.627 766.424 833 761.189 833H697.811C692.576 833 689.304 838.627 691.921 843.129L723.61 897.624Z" fill="#6500AC"/>
<path d="M1042.61 65.6236C1045.23 70.1255 1051.77 70.1255 1054.39 65.6236L1086.08 11.1291C1088.7 6.62727 1085.42 1 1080.19 1H1016.81C1011.58 1 1008.3 6.62728 1010.92 11.1291L1042.61 65.6236Z" fill="#6500AC"/>
<path d="M1468.61 64.6236C1471.23 69.1255 1477.77 69.1255 1480.39 64.6236L1512.08 10.1291C1514.7 5.62727 1511.42 1.98931e-06 1506.19 1.98931e-06H1442.81C1437.58 1.98931e-06 1434.3 5.62728 1436.92 10.1291L1468.61 64.6236Z" fill="#6500AC"/>
<path d="M1042.61 135.574C1045.23 140.142 1051.77 140.142 1054.39 135.574L1086.08 80.2781C1088.7 75.71 1085.42 70 1080.19 70H1016.81C1011.58 70 1008.3 75.71 1010.92 80.2781L1042.61 135.574Z" fill="#6500AC"/>
<path d="M1468.61 134.574C1471.23 139.142 1477.77 139.142 1480.39 134.574L1512.08 79.2781C1514.7 74.71 1511.42 69 1506.19 69H1442.81C1437.58 69 1434.3 74.71 1436.92 79.2781L1468.61 134.574Z" fill="#6500AC"/>
<path d="M1042.61 204.624C1045.23 209.125 1051.77 209.125 1054.39 204.624L1086.08 150.129C1088.7 145.627 1085.42 140 1080.19 140H1016.81C1011.58 140 1008.3 145.627 1010.92 150.129L1042.61 204.624Z" fill="#6500AC"/>
<path d="M1468.61 203.624C1471.23 208.125 1477.77 208.125 1480.39 203.624L1512.08 149.129C1514.7 144.627 1511.42 139 1506.19 139H1442.81C1437.58 139 1434.3 144.627 1436.92 149.129L1468.61 203.624Z" fill="#6500AC"/>
<path d="M1042.61 273.624C1045.23 278.125 1051.77 278.125 1054.39 273.624L1086.08 219.129C1088.7 214.627 1085.42 209 1080.19 209H1016.81C1011.58 209 1008.3 214.627 1010.92 219.129L1042.61 273.624Z" fill="#6500AC"/>
<path d="M1468.61 272.624C1471.23 277.125 1477.77 277.125 1480.39 272.624L1512.08 218.129C1514.7 213.627 1511.42 208 1506.19 208H1442.81C1437.58 208 1434.3 213.627 1436.92 218.129L1468.61 272.624Z" fill="#6500AC"/>
<path d="M1042.61 343.574C1045.23 348.142 1051.77 348.142 1054.39 343.574L1086.08 288.278C1088.7 283.71 1085.42 278 1080.19 278H1016.81C1011.58 278 1008.3 283.71 1010.92 288.278L1042.61 343.574Z" fill="#6500AC"/>
<path d="M1468.61 342.574C1471.23 347.142 1477.77 347.142 1480.39 342.574L1512.08 287.278C1514.7 282.71 1511.42 277 1506.19 277H1442.81C1437.58 277 1434.3 282.71 1436.92 287.278L1468.61 342.574Z" fill="#6500AC"/>
<path d="M1042.61 412.624C1045.23 417.125 1051.77 417.125 1054.39 412.624L1086.08 358.129C1088.7 353.627 1085.42 348 1080.19 348H1016.81C1011.58 348 1008.3 353.627 1010.92 358.129L1042.61 412.624Z" fill="#6500AC"/>
<path d="M1468.61 411.624C1471.23 416.125 1477.77 416.125 1480.39 411.624L1512.08 357.129C1514.7 352.627 1511.42 347 1506.19 347H1442.81C1437.58 347 1434.3 352.627 1436.92 357.129L1468.61 411.624Z" fill="#6500AC"/>
<path d="M1042.61 481.624C1045.23 486.125 1051.77 486.125 1054.39 481.624L1086.08 427.129C1088.7 422.627 1085.42 417 1080.19 417H1016.81C1011.58 417 1008.3 422.627 1010.92 427.129L1042.61 481.624Z" fill="#6500AC"/>
<path d="M1468.61 480.624C1471.23 485.125 1477.77 485.125 1480.39 480.624L1512.08 426.129C1514.7 421.627 1511.42 416 1506.19 416H1442.81C1437.58 416 1434.3 421.627 1436.92 426.129L1468.61 480.624Z" fill="#6500AC"/>
<path d="M1042.61 550.624C1045.23 555.125 1051.77 555.125 1054.39 550.624L1086.08 496.129C1088.7 491.627 1085.42 486 1080.19 486H1016.81C1011.58 486 1008.3 491.627 1010.92 496.129L1042.61 550.624Z" fill="#6500AC"/>
<path d="M1468.61 549.624C1471.23 554.125 1477.77 554.125 1480.39 549.624L1512.08 495.129C1514.7 490.627 1511.42 485 1506.19 485H1442.81C1437.58 485 1434.3 490.627 1436.92 495.129L1468.61 549.624Z" fill="#6500AC"/>
<path d="M1042.61 620.574C1045.23 625.142 1051.77 625.142 1054.39 620.574L1086.08 565.278C1088.7 560.71 1085.42 555 1080.19 555H1016.81C1011.58 555 1008.3 560.71 1010.92 565.278L1042.61 620.574Z" fill="#6500AC"/>
<path d="M1468.61 619.574C1471.23 624.142 1477.77 624.142 1480.39 619.574L1512.08 564.278C1514.7 559.71 1511.42 554 1506.19 554H1442.81C1437.58 554 1434.3 559.71 1436.92 564.278L1468.61 619.574Z" fill="#6500AC"/>
<path d="M1042.61 689.624C1045.23 694.125 1051.77 694.125 1054.39 689.624L1086.08 635.129C1088.7 630.627 1085.42 625 1080.19 625H1016.81C1011.58 625 1008.3 630.627 1010.92 635.129L1042.61 689.624Z" fill="#6500AC"/>
<path d="M1468.61 688.624C1471.23 693.125 1477.77 693.125 1480.39 688.624L1512.08 634.129C1514.7 629.627 1511.42 624 1506.19 624H1442.81C1437.58 624 1434.3 629.627 1436.92 634.129L1468.61 688.624Z" fill="#6500AC"/>
<path d="M1042.61 758.624C1045.23 763.125 1051.77 763.125 1054.39 758.624L1086.08 704.129C1088.7 699.627 1085.42 694 1080.19 694H1016.81C1011.58 694 1008.3 699.627 1010.92 704.129L1042.61 758.624Z" fill="#6500AC"/>
<path d="M1468.61 757.624C1471.23 762.125 1477.77 762.125 1480.39 757.624L1512.08 703.129C1514.7 698.627 1511.42 693 1506.19 693H1442.81C1437.58 693 1434.3 698.627 1436.92 703.129L1468.61 757.624Z" fill="#6500AC"/>
<path d="M1042.61 828.574C1045.23 833.142 1051.77 833.142 1054.39 828.574L1086.08 773.278C1088.7 768.71 1085.42 763 1080.19 763H1016.81C1011.58 763 1008.3 768.71 1010.92 773.278L1042.61 828.574Z" fill="#6500AC"/>
<path d="M1468.61 827.574C1471.23 832.142 1477.77 832.142 1480.39 827.574L1512.08 772.278C1514.7 767.71 1511.42 762 1506.19 762H1442.81C1437.58 762 1434.3 767.71 1436.92 772.278L1468.61 827.574Z" fill="#6500AC"/>
<path d="M1042.61 897.624C1045.23 902.125 1051.77 902.125 1054.39 897.624L1086.08 843.129C1088.7 838.627 1085.42 833 1080.19 833H1016.81C1011.58 833 1008.3 838.627 1010.92 843.129L1042.61 897.624Z" fill="#6500AC"/>
<path d="M1468.61 896.624C1471.23 901.125 1477.77 901.125 1480.39 896.624L1512.08 842.129C1514.7 837.627 1511.42 832 1506.19 832H1442.81C1437.58 832 1434.3 837.627 1436.92 842.129L1468.61 896.624Z" fill="#6500AC"/>
<path d="M192.033 66.574C194.685 71.142 201.315 71.142 203.967 66.574L236.067 11.278C238.719 6.71003 235.404 1 230.1 1H165.9C160.596 1 157.281 6.71003 159.933 11.2781L192.033 66.574Z" fill="#6500AC"/>
<path d="M192.033 136.524C194.685 141.159 201.315 141.159 203.967 136.524L236.067 80.427C238.719 75.7928 235.404 70 230.1 70H165.9C160.596 70 157.281 75.7928 159.933 80.427L192.033 136.524Z" fill="#6500AC"/>
<path d="M192.033 205.574C194.685 210.142 201.315 210.142 203.967 205.574L236.067 150.278C238.719 145.71 235.404 140 230.1 140H165.9C160.596 140 157.281 145.71 159.933 150.278L192.033 205.574Z" fill="#6500AC"/>
<path d="M192.033 274.574C194.685 279.142 201.315 279.142 203.967 274.574L236.067 219.278C238.719 214.71 235.404 209 230.1 209H165.9C160.596 209 157.281 214.71 159.933 219.278L192.033 274.574Z" fill="#6500AC"/>
<path d="M192.033 344.524C194.685 349.159 201.315 349.159 203.967 344.524L236.067 288.427C238.719 283.793 235.404 278 230.1 278H165.9C160.596 278 157.281 283.793 159.933 288.427L192.033 344.524Z" fill="#6500AC"/>
<path d="M192.033 413.574C194.685 418.142 201.315 418.142 203.967 413.574L236.067 358.278C238.719 353.71 235.404 348 230.1 348H165.9C160.596 348 157.281 353.71 159.933 358.278L192.033 413.574Z" fill="#6500AC"/>
<path d="M192.033 482.574C194.685 487.142 201.315 487.142 203.967 482.574L236.067 427.278C238.719 422.71 235.404 417 230.1 417H165.9C160.596 417 157.281 422.71 159.933 427.278L192.033 482.574Z" fill="#6500AC"/>
<path d="M192.033 551.574C194.685 556.142 201.315 556.142 203.967 551.574L236.067 496.278C238.719 491.71 235.404 486 230.1 486H165.9C160.596 486 157.281 491.71 159.933 496.278L192.033 551.574Z" fill="#6500AC"/>
<path d="M192.033 621.524C194.685 626.159 201.315 626.159 203.967 621.524L236.067 565.427C238.719 560.793 235.404 555 230.1 555H165.9C160.596 555 157.281 560.793 159.933 565.427L192.033 621.524Z" fill="#6500AC"/>
<path d="M192.033 690.574C194.685 695.142 201.315 695.142 203.967 690.574L236.067 635.278C238.719 630.71 235.404 625 230.1 625H165.9C160.596 625 157.281 630.71 159.933 635.278L192.033 690.574Z" fill="#6500AC"/>
<path d="M192.033 759.574C194.685 764.142 201.315 764.142 203.967 759.574L236.067 704.278C238.719 699.71 235.404 694 230.1 694H165.9C160.596 694 157.281 699.71 159.933 704.278L192.033 759.574Z" fill="#6500AC"/>
<path d="M192.033 829.524C194.685 834.159 201.315 834.159 203.967 829.524L236.067 773.427C238.719 768.793 235.404 763 230.1 763H165.9C160.596 763 157.281 768.793 159.933 773.427L192.033 829.524Z" fill="#6500AC"/>
<path d="M192.033 898.574C194.685 903.142 201.315 903.142 203.967 898.574L236.067 843.278C238.719 838.71 235.404 833 230.1 833H165.9C160.596 833 157.281 838.71 159.933 843.278L192.033 898.574Z" fill="#6500AC"/>
<path d="M617.61 66.574C620.228 71.142 626.772 71.142 629.39 66.574L661.079 11.278C663.696 6.71002 660.424 1 655.189 1H591.811C586.576 1 583.304 6.71003 585.921 11.2781L617.61 66.574Z" fill="#6500AC"/>
<path d="M617.61 136.524C620.228 141.159 626.772 141.159 629.39 136.524L661.079 80.427C663.696 75.7928 660.424 70 655.189 70H591.811C586.576 70 583.304 75.7928 585.921 80.427L617.61 136.524Z" fill="#6500AC"/>
<path d="M617.61 205.574C620.228 210.142 626.772 210.142 629.39 205.574L661.079 150.278C663.696 145.71 660.424 140 655.189 140H591.811C586.576 140 583.304 145.71 585.921 150.278L617.61 205.574Z" fill="#6500AC"/>
<path d="M617.61 274.574C620.228 279.142 626.772 279.142 629.39 274.574L661.079 219.278C663.696 214.71 660.424 209 655.189 209H591.811C586.576 209 583.304 214.71 585.921 219.278L617.61 274.574Z" fill="#6500AC"/>
<path d="M617.61 344.524C620.228 349.159 626.772 349.159 629.39 344.524L661.079 288.427C663.696 283.793 660.424 278 655.189 278H591.811C586.576 278 583.304 283.793 585.921 288.427L617.61 344.524Z" fill="#6500AC"/>
<path d="M617.61 413.574C620.228 418.142 626.772 418.142 629.39 413.574L661.079 358.278C663.696 353.71 660.424 348 655.189 348H591.811C586.576 348 583.304 353.71 585.921 358.278L617.61 413.574Z" fill="#6500AC"/>
<path d="M617.61 482.574C620.228 487.142 626.772 487.142 629.39 482.574L661.079 427.278C663.696 422.71 660.424 417 655.189 417H591.811C586.576 417 583.304 422.71 585.921 427.278L617.61 482.574Z" fill="#6500AC"/>
<path d="M617.61 551.574C620.228 556.142 626.772 556.142 629.39 551.574L661.079 496.278C663.696 491.71 660.424 486 655.189 486H591.811C586.576 486 583.304 491.71 585.921 496.278L617.61 551.574Z" fill="#6500AC"/>
<path d="M617.61 621.524C620.228 626.159 626.772 626.159 629.39 621.524L661.079 565.427C663.696 560.793 660.424 555 655.189 555H591.811C586.576 555 583.304 560.793 585.921 565.427L617.61 621.524Z" fill="#6500AC"/>
<path d="M617.61 690.574C620.228 695.142 626.772 695.142 629.39 690.574L661.079 635.278C663.696 630.71 660.424 625 655.189 625H591.811C586.576 625 583.304 630.71 585.921 635.278L617.61 690.574Z" fill="#6500AC"/>
<path d="M617.61 759.574C620.228 764.142 626.772 764.142 629.39 759.574L661.079 704.278C663.696 699.71 660.424 694 655.189 694H591.811C586.576 694 583.304 699.71 585.921 704.278L617.61 759.574Z" fill="#6500AC"/>
<path d="M617.61 829.524C620.228 834.159 626.772 834.159 629.39 829.524L661.079 773.427C663.696 768.793 660.424 763 655.189 763H591.811C586.576 763 583.304 768.793 585.921 773.427L617.61 829.524Z" fill="#6500AC"/>
<path d="M617.61 898.574C620.228 903.142 626.772 903.142 629.39 898.574L661.079 843.278C663.696 838.71 660.424 833 655.189 833H591.811C586.576 833 583.304 838.71 585.921 843.278L617.61 898.574Z" fill="#6500AC"/>
<path d="M936.61 66.574C939.228 71.142 945.772 71.142 948.39 66.574L980.079 11.278C982.696 6.71003 979.424 1 974.189 1H910.811C905.576 1 902.304 6.71003 904.921 11.2781L936.61 66.574Z" fill="#6500AC"/>
<path d="M1362.61 65.574C1365.23 70.142 1371.77 70.142 1374.39 65.574L1406.08 10.278C1408.7 5.71003 1405.42 0 1400.19 0H1336.81C1331.58 0 1328.3 5.71003 1330.92 10.2781L1362.61 65.574Z" fill="#6500AC"/>
<path d="M936.61 136.524C939.228 141.159 945.772 141.159 948.39 136.524L980.079 80.427C982.696 75.7928 979.424 70 974.189 70H910.811C905.576 70 902.304 75.7928 904.921 80.427L936.61 136.524Z" fill="#6500AC"/>
<path d="M1362.61 135.524C1365.23 140.159 1371.77 140.159 1374.39 135.524L1406.08 79.427C1408.7 74.7928 1405.42 69 1400.19 69H1336.81C1331.58 69 1328.3 74.7928 1330.92 79.427L1362.61 135.524Z" fill="#6500AC"/>
<path d="M936.61 205.574C939.228 210.142 945.772 210.142 948.39 205.574L980.079 150.278C982.696 145.71 979.424 140 974.189 140H910.811C905.576 140 902.304 145.71 904.921 150.278L936.61 205.574Z" fill="#6500AC"/>
<path d="M1362.61 204.574C1365.23 209.142 1371.77 209.142 1374.39 204.574L1406.08 149.278C1408.7 144.71 1405.42 139 1400.19 139H1336.81C1331.58 139 1328.3 144.71 1330.92 149.278L1362.61 204.574Z" fill="#6500AC"/>
<path d="M936.61 274.574C939.228 279.142 945.772 279.142 948.39 274.574L980.079 219.278C982.696 214.71 979.424 209 974.189 209H910.811C905.576 209 902.304 214.71 904.921 219.278L936.61 274.574Z" fill="#6500AC"/>
<path d="M1362.61 273.574C1365.23 278.142 1371.77 278.142 1374.39 273.574L1406.08 218.278C1408.7 213.71 1405.42 208 1400.19 208H1336.81C1331.58 208 1328.3 213.71 1330.92 218.278L1362.61 273.574Z" fill="#6500AC"/>
<path d="M936.61 344.524C939.228 349.159 945.772 349.159 948.39 344.524L980.079 288.427C982.696 283.793 979.424 278 974.189 278H910.811C905.576 278 902.304 283.793 904.921 288.427L936.61 344.524Z" fill="#6500AC"/>
<path d="M1362.61 343.524C1365.23 348.159 1371.77 348.159 1374.39 343.524L1406.08 287.427C1408.7 282.793 1405.42 277 1400.19 277H1336.81C1331.58 277 1328.3 282.793 1330.92 287.427L1362.61 343.524Z" fill="#6500AC"/>
<path d="M936.61 413.574C939.228 418.142 945.772 418.142 948.39 413.574L980.079 358.278C982.696 353.71 979.424 348 974.189 348H910.811C905.576 348 902.304 353.71 904.921 358.278L936.61 413.574Z" fill="#6500AC"/>
<path d="M1362.61 412.574C1365.23 417.142 1371.77 417.142 1374.39 412.574L1406.08 357.278C1408.7 352.71 1405.42 347 1400.19 347H1336.81C1331.58 347 1328.3 352.71 1330.92 357.278L1362.61 412.574Z" fill="#6500AC"/>
<path d="M936.61 482.574C939.228 487.142 945.772 487.142 948.39 482.574L980.079 427.278C982.696 422.71 979.424 417 974.189 417H910.811C905.576 417 902.304 422.71 904.921 427.278L936.61 482.574Z" fill="#6500AC"/>
<path d="M1362.61 481.574C1365.23 486.142 1371.77 486.142 1374.39 481.574L1406.08 426.278C1408.7 421.71 1405.42 416 1400.19 416H1336.81C1331.58 416 1328.3 421.71 1330.92 426.278L1362.61 481.574Z" fill="#6500AC"/>
<path d="M936.61 551.574C939.228 556.142 945.772 556.142 948.39 551.574L980.079 496.278C982.696 491.71 979.424 486 974.189 486H910.811C905.576 486 902.304 491.71 904.921 496.278L936.61 551.574Z" fill="#6500AC"/>
<path d="M1362.61 550.574C1365.23 555.142 1371.77 555.142 1374.39 550.574L1406.08 495.278C1408.7 490.71 1405.42 485 1400.19 485H1336.81C1331.58 485 1328.3 490.71 1330.92 495.278L1362.61 550.574Z" fill="#6500AC"/>
<path d="M936.61 621.524C939.228 626.159 945.772 626.159 948.39 621.524L980.079 565.427C982.696 560.793 979.424 555 974.189 555H910.811C905.576 555 902.304 560.793 904.921 565.427L936.61 621.524Z" fill="#6500AC"/>
<path d="M1362.61 620.524C1365.23 625.159 1371.77 625.159 1374.39 620.524L1406.08 564.427C1408.7 559.793 1405.42 554 1400.19 554H1336.81C1331.58 554 1328.3 559.793 1330.92 564.427L1362.61 620.524Z" fill="#6500AC"/>
<path d="M936.61 690.574C939.228 695.142 945.772 695.142 948.39 690.574L980.079 635.278C982.696 630.71 979.424 625 974.189 625H910.811C905.576 625 902.304 630.71 904.921 635.278L936.61 690.574Z" fill="#6500AC"/>
<path d="M1362.61 689.574C1365.23 694.142 1371.77 694.142 1374.39 689.574L1406.08 634.278C1408.7 629.71 1405.42 624 1400.19 624H1336.81C1331.58 624 1328.3 629.71 1330.92 634.278L1362.61 689.574Z" fill="#6500AC"/>
<path d="M936.61 759.574C939.228 764.142 945.772 764.142 948.39 759.574L980.079 704.278C982.696 699.71 979.424 694 974.189 694H910.811C905.576 694 902.304 699.71 904.921 704.278L936.61 759.574Z" fill="#6500AC"/>
<path d="M1362.61 758.574C1365.23 763.142 1371.77 763.142 1374.39 758.574L1406.08 703.278C1408.7 698.71 1405.42 693 1400.19 693H1336.81C1331.58 693 1328.3 698.71 1330.92 703.278L1362.61 758.574Z" fill="#6500AC"/>
<path d="M936.61 829.524C939.228 834.159 945.772 834.159 948.39 829.524L980.079 773.427C982.696 768.793 979.424 763 974.189 763H910.811C905.576 763 902.304 768.793 904.921 773.427L936.61 829.524Z" fill="#6500AC"/>
<path d="M1362.61 828.524C1365.23 833.159 1371.77 833.159 1374.39 828.524L1406.08 772.427C1408.7 767.793 1405.42 762 1400.19 762H1336.81C1331.58 762 1328.3 767.793 1330.92 772.427L1362.61 828.524Z" fill="#6500AC"/>
<path d="M936.61 898.574C939.228 903.142 945.772 903.142 948.39 898.574L980.079 843.278C982.696 838.71 979.424 833 974.189 833H910.811C905.576 833 902.304 838.71 904.921 843.278L936.61 898.574Z" fill="#6500AC"/>
<path d="M1362.61 897.574C1365.23 902.142 1371.77 902.142 1374.39 897.574L1406.08 842.278C1408.7 837.71 1405.42 832 1400.19 832H1336.81C1331.58 832 1328.3 837.71 1330.92 842.278L1362.61 897.574Z" fill="#6500AC"/>
<path d="M404.61 66.574C407.228 71.142 413.772 71.142 416.39 66.574L448.079 11.278C450.696 6.71003 447.424 1 442.189 1H378.811C373.576 1 370.304 6.71003 372.921 11.2781L404.61 66.574Z" fill="#6500AC"/>
<path d="M404.61 136.524C407.228 141.159 413.772 141.159 416.39 136.524L448.079 80.427C450.696 75.7928 447.424 70 442.189 70H378.811C373.576 70 370.304 75.7928 372.921 80.427L404.61 136.524Z" fill="#6500AC"/>
<path d="M404.61 205.574C407.228 210.142 413.772 210.142 416.39 205.574L448.079 150.278C450.696 145.71 447.424 140 442.189 140H378.811C373.576 140 370.304 145.71 372.921 150.278L404.61 205.574Z" fill="#6500AC"/>
<path d="M404.61 274.574C407.228 279.142 413.772 279.142 416.39 274.574L448.079 219.278C450.696 214.71 447.424 209 442.189 209H378.811C373.576 209 370.304 214.71 372.921 219.278L404.61 274.574Z" fill="#6500AC"/>
<path d="M404.61 344.524C407.228 349.159 413.772 349.159 416.39 344.524L448.079 288.427C450.696 283.793 447.424 278 442.189 278H378.811C373.576 278 370.304 283.793 372.921 288.427L404.61 344.524Z" fill="#6500AC"/>
<path d="M404.61 413.574C407.228 418.142 413.772 418.142 416.39 413.574L448.079 358.278C450.696 353.71 447.424 348 442.189 348H378.811C373.576 348 370.304 353.71 372.921 358.278L404.61 413.574Z" fill="#6500AC"/>
<path d="M404.61 482.574C407.228 487.142 413.772 487.142 416.39 482.574L448.079 427.278C450.696 422.71 447.424 417 442.189 417H378.811C373.576 417 370.304 422.71 372.921 427.278L404.61 482.574Z" fill="#6500AC"/>
<path d="M404.61 551.574C407.228 556.142 413.772 556.142 416.39 551.574L448.079 496.278C450.696 491.71 447.424 486 442.189 486H378.811C373.576 486 370.304 491.71 372.921 496.278L404.61 551.574Z" fill="#6500AC"/>
<path d="M404.61 621.524C407.228 626.159 413.772 626.159 416.39 621.524L448.079 565.427C450.696 560.793 447.424 555 442.189 555H378.811C373.576 555 370.304 560.793 372.921 565.427L404.61 621.524Z" fill="#6500AC"/>
<path d="M404.61 690.574C407.228 695.142 413.772 695.142 416.39 690.574L448.079 635.278C450.696 630.71 447.424 625 442.189 625H378.811C373.576 625 370.304 630.71 372.921 635.278L404.61 690.574Z" fill="#6500AC"/>
<path d="M404.61 759.574C407.228 764.142 413.772 764.142 416.39 759.574L448.079 704.278C450.696 699.71 447.424 694 442.189 694H378.811C373.576 694 370.304 699.71 372.921 704.278L404.61 759.574Z" fill="#6500AC"/>
<path d="M404.61 829.524C407.228 834.159 413.772 834.159 416.39 829.524L448.079 773.427C450.696 768.793 447.424 763 442.189 763H378.811C373.576 763 370.304 768.793 372.921 773.427L404.61 829.524Z" fill="#6500AC"/>
<path d="M404.61 898.574C407.228 903.142 413.772 903.142 416.39 898.574L448.079 843.278C450.696 838.71 447.424 833 442.189 833H378.811C373.576 833 370.304 838.71 372.921 843.278L404.61 898.574Z" fill="#6500AC"/>
<path d="M829.61 66.574C832.228 71.142 838.772 71.142 841.39 66.574L873.079 11.278C875.696 6.71003 872.424 1 867.189 1H803.811C798.576 1 795.304 6.71003 797.921 11.2781L829.61 66.574Z" fill="#6500AC"/>
<path d="M1255.61 65.574C1258.23 70.142 1264.77 70.142 1267.39 65.574L1299.08 10.278C1301.7 5.71003 1298.42 0 1293.19 0H1229.81C1224.58 0 1221.3 5.71003 1223.92 10.2781L1255.61 65.574Z" fill="#6500AC"/>
<path d="M829.61 136.524C832.228 141.159 838.772 141.159 841.39 136.524L873.079 80.427C875.696 75.7928 872.424 70 867.189 70H803.811C798.576 70 795.304 75.7928 797.921 80.427L829.61 136.524Z" fill="#6500AC"/>
<path d="M1255.61 135.524C1258.23 140.159 1264.77 140.159 1267.39 135.524L1299.08 79.427C1301.7 74.7928 1298.42 69 1293.19 69H1229.81C1224.58 69 1221.3 74.7928 1223.92 79.427L1255.61 135.524Z" fill="#6500AC"/>
<path d="M829.61 205.574C832.228 210.142 838.772 210.142 841.39 205.574L873.079 150.278C875.696 145.71 872.424 140 867.189 140H803.811C798.576 140 795.304 145.71 797.921 150.278L829.61 205.574Z" fill="#6500AC"/>
<path d="M1255.61 204.574C1258.23 209.142 1264.77 209.142 1267.39 204.574L1299.08 149.278C1301.7 144.71 1298.42 139 1293.19 139H1229.81C1224.58 139 1221.3 144.71 1223.92 149.278L1255.61 204.574Z" fill="#6500AC"/>
<path d="M829.61 274.574C832.228 279.142 838.772 279.142 841.39 274.574L873.079 219.278C875.696 214.71 872.424 209 867.189 209H803.811C798.576 209 795.304 214.71 797.921 219.278L829.61 274.574Z" fill="#6500AC"/>
<path d="M1255.61 273.574C1258.23 278.142 1264.77 278.142 1267.39 273.574L1299.08 218.278C1301.7 213.71 1298.42 208 1293.19 208H1229.81C1224.58 208 1221.3 213.71 1223.92 218.278L1255.61 273.574Z" fill="#6500AC"/>
<path d="M829.61 344.524C832.228 349.159 838.772 349.159 841.39 344.524L873.079 288.427C875.696 283.793 872.424 278 867.189 278H803.811C798.576 278 795.304 283.793 797.921 288.427L829.61 344.524Z" fill="#6500AC"/>
<path d="M1255.61 343.524C1258.23 348.159 1264.77 348.159 1267.39 343.524L1299.08 287.427C1301.7 282.793 1298.42 277 1293.19 277H1229.81C1224.58 277 1221.3 282.793 1223.92 287.427L1255.61 343.524Z" fill="#6500AC"/>
<path d="M829.61 413.574C832.228 418.142 838.772 418.142 841.39 413.574L873.079 358.278C875.696 353.71 872.424 348 867.189 348H803.811C798.576 348 795.304 353.71 797.921 358.278L829.61 413.574Z" fill="#6500AC"/>
<path d="M1255.61 412.574C1258.23 417.142 1264.77 417.142 1267.39 412.574L1299.08 357.278C1301.7 352.71 1298.42 347 1293.19 347H1229.81C1224.58 347 1221.3 352.71 1223.92 357.278L1255.61 412.574Z" fill="#6500AC"/>
<path d="M829.61 482.574C832.228 487.142 838.772 487.142 841.39 482.574L873.079 427.278C875.696 422.71 872.424 417 867.189 417H803.811C798.576 417 795.304 422.71 797.921 427.278L829.61 482.574Z" fill="#6500AC"/>
<path d="M1255.61 481.574C1258.23 486.142 1264.77 486.142 1267.39 481.574L1299.08 426.278C1301.7 421.71 1298.42 416 1293.19 416H1229.81C1224.58 416 1221.3 421.71 1223.92 426.278L1255.61 481.574Z" fill="#6500AC"/>
<path d="M829.61 551.574C832.228 556.142 838.772 556.142 841.39 551.574L873.079 496.278C875.696 491.71 872.424 486 867.189 486H803.811C798.576 486 795.304 491.71 797.921 496.278L829.61 551.574Z" fill="#6500AC"/>
<path d="M1255.61 550.574C1258.23 555.142 1264.77 555.142 1267.39 550.574L1299.08 495.278C1301.7 490.71 1298.42 485 1293.19 485H1229.81C1224.58 485 1221.3 490.71 1223.92 495.278L1255.61 550.574Z" fill="#6500AC"/>
<path d="M829.61 621.524C832.228 626.159 838.772 626.159 841.39 621.524L873.079 565.427C875.696 560.793 872.424 555 867.189 555H803.811C798.576 555 795.304 560.793 797.921 565.427L829.61 621.524Z" fill="#6500AC"/>
<path d="M1255.61 620.524C1258.23 625.159 1264.77 625.159 1267.39 620.524L1299.08 564.427C1301.7 559.793 1298.42 554 1293.19 554H1229.81C1224.58 554 1221.3 559.793 1223.92 564.427L1255.61 620.524Z" fill="#6500AC"/>
<path d="M829.61 690.574C832.228 695.142 838.772 695.142 841.39 690.574L873.079 635.278C875.696 630.71 872.424 625 867.189 625H803.811C798.576 625 795.304 630.71 797.921 635.278L829.61 690.574Z" fill="#6500AC"/>
<path d="M1255.61 689.574C1258.23 694.142 1264.77 694.142 1267.39 689.574L1299.08 634.278C1301.7 629.71 1298.42 624 1293.19 624H1229.81C1224.58 624 1221.3 629.71 1223.92 634.278L1255.61 689.574Z" fill="#6500AC"/>
<path d="M829.61 759.574C832.228 764.142 838.772 764.142 841.39 759.574L873.079 704.278C875.696 699.71 872.424 694 867.189 694H803.811C798.576 694 795.304 699.71 797.921 704.278L829.61 759.574Z" fill="#6500AC"/>
<path d="M1255.61 758.574C1258.23 763.142 1264.77 763.142 1267.39 758.574L1299.08 703.278C1301.7 698.71 1298.42 693 1293.19 693H1229.81C1224.58 693 1221.3 698.71 1223.92 703.278L1255.61 758.574Z" fill="#6500AC"/>
<path d="M829.61 829.524C832.228 834.159 838.772 834.159 841.39 829.524L873.079 773.427C875.696 768.793 872.424 763 867.189 763H803.811C798.576 763 795.304 768.793 797.921 773.427L829.61 829.524Z" fill="#6500AC"/>
<path d="M1255.61 828.524C1258.23 833.159 1264.77 833.159 1267.39 828.524L1299.08 772.427C1301.7 767.793 1298.42 762 1293.19 762H1229.81C1224.58 762 1221.3 767.793 1223.92 772.427L1255.61 828.524Z" fill="#6500AC"/>
<path d="M829.61 898.574C832.228 903.142 838.772 903.142 841.39 898.574L873.079 843.278C875.696 838.71 872.424 833 867.189 833H803.811C798.576 833 795.304 838.71 797.921 843.278L829.61 898.574Z" fill="#6500AC"/>
<path d="M1255.61 897.574C1258.23 902.142 1264.77 902.142 1267.39 897.574L1299.08 842.278C1301.7 837.71 1298.42 832 1293.19 832H1229.81C1224.58 832 1221.3 837.71 1223.92 842.278L1255.61 897.574Z" fill="#6500AC"/>
<path d="M1148.61 66.574C1151.23 71.142 1157.77 71.142 1160.39 66.574L1192.08 11.278C1194.7 6.71003 1191.42 1 1186.19 1H1122.81C1117.58 1 1114.3 6.71003 1116.92 11.2781L1148.61 66.574Z" fill="#6500AC"/>
<path d="M1574.61 65.574C1577.23 70.142 1583.77 70.142 1586.39 65.574L1618.08 10.278C1620.7 5.71003 1617.42 0 1612.19 0H1548.81C1543.58 0 1540.3 5.71003 1542.92 10.2781L1574.61 65.574Z" fill="#6500AC"/>
<path d="M1148.61 136.524C1151.23 141.159 1157.77 141.159 1160.39 136.524L1192.08 80.427C1194.7 75.7928 1191.42 70 1186.19 70H1122.81C1117.58 70 1114.3 75.7928 1116.92 80.427L1148.61 136.524Z" fill="#6500AC"/>
<path d="M1574.61 135.524C1577.23 140.159 1583.77 140.159 1586.39 135.524L1618.08 79.427C1620.7 74.7928 1617.42 69 1612.19 69H1548.81C1543.58 69 1540.3 74.7928 1542.92 79.427L1574.61 135.524Z" fill="#6500AC"/>
<path d="M1148.61 205.574C1151.23 210.142 1157.77 210.142 1160.39 205.574L1192.08 150.278C1194.7 145.71 1191.42 140 1186.19 140H1122.81C1117.58 140 1114.3 145.71 1116.92 150.278L1148.61 205.574Z" fill="#6500AC"/>
<path d="M1574.61 204.574C1577.23 209.142 1583.77 209.142 1586.39 204.574L1618.08 149.278C1620.7 144.71 1617.42 139 1612.19 139H1548.81C1543.58 139 1540.3 144.71 1542.92 149.278L1574.61 204.574Z" fill="#6500AC"/>
<path d="M1148.61 274.574C1151.23 279.142 1157.77 279.142 1160.39 274.574L1192.08 219.278C1194.7 214.71 1191.42 209 1186.19 209H1122.81C1117.58 209 1114.3 214.71 1116.92 219.278L1148.61 274.574Z" fill="#6500AC"/>
<path d="M1574.61 273.574C1577.23 278.142 1583.77 278.142 1586.39 273.574L1618.08 218.278C1620.7 213.71 1617.42 208 1612.19 208H1548.81C1543.58 208 1540.3 213.71 1542.92 218.278L1574.61 273.574Z" fill="#6500AC"/>
<path d="M1148.61 344.524C1151.23 349.159 1157.77 349.159 1160.39 344.524L1192.08 288.427C1194.7 283.793 1191.42 278 1186.19 278H1122.81C1117.58 278 1114.3 283.793 1116.92 288.427L1148.61 344.524Z" fill="#6500AC"/>
<path d="M1574.61 343.524C1577.23 348.159 1583.77 348.159 1586.39 343.524L1618.08 287.427C1620.7 282.793 1617.42 277 1612.19 277H1548.81C1543.58 277 1540.3 282.793 1542.92 287.427L1574.61 343.524Z" fill="#6500AC"/>
<path d="M1148.61 413.574C1151.23 418.142 1157.77 418.142 1160.39 413.574L1192.08 358.278C1194.7 353.71 1191.42 348 1186.19 348H1122.81C1117.58 348 1114.3 353.71 1116.92 358.278L1148.61 413.574Z" fill="#6500AC"/>
<path d="M1574.61 412.574C1577.23 417.142 1583.77 417.142 1586.39 412.574L1618.08 357.278C1620.7 352.71 1617.42 347 1612.19 347H1548.81C1543.58 347 1540.3 352.71 1542.92 357.278L1574.61 412.574Z" fill="#6500AC"/>
<path d="M1148.61 482.574C1151.23 487.142 1157.77 487.142 1160.39 482.574L1192.08 427.278C1194.7 422.71 1191.42 417 1186.19 417H1122.81C1117.58 417 1114.3 422.71 1116.92 427.278L1148.61 482.574Z" fill="#6500AC"/>
<path d="M1574.61 481.574C1577.23 486.142 1583.77 486.142 1586.39 481.574L1618.08 426.278C1620.7 421.71 1617.42 416 1612.19 416H1548.81C1543.58 416 1540.3 421.71 1542.92 426.278L1574.61 481.574Z" fill="#6500AC"/>
<path d="M1148.61 551.574C1151.23 556.142 1157.77 556.142 1160.39 551.574L1192.08 496.278C1194.7 491.71 1191.42 486 1186.19 486H1122.81C1117.58 486 1114.3 491.71 1116.92 496.278L1148.61 551.574Z" fill="#6500AC"/>
<path d="M1574.61 550.574C1577.23 555.142 1583.77 555.142 1586.39 550.574L1618.08 495.278C1620.7 490.71 1617.42 485 1612.19 485H1548.81C1543.58 485 1540.3 490.71 1542.92 495.278L1574.61 550.574Z" fill="#6500AC"/>
<path d="M1148.61 621.524C1151.23 626.159 1157.77 626.159 1160.39 621.524L1192.08 565.427C1194.7 560.793 1191.42 555 1186.19 555H1122.81C1117.58 555 1114.3 560.793 1116.92 565.427L1148.61 621.524Z" fill="#6500AC"/>
<path d="M1574.61 620.524C1577.23 625.159 1583.77 625.159 1586.39 620.524L1618.08 564.427C1620.7 559.793 1617.42 554 1612.19 554H1548.81C1543.58 554 1540.3 559.793 1542.92 564.427L1574.61 620.524Z" fill="#6500AC"/>
<path d="M1148.61 690.574C1151.23 695.142 1157.77 695.142 1160.39 690.574L1192.08 635.278C1194.7 630.71 1191.42 625 1186.19 625H1122.81C1117.58 625 1114.3 630.71 1116.92 635.278L1148.61 690.574Z" fill="#6500AC"/>
<path d="M1574.61 689.574C1577.23 694.142 1583.77 694.142 1586.39 689.574L1618.08 634.278C1620.7 629.71 1617.42 624 1612.19 624H1548.81C1543.58 624 1540.3 629.71 1542.92 634.278L1574.61 689.574Z" fill="#6500AC"/>
<path d="M1148.61 759.574C1151.23 764.142 1157.77 764.142 1160.39 759.574L1192.08 704.278C1194.7 699.71 1191.42 694 1186.19 694H1122.81C1117.58 694 1114.3 699.71 1116.92 704.278L1148.61 759.574Z" fill="#6500AC"/>
<path d="M1574.61 758.574C1577.23 763.142 1583.77 763.142 1586.39 758.574L1618.08 703.278C1620.7 698.71 1617.42 693 1612.19 693H1548.81C1543.58 693 1540.3 698.71 1542.92 703.278L1574.61 758.574Z" fill="#6500AC"/>
<path d="M1148.61 829.524C1151.23 834.159 1157.77 834.159 1160.39 829.524L1192.08 773.427C1194.7 768.793 1191.42 763 1186.19 763H1122.81C1117.58 763 1114.3 768.793 1116.92 773.427L1148.61 829.524Z" fill="#6500AC"/>
<path d="M1574.61 828.524C1577.23 833.159 1583.77 833.159 1586.39 828.524L1618.08 772.427C1620.7 767.793 1617.42 762 1612.19 762H1548.81C1543.58 762 1540.3 767.793 1542.92 772.427L1574.61 828.524Z" fill="#6500AC"/>
<path d="M1148.61 898.574C1151.23 903.142 1157.77 903.142 1160.39 898.574L1192.08 843.278C1194.7 838.71 1191.42 833 1186.19 833H1122.81C1117.58 833 1114.3 838.71 1116.92 843.278L1148.61 898.574Z" fill="#6500AC"/>
<path d="M1574.61 897.574C1577.23 902.142 1583.77 902.142 1586.39 897.574L1618.08 842.278C1620.7 837.71 1617.42 832 1612.19 832H1548.81C1543.58 832 1540.3 837.71 1542.92 842.278L1574.61 897.574Z" fill="#6500AC"/>
</svg>
