<svg width="18" height="9" viewBox="0 0 18 9" fill="none" xmlns="http://www.w3.org/2000/svg">
<path fill-rule="evenodd" clip-rule="evenodd" d="M0 1C0 0.801088 0.0790175 0.610323 0.21967 0.46967C0.360322 0.329018 0.551088 0.25 0.75 0.25H17.25C17.4489 0.25 17.6397 0.329018 17.7803 0.46967C17.921 0.610323 18 0.801088 18 1C18 1.19891 17.921 1.38968 17.7803 1.53033C17.6397 1.67098 17.4489 1.75 17.25 1.75H0.75C0.551088 1.75 0.360322 1.67098 0.21967 1.53033C0.0790175 1.38968 0 1.19891 0 1ZM0 7.75C0 7.55109 0.0790175 7.36032 0.21967 7.21967C0.360322 7.07902 0.551088 7 0.75 7H17.25C17.4489 7 17.6397 7.07902 17.7803 7.21967C17.921 7.36032 18 7.55109 18 7.75C18 7.94891 17.921 8.13968 17.7803 8.28033C17.6397 8.42098 17.4489 8.5 17.25 8.5H0.75C0.551088 8.5 0.360322 8.42098 0.21967 8.28033C0.0790175 8.13968 0 7.94891 0 7.75Z" fill="#052F88"/>
</svg>
