<svg width="371" height="475" viewBox="0 0 371 475" fill="none" xmlns="http://www.w3.org/2000/svg">
<path d="M34.841 209.911C35.4125 210.684 36.8392 210.684 37.4107 209.911L44.3236 200.556C44.8951 199.783 44.1796 198.817 43.0387 198.817H29.2129C28.072 198.817 27.3565 199.783 27.9281 200.556L34.841 209.911Z" fill="#6500AC" fill-opacity="0.2"/>
<path d="M14.841 380.24C15.4125 381.013 16.8392 381.013 17.4107 380.24L24.3236 370.885C24.8951 370.112 24.1796 369.146 23.0387 369.146H9.21293C8.07205 369.146 7.35654 370.112 7.92807 370.885L14.841 380.24Z" fill="#6500AC" fill-opacity="0.2"/>
<path d="M42.8678 59.9134C43.4394 60.6749 44.866 60.6749 45.4376 59.9134L52.3505 50.6941C52.922 49.9324 52.2065 48.9805 51.0656 48.9805H37.2398C36.0989 48.9805 35.3834 49.9324 35.9549 50.6941L42.8678 59.9134Z" fill="#6500AC" fill-opacity="0.2"/>
<path d="M22.8678 230.242C23.4394 231.004 24.866 231.004 25.4376 230.242L32.3505 221.023C32.922 220.262 32.2065 219.31 31.0656 219.31H17.2398C16.0989 219.31 15.3834 220.262 15.9549 221.023L22.8678 230.242Z" fill="#6500AC" fill-opacity="0.2"/>
<path d="M371.068 180.059C371.639 180.82 373.066 180.82 373.637 180.059L380.55 170.84C381.122 170.078 380.406 169.126 379.265 169.126H365.439C364.299 169.126 363.583 170.078 364.155 170.84L371.068 180.059Z" fill="#6500AC" fill-opacity="0.2"/>
<path d="M351.068 350.388C351.639 351.149 353.066 351.149 353.637 350.388L360.55 341.169C361.122 340.407 360.406 339.455 359.265 339.455H345.439C344.299 339.455 343.583 340.407 344.155 341.169L351.068 350.388Z" fill="#6500AC" fill-opacity="0.2"/>
<path d="M27.7062 303.127C28.2777 303.9 29.7044 303.9 30.2759 303.127L37.1888 293.772C37.7603 292.999 37.0448 292.033 35.904 292.033H22.0782C20.9373 292.033 20.2218 292.999 20.7933 293.772L27.7062 303.127Z" fill="#6500AC" fill-opacity="0.2"/>
<path d="M7.7062 473.456C8.27774 474.229 9.70439 474.229 10.2759 473.456L17.1888 464.101C17.7603 463.328 17.0448 462.362 15.904 462.362H2.07816C0.937284 462.362 0.221776 463.328 0.793307 464.101L7.7062 473.456Z" fill="#6500AC" fill-opacity="0.2"/>
<path d="M255.127 11.5804C255.699 12.3418 257.125 12.3418 257.697 11.5804L264.61 2.36106C265.181 1.59942 264.466 0.647461 263.325 0.647461H249.499C248.358 0.647461 247.643 1.59942 248.214 2.36106L255.127 11.5804Z" fill="#6500AC" fill-opacity="0.2"/>
<path d="M235.127 181.909C235.699 182.671 237.125 182.671 237.697 181.909L244.61 172.69C245.181 171.929 244.466 170.977 243.325 170.977H229.499C228.358 170.977 227.643 171.929 228.214 172.69L235.127 181.909Z" fill="#6500AC" fill-opacity="0.2"/>
</svg>



