<svg width="93" height="24" viewBox="0 0 93 24" fill="none" xmlns="http://www.w3.org/2000/svg">
<g clip-path="url(#clip0_19408_1449)">
<path d="M32.1867 15.3168L35.1361 6.8291H37.4237L33.4534 17.2449H30.8821L26.9307 6.8291H29.2373L32.1867 15.3168Z" fill="black"/>
<path d="M47.9014 11.782C47.9014 12.1727 47.8762 12.5256 47.8257 12.8406H39.8662C39.9293 13.6724 40.2379 14.3403 40.7925 14.8444C41.3471 15.3485 42.0277 15.6005 42.8344 15.6005C43.994 15.6005 44.8133 15.1154 45.2923 14.145H47.6179C47.3028 15.1027 46.7292 15.8904 45.8973 16.5079C45.078 17.1128 44.057 17.4153 42.8344 17.4153C41.8386 17.4153 40.9437 17.1947 40.1497 16.7537C39.3682 16.3 38.7506 15.6699 38.2968 14.8633C37.8557 14.0442 37.6353 13.099 37.6353 12.0278C37.6353 10.9566 37.8495 10.0177 38.2781 9.21115C38.7192 8.392 39.3304 7.76188 40.1118 7.3208C40.9059 6.87972 41.8134 6.65918 42.8344 6.65918C43.8175 6.65918 44.6937 6.87342 45.4626 7.3019C46.2315 7.73038 46.83 8.33529 47.2585 9.11664C47.6871 9.88538 47.9014 10.7738 47.9014 11.782ZM45.6516 11.1015C45.639 10.3076 45.3553 9.67114 44.8007 9.19225C44.2461 8.71336 43.5593 8.47392 42.74 8.47392C41.9964 8.47392 41.3597 8.71336 40.8303 9.19225C40.3009 9.65854 39.9858 10.295 39.885 11.1015H45.6516Z" fill="black"/>
<path d="M51.4786 8.34159C51.7937 7.81229 52.2096 7.40272 52.7264 7.11286C53.2558 6.81041 53.8796 6.65918 54.598 6.65918V8.88979H54.0499C53.2054 8.88979 52.5626 9.10403 52.1214 9.53251C51.6929 9.96099 51.4786 10.7045 51.4786 11.7631V17.2451H49.3232V6.82931H51.4786V8.34159Z" fill="black"/>
<path d="M56.9761 5.44937C56.5853 5.44937 56.2576 5.31704 55.9929 5.05239C55.7282 4.78774 55.5957 4.46008 55.5957 4.06941C55.5957 3.67874 55.7282 3.35108 55.9929 3.08643C56.2576 2.82178 56.5853 2.68945 56.9761 2.68945C57.3542 2.68945 57.6754 2.82178 57.9401 3.08643C58.2048 3.35108 58.3373 3.67874 58.3373 4.06941C58.3373 4.46008 58.2048 4.78774 57.9401 5.05239C57.6754 5.31704 57.3542 5.44937 56.9761 5.44937ZM58.0348 6.82932V17.2452H55.8795V6.82932H58.0348Z" fill="black"/>
<path d="M62.3204 8.3605C62.6859 7.88161 63.184 7.47833 63.8142 7.15067C64.4444 6.82301 65.1564 6.65918 65.9505 6.65918C66.858 6.65918 67.6837 6.88602 68.4274 7.33971C69.1837 7.78079 69.7761 8.4046 70.2046 9.21115C70.6332 10.0177 70.8474 10.944 70.8474 11.99C70.8474 13.036 70.6332 13.9748 70.2046 14.8066C69.7761 15.6257 69.1837 16.2685 68.4274 16.7348C67.6837 17.1884 66.858 17.4153 65.9505 17.4153C65.1564 17.4153 64.4505 17.2577 63.8329 16.9427C63.2153 16.615 62.7111 16.2118 62.3204 15.7329V22.1979H60.165V6.82931H62.3204V8.3605ZM68.6543 11.99C68.6543 11.2716 68.503 10.6541 68.2005 10.1374C67.9106 9.60813 67.5199 9.21115 67.0283 8.9465C66.5493 8.66925 66.0326 8.53063 65.478 8.53063C64.936 8.53063 64.4192 8.66925 63.9276 8.9465C63.4487 9.22376 63.0579 9.62703 62.7554 10.1563C62.4655 10.6856 62.3204 11.3094 62.3204 12.0278C62.3204 12.7461 62.4655 13.3762 62.7554 13.9181C63.0579 14.4474 63.4487 14.8507 63.9276 15.128C64.4192 15.4052 64.936 15.5438 65.478 15.5438C66.0326 15.5438 66.5493 15.4052 67.0283 15.128C67.5199 14.8381 67.9106 14.4222 68.2005 13.8803C68.503 13.3384 68.6543 12.7083 68.6543 11.99Z" fill="black"/>
<path d="M74.4346 3.25684V17.2454H72.2793V3.25684H74.4346Z" fill="black"/>
<path d="M81.0839 17.4153C80.1008 17.4153 79.212 17.1947 78.4179 16.7537C77.6239 16.3 77.0001 15.6699 76.5464 14.8633C76.0926 14.0442 75.8657 13.099 75.8657 12.0278C75.8657 10.9692 76.0987 10.0303 76.5651 9.21115C77.0315 8.392 77.6682 7.76188 78.4748 7.3208C79.2815 6.87972 80.1826 6.65918 81.1783 6.65918C82.1741 6.65918 83.0754 6.87972 83.8821 7.3208C84.6888 7.76188 85.3251 8.392 85.7915 9.21115C86.2579 10.0303 86.4912 10.9692 86.4912 12.0278C86.4912 13.0864 86.2517 14.0252 85.7728 14.8444C85.2938 15.6636 84.6384 16.3 83.8065 16.7537C82.9872 17.1947 82.0797 17.4153 81.0839 17.4153ZM81.0839 15.5438C81.6385 15.5438 82.1553 15.4115 82.6343 15.1469C83.1259 14.8822 83.5227 14.4852 83.8252 13.9559C84.1277 13.4266 84.279 12.7839 84.279 12.0278C84.279 11.2716 84.1342 10.6352 83.8443 10.1185C83.5544 9.58922 83.1698 9.19225 82.6908 8.9276C82.2119 8.66295 81.6951 8.53063 81.1405 8.53063C80.5859 8.53063 80.0691 8.66295 79.5902 8.9276C79.1238 9.19225 78.7521 9.58922 78.4748 10.1185C78.1975 10.6352 78.0589 11.2716 78.0589 12.0278C78.0589 13.1494 78.3423 14.0189 78.9095 14.6365C79.4893 15.2414 80.2142 15.5438 81.0839 15.5438Z" fill="black"/>
<path d="M90.4369 8.58707V14.3526C90.4369 14.7433 90.5251 15.0269 90.7016 15.2033C90.8906 15.3671 91.2057 15.449 91.6469 15.449H92.9704V17.2449H91.2688C90.2982 17.2449 89.5546 17.018 89.0378 16.5643C88.521 16.1107 88.2628 15.3734 88.2628 14.3526V8.58707H87.0337V6.82904H88.2628V4.23926H90.4369V6.82904H92.9704V8.58707H90.4369Z" fill="black"/>
<path d="M8.16676 6.9101C8.82236 5.77476 10.4614 5.77476 11.117 6.9101L19.053 20.6535C19.7086 21.7888 18.8891 23.208 17.5779 23.208H1.70584C0.39464 23.208 -0.42486 21.7888 0.23074 20.6535L8.16676 6.9101Z" fill="#6500AC"/>
<path d="M10.8608 4.73751C10.1313 3.46436 10.5722 1.84102 11.8456 1.11168C13.119 0.382342 14.7426 0.82319 15.472 2.09634L22.2961 14.0068C23.0256 15.2799 22.5847 16.9033 21.3113 17.6326C20.0379 18.362 18.4144 17.9211 17.6849 16.6479L10.8608 4.73751Z" fill="#280045"/>
<path d="M20.7397 21.8693C20.0102 20.5962 20.4511 18.9729 21.7245 18.2435C22.9979 17.5142 24.6215 17.955 25.3509 19.2282C26.0804 20.5013 25.6395 22.1247 24.3661 22.854C23.0927 23.5834 21.4691 23.1425 20.7397 21.8693Z" fill="#280045"/>
</g>
<defs>
<clipPath id="clip0_19408_1449">
<rect width="93" height="22.4799" fill="white" transform="translate(0 0.759766)"/>
</clipPath>
</defs>
</svg>
