<svg width="2730" height="660" viewBox="0 0 2730 660" fill="none" xmlns="http://www.w3.org/2000/svg">
<path d="M944.84 427.39L1031.42 178.195H1098.57L982.025 484H906.545L790.55 178.195H858.26L944.84 427.39Z" fill="black"/>
<path d="M1406.14 323.605C1406.14 335.075 1405.4 345.435 1403.92 354.685H1170.27C1172.12 379.105 1181.18 398.715 1197.46 413.515C1213.74 428.315 1233.72 435.715 1257.4 435.715C1291.44 435.715 1315.49 421.47 1329.55 392.98H1397.82C1388.57 421.1 1371.73 444.225 1347.31 462.355C1323.26 480.115 1293.29 488.995 1257.4 488.995C1228.17 488.995 1201.9 482.52 1178.59 469.57C1155.65 456.25 1137.52 437.75 1124.2 414.07C1111.25 390.02 1104.78 362.27 1104.78 330.82C1104.78 299.37 1111.07 271.805 1123.65 248.125C1136.6 224.075 1154.54 205.575 1177.48 192.625C1200.79 179.675 1227.43 173.2 1257.4 173.2C1286.26 173.2 1311.98 179.49 1334.55 192.07C1357.12 204.65 1374.69 222.41 1387.27 245.35C1399.85 267.92 1406.14 294.005 1406.14 323.605ZM1340.1 303.625C1339.73 280.315 1331.4 261.63 1315.12 247.57C1298.84 233.51 1278.68 226.48 1254.63 226.48C1232.8 226.48 1214.11 233.51 1198.57 247.57C1183.03 261.26 1173.78 279.945 1170.82 303.625H1340.1Z" fill="black"/>
<path d="M1511.14 222.595C1520.39 207.055 1532.6 195.03 1547.77 186.52C1563.31 177.64 1581.62 173.2 1602.71 173.2V238.69H1586.62C1561.83 238.69 1542.96 244.98 1530.01 257.56C1517.43 270.14 1511.14 291.97 1511.14 323.05V484H1447.87V178.195H1511.14V222.595Z" fill="black"/>
<path d="M1672.53 137.68C1661.06 137.68 1651.44 133.795 1643.67 126.025C1635.9 118.255 1632.01 108.635 1632.01 97.165C1632.01 85.695 1635.9 76.075 1643.67 68.305C1651.44 60.535 1661.06 56.65 1672.53 56.65C1683.63 56.65 1693.06 60.535 1700.83 68.305C1708.6 76.075 1712.49 85.695 1712.49 97.165C1712.49 108.635 1708.6 118.255 1700.83 126.025C1693.06 133.795 1683.63 137.68 1672.53 137.68ZM1703.61 178.195V484H1640.34V178.195H1703.61Z" fill="black"/>
<path d="M1829.41 223.15C1840.14 209.09 1854.76 197.25 1873.26 187.63C1891.76 178.01 1912.66 173.2 1935.97 173.2C1962.61 173.2 1986.85 179.86 2008.68 193.18C2030.88 206.13 2048.27 224.445 2060.85 248.125C2073.43 271.805 2079.72 299 2079.72 329.71C2079.72 360.42 2073.43 387.985 2060.85 412.405C2048.27 436.455 2030.88 455.325 2008.68 469.015C1986.85 482.335 1962.61 488.995 1935.97 488.995C1912.66 488.995 1891.94 484.37 1873.81 475.12C1855.68 465.5 1840.88 453.66 1829.41 439.6V629.41H1766.14V178.195H1829.41V223.15ZM2015.34 329.71C2015.34 308.62 2010.9 290.49 2002.02 275.32C1993.51 259.78 1982.04 248.125 1967.61 240.355C1953.55 232.215 1938.38 228.145 1922.1 228.145C1906.19 228.145 1891.02 232.215 1876.59 240.355C1862.53 248.495 1851.06 260.335 1842.18 275.875C1833.67 291.415 1829.41 309.73 1829.41 330.82C1829.41 351.91 1833.67 370.41 1842.18 386.32C1851.06 401.86 1862.53 413.7 1876.59 421.84C1891.02 429.98 1906.19 434.05 1922.1 434.05C1938.38 434.05 1953.55 429.98 1967.61 421.84C1982.04 413.33 1993.51 401.12 2002.02 385.21C2010.9 369.3 2015.34 350.8 2015.34 329.71Z" fill="black"/>
<path d="M2185.02 73.3V484H2121.75V73.3H2185.02Z" fill="black"/>
<path d="M2380.2 488.995C2351.34 488.995 2325.25 482.52 2301.94 469.57C2278.63 456.25 2260.32 437.75 2247 414.07C2233.68 390.02 2227.02 362.27 2227.02 330.82C2227.02 299.74 2233.86 272.175 2247.55 248.125C2261.24 224.075 2279.93 205.575 2303.61 192.625C2327.29 179.675 2353.74 173.2 2382.97 173.2C2412.2 173.2 2438.66 179.675 2462.34 192.625C2486.02 205.575 2504.7 224.075 2518.39 248.125C2532.08 272.175 2538.93 299.74 2538.93 330.82C2538.93 361.9 2531.9 389.465 2517.84 413.515C2503.78 437.565 2484.54 456.25 2460.12 469.57C2436.07 482.52 2409.43 488.995 2380.2 488.995ZM2380.2 434.05C2396.48 434.05 2411.65 430.165 2425.71 422.395C2440.14 414.625 2451.79 402.97 2460.67 387.43C2469.55 371.89 2473.99 353.02 2473.99 330.82C2473.99 308.62 2469.74 289.935 2461.23 274.765C2452.72 259.225 2441.43 247.57 2427.37 239.8C2413.31 232.03 2398.14 228.145 2381.86 228.145C2365.58 228.145 2350.41 232.03 2336.35 239.8C2322.66 247.57 2311.75 259.225 2303.61 274.765C2295.47 289.935 2291.4 308.62 2291.4 330.82C2291.4 363.75 2299.72 389.28 2316.37 407.41C2333.39 425.17 2354.67 434.05 2380.2 434.05Z" fill="black"/>
<path d="M2654.75 229.81V399.085C2654.75 410.555 2657.34 418.88 2662.52 424.06C2668.07 428.87 2677.32 431.275 2690.27 431.275H2729.12V484H2679.17C2650.68 484 2628.85 477.34 2613.68 464.02C2598.51 450.7 2590.93 429.055 2590.93 399.085V229.81H2554.85V178.195H2590.93V102.16H2654.75V178.195H2729.12V229.81H2654.75Z" fill="black"/>
<path d="M239.734 180.56C258.979 147.227 307.092 147.227 326.337 180.56L559.298 584.06C578.543 617.394 554.486 659.06 515.996 659.06H50.0746C11.5846 659.06 -12.4717 617.394 6.77333 584.06L239.734 180.56Z" fill="#6500AC"/>
<path d="M318.807 116.785C297.394 79.4058 310.337 31.7452 347.717 10.3321C385.096 -11.081 432.757 1.86213 454.17 39.2414L654.491 388.928C675.904 426.307 662.961 473.968 625.582 495.381C588.202 516.794 540.542 503.851 519.129 466.471L318.807 116.785Z" fill="#280045"/>
<path d="M608.807 619.785C587.394 582.406 600.337 534.745 637.717 513.332C675.096 491.919 722.757 504.862 744.17 542.241C765.583 579.621 752.64 627.281 715.26 648.694C677.881 670.108 630.22 657.164 608.807 619.785Z" fill="#280045"/>
</svg>
